<?xml version="1.0" encoding="UTF-8" standalone="no"?>
<!-- Created with Inkscape (http://www.inkscape.org/) -->

<svg
   version="1.1"
   id="svg2"
   width="2666.6667"
   height="2666.6667"
   viewBox="0 0 2666.6667 2666.6667"
   sodipodi:docname="man with laptop working flat illustration.eps"
   xmlns:inkscape="http://www.inkscape.org/namespaces/inkscape"
   xmlns:sodipodi="http://sodipodi.sourceforge.net/DTD/sodipodi-0.dtd"
   xmlns="http://www.w3.org/2000/svg"
   xmlns:svg="http://www.w3.org/2000/svg">
  <defs
     id="defs6" />
  <sodipodi:namedview
     id="namedview4"
     pagecolor="#ffffff"
     bordercolor="#000000"
     borderopacity="0.25"
     inkscape:showpageshadow="2"
     inkscape:pageopacity="0.0"
     inkscape:pagecheckerboard="0"
     inkscape:deskcolor="#d1d1d1" />
  <g
     id="g8"
     inkscape:groupmode="layer"
     inkscape:label="ink_ext_XXXXXX"
     transform="matrix(1.3333333,0,0,-1.3333333,0,2666.6667)">
    <g
       id="g10"
       transform="scale(0.1)">
      <path
         d="M 20000,0 H 0 V 20000 H 20000 V 0"
         style="fill:#ffffff;fill-opacity:0;fill-rule:nonzero;stroke:none"
         id="path12" />
      <path
         d="m 2741.59,5028.7 c 0,0 -2879.098,3623.7 -496.4,4293.8 2382.7,670.2 248.2,2283.4 223.38,3723 -24.82,1439.5 1557.27,1444 3152.12,0 1147.13,-1038.7 2308.41,23.2 3641.52,727.2 1559.99,823.9 3446.69,-246.8 3528.39,-2009 72.6,-1566.1 -254.8,-2940.7 2137.5,-2416.4 3623.7,794.3 4447.5,-3102.4 3082.4,-4343.4 l -15268.91,24.8"
         style="fill:#cae1f5;fill-opacity:1;fill-rule:nonzero;stroke:none"
         id="path14" />
      <path
         d="M 9555.4,7797.7 H 7498.93 c -114.75,0 -207.77,93.1 -207.77,207.8 v 0 c 0,114.8 93.02,207.8 207.77,207.8 H 9555.4 c 114.75,0 207.77,-93 207.77,-207.8 v 0 c 0,-114.7 -93.02,-207.8 -207.77,-207.8"
         style="fill:#d72f23;fill-opacity:1;fill-rule:nonzero;stroke:none"
         id="path16" />
      <path
         d="M 8369.1,7489.2 H 7349.59 c -16.3,0 -29.51,13.2 -29.51,29.5 V 7641 c 0,16.3 13.21,29.5 29.51,29.5 H 8369.1 c 16.3,0 29.51,-13.2 29.51,-29.5 v -122.3 c 0,-16.3 -13.21,-29.5 -29.51,-29.5"
         style="fill:#2f1925;fill-opacity:1;fill-rule:nonzero;stroke:none"
         id="path18" />
      <path
         d="M 9703.07,7192.5 H 7349.59 c -16.3,0 -29.51,13.2 -29.51,29.5 v 122.3 c 0,16.3 13.21,29.5 29.51,29.5 h 2353.48 c 16.3,0 29.51,-13.2 29.51,-29.5 V 7222 c 0,-16.3 -13.21,-29.5 -29.51,-29.5"
         style="fill:#2f1925;fill-opacity:1;fill-rule:nonzero;stroke:none"
         id="path20" />
      <path
         d="M 9703.07,6899.8 H 7349.59 c -16.3,0 -29.51,13.2 -29.51,29.5 v 122.3 c 0,16.3 13.21,29.5 29.51,29.5 h 2353.48 c 16.3,0 29.51,-13.2 29.51,-29.5 v -122.3 c 0,-16.3 -13.21,-29.5 -29.51,-29.5"
         style="fill:#2f1925;fill-opacity:1;fill-rule:nonzero;stroke:none"
         id="path22" />
      <path
         d="M 9703.07,6607.1 H 7349.59 c -16.3,0 -29.51,13.2 -29.51,29.5 v 122.3 c 0,16.3 13.21,29.5 29.51,29.5 h 2353.48 c 16.3,0 29.51,-13.2 29.51,-29.5 v -122.3 c 0,-16.3 -13.21,-29.5 -29.51,-29.5"
         style="fill:#2f1925;fill-opacity:1;fill-rule:nonzero;stroke:none"
         id="path24" />
      <path
         d="M 9703.07,6314.4 H 7349.59 c -16.3,0 -29.51,13.2 -29.51,29.5 v 122.3 c 0,16.3 13.21,29.5 29.51,29.5 h 2353.48 c 16.3,0 29.51,-13.2 29.51,-29.5 v -122.3 c 0,-16.3 -13.21,-29.5 -29.51,-29.5"
         style="fill:#2f1925;fill-opacity:1;fill-rule:nonzero;stroke:none"
         id="path26" />
      <path
         d="M 9703.07,6021.7 H 7349.59 c -16.3,0 -29.51,13.2 -29.51,29.5 v 122.3 c 0,16.3 13.21,29.5 29.51,29.5 h 2353.48 c 16.3,0 29.51,-13.2 29.51,-29.5 v -122.3 c 0,-16.3 -13.21,-29.5 -29.51,-29.5"
         style="fill:#2f1925;fill-opacity:1;fill-rule:nonzero;stroke:none"
         id="path28" />
      <path
         d="m 8893.01,8809.9 c -428.1,-428.1 -1121.85,-429 -1551.04,-2.4 l -2.39,2.4 c -428.98,429 -429.2,1124.7 -0.22,1553.7 428.97,428.9 1124.67,428.7 1553.65,-0.2 l 2.39,-2.4 c 426.59,-429.2 425.72,-1123 -2.39,-1551.1"
         style="fill:#1b1c1f;fill-opacity:1;fill-rule:nonzero;stroke:none"
         id="path30" />
      <path
         d="m 13253.3,5145 h -153.6 v 1710 l 153.6,10 V 5145"
         style="fill:#2f1925;fill-opacity:1;fill-rule:nonzero;stroke:none"
         id="path32" />
      <path
         d="m 12531.7,5145 h -153.6 v 1710 h 153.6 V 5145"
         style="fill:#2f1925;fill-opacity:1;fill-rule:nonzero;stroke:none"
         id="path34" />
      <path
         d="M 13423,5028.1 H 9761.98 v 203.7 H 13423 v -203.7"
         style="fill:#2f1925;fill-opacity:1;fill-rule:nonzero;stroke:none"
         id="path36" />
      <path
         d="m 13355.6,7142.6 h -2590.2 c -77.2,0 -136.9,67.7 -127.1,144.3 l 329.8,2592.2 c 8.1,64 62.6,112 127.1,112 h 2590.2 c 77.2,0 136.8,-67.8 127.1,-144.4 l -329.8,-2592.2 c -8.2,-64 -62.6,-111.9 -127.1,-111.9"
         style="fill:#2f1925;fill-opacity:1;fill-rule:nonzero;stroke:none"
         id="path38" />
      <path
         d="m 13326.9,7081.1 h -2673.6 c -40.7,0 -79.3,-17.8 -105.8,-48.7 L 9587.33,5912 h 2779.17 c 44,0 85.8,19.2 114.5,52.6 l 884.6,1032.4 c 28.3,33 4.8,84.1 -38.7,84.1"
         style="fill:#2f1925;fill-opacity:1;fill-rule:nonzero;stroke:none"
         id="path40" />
      <path
         d="m 13603,9777.7 -300.4,-2361.8 c -3.4,-27.7 -26.7,-47.9 -54.4,-47.9 h -2360.9 c -33.1,0 -58.6,28.8 -54.3,61.7 l 9.2,72.5 46,361.2 70.7,556 174.5,1372.2 c 3.4,27.3 26.7,47.9 54.3,47.9 h 2361 c 33.1,0 58.6,-29.2 54.3,-61.8"
         style="fill:#d89fcd;fill-opacity:1;fill-rule:nonzero;stroke:none"
         id="path42" />
      <path
         d="m 10772.9,7000.1 c 0,-11.1 -24.3,-20.1 -54.3,-20.1 -30,0 -54.4,9 -54.4,20.1 0,11.1 24.4,20.1 54.4,20.1 30,0 54.3,-9 54.3,-20.1"
         style="fill:#fef1f9;fill-opacity:1;fill-rule:nonzero;stroke:none"
         id="path44" />
      <path
         d="m 11924.7,7000.1 c 0,-11.1 -24.4,-20.1 -54.4,-20.1 -30,0 -54.4,9 -54.4,20.1 0,11.1 24.4,20.1 54.4,20.1 30,0 54.4,-9 54.4,-20.1"
         style="fill:#fef1f9;fill-opacity:1;fill-rule:nonzero;stroke:none"
         id="path46" />
      <path
         d="m 12130.3,7000.1 c 0,-11.1 -24.3,-20.1 -54.3,-20.1 -30,0 -54.4,9 -54.4,20.1 0,11.1 24.4,20.1 54.4,20.1 30,0 54.3,-9 54.3,-20.1"
         style="fill:#fef1f9;fill-opacity:1;fill-rule:nonzero;stroke:none"
         id="path48" />
      <path
         d="m 12336,7000.1 c 0,-11.1 -24.3,-20.1 -54.3,-20.1 -30.1,0 -54.4,9 -54.4,20.1 0,11.1 24.3,20.1 54.4,20.1 30,0 54.3,-9 54.3,-20.1"
         style="fill:#fef1f9;fill-opacity:1;fill-rule:nonzero;stroke:none"
         id="path50" />
      <path
         d="m 12541.7,7000.1 c 0,-11.1 -24.3,-20.1 -54.4,-20.1 -30,0 -54.3,9 -54.3,20.1 0,11.1 24.3,20.1 54.3,20.1 30.1,0 54.4,-9 54.4,-20.1"
         style="fill:#fef1f9;fill-opacity:1;fill-rule:nonzero;stroke:none"
         id="path52" />
      <path
         d="m 12747.4,7000.1 c 0,-11.1 -24.4,-20.1 -54.4,-20.1 -30,0 -54.3,9 -54.3,20.1 0,11.1 24.3,20.1 54.3,20.1 30,0 54.4,-9 54.4,-20.1"
         style="fill:#fef1f9;fill-opacity:1;fill-rule:nonzero;stroke:none"
         id="path54" />
      <path
         d="m 12953.1,7000.1 c 0,-11.1 -24.4,-20.1 -54.4,-20.1 -30,0 -54.4,9 -54.4,20.1 0,11.1 24.4,20.1 54.4,20.1 30,0 54.4,-9 54.4,-20.1"
         style="fill:#fef1f9;fill-opacity:1;fill-rule:nonzero;stroke:none"
         id="path56" />
      <path
         d="m 13158.7,7000.1 c 0,-11.1 -24.3,-20.1 -54.3,-20.1 -30,0 -54.4,9 -54.4,20.1 0,11.1 24.4,20.1 54.4,20.1 30,0 54.3,-9 54.3,-20.1"
         style="fill:#fef1f9;fill-opacity:1;fill-rule:nonzero;stroke:none"
         id="path58" />
      <path
         d="m 10625.1,6936 h 2499.3 l -515,-594.5 h -2487.9 l 503.6,594.5"
         style="fill:#fef1f9;fill-opacity:1;fill-rule:nonzero;stroke:none"
         id="path60" />
      <path
         d="m 10851.2,6260 h 745.6 l -153.6,-177.3 H 10701 l 150.2,177.3"
         style="fill:#fef1f9;fill-opacity:1;fill-rule:nonzero;stroke:none"
         id="path62" />
      <path
         d="m 13359.7,7077.6 h -2667.6 c -18.9,0 -34.2,15.3 -34.2,34.1 v 0 c 0,18.9 15.3,34.1 34.2,34.1 h 2667.6 c 18.9,0 34.2,-15.2 34.2,-34.1 v 0 c 0,-18.8 -15.3,-34.1 -34.2,-34.1"
         style="fill:#d89fcd;fill-opacity:1;fill-rule:nonzero;stroke:none"
         id="path64" />
      <path
         d="m 15967.8,6950.9 c 0,0 596.9,1484.3 2324.8,1091.6 0,0 -1657.2,-94.2 -2246.2,-1162.3 l -78.6,70.7"
         style="fill:#415fb5;fill-opacity:1;fill-rule:nonzero;stroke:none"
         id="path66" />
      <path
         d="m 15554.1,6899.6 c 0,0 923,451.3 841,1056.4 -82.1,605.1 -430.8,1692.3 1025.6,1815.3 0,0 -1517.9,0 -1333.3,-1046.1 184.6,-1046.1 92.3,-1292.3 -533.3,-1825.6"
         style="fill:#233343;fill-opacity:1;fill-rule:nonzero;stroke:none"
         id="path68" />
      <path
         d="m 15974.5,6800.8 c 0,0 -104.3,1259 753.8,1940.7 858,681.6 -376.9,1595.8 -376.9,1595.8 0,0 793.9,-898.2 -48.1,-1515.6 -842,-617.5 -328.8,-2020.9 -328.8,-2020.9"
         style="fill:#415fb5;fill-opacity:1;fill-rule:nonzero;stroke:none"
         id="path70" />
      <path
         d="m 15770.4,6933.4 c 22.6,128.4 1461.6,2213.3 -1094.9,2525.9 0,0 1344.2,-281.8 823.9,-2656 l 271,130.1"
         style="fill:#415fb5;fill-opacity:1;fill-rule:nonzero;stroke:none"
         id="path72" />
      <path
         d="m 15771.2,6787.6 c 0,0 -1232.6,685.9 -457.3,2534.9 0,0 -526.8,-1670 586.5,-2445.4 l -129.2,-89.5"
         style="fill:#233343;fill-opacity:1;fill-rule:nonzero;stroke:none"
         id="path74" />
      <path
         d="m 16533.4,5016.2 h -1437.7 c 0,0 53.2,318.5 495.9,318.5 l -35.7,271.4 c 0,0 -389.4,147.7 -454.2,537.1 -37.5,225.5 47.2,428.8 125.5,560.3 66.7,112.5 82.9,247.3 45.8,372.3 l 522.8,5.6 v 0.4 l 19,-0.4 18.5,0.4 v -0.4 l 523.3,-5.6 c -37.5,-125 -21.3,-259.8 45.3,-372.3 78.3,-131.5 163,-334.8 125.5,-560.3 -64.8,-389.4 -454.2,-537.1 -454.2,-537.1 l -35.7,-271.4 c 442.7,0 495.9,-318.5 495.9,-318.5"
         style="fill:#d89fcd;fill-opacity:1;fill-rule:nonzero;stroke:none"
         id="path76" />
      <path
         d="M 16073.2,5606.1 15703.7,5332 h 333.8 c 0,0 -244.9,0 -327.4,-315.8 h -614.4 c 0,0 53.2,318.5 495.9,318.5 l -35.7,271.4 c 0,0 -389.4,147.7 -454.2,537.1 -37.5,225.5 47.2,428.8 125.5,560.3 66.7,112.5 82.9,247.3 45.8,372.3 l 522.8,5.6 v 0.4 l 19,-0.4 18.5,0.4 v -0.4 l 523.3,-5.6 -282.3,-98.1 c -441.5,-153.6 -667.5,-659 -461.9,-1078.7 82.5,-168.3 223.6,-292.9 460.8,-292.9"
         style="fill:#c56cb7;fill-opacity:1;fill-rule:nonzero;stroke:none"
         id="path78" />
      <path
         d="m 7387.41,11792.8 c -124.4,-1351.6 -960.52,-1151.9 -960.52,-1151.9 l -404.86,-853.9 -880.04,564.2 -784.21,503.2 160.34,610 h 458.92 l 170.48,1109.5 c 0,0 -15.98,272.2 186.76,373.5 202.73,101.4 373.52,-80.1 373.52,-80.1 l 304.1,-298.6 h 287.82 l 47.92,153.9 46.69,148.7 86.93,278.9 c 66.34,1.5 129.01,22.7 181.53,59 52.22,36.2 94.61,87.2 119.49,148.9 l 125.64,309.3 c -378.74,309.4 -581.48,394.8 -581.48,394.8 682.84,-111.8 895.71,-358.2 895.71,-358.2 72.8,-362.1 121.03,-681.9 149.29,-964.2 2.15,-21.8 4.3,-43.3 6.14,-64.8 31.95,-350.2 32.26,-640.8 9.83,-882.2"
         style="fill:#f89d8b;fill-opacity:1;fill-rule:nonzero;stroke:none"
         id="path80" />
      <path
         d="m 6426.89,10640.9 -772.23,814.3 -512.67,-1104 -784.21,503.2 160.34,610 h 458.92 l 170.48,1109.5 c 0,0 -15.98,272.2 186.76,373.5 202.73,101.4 373.52,-80.1 373.52,-80.1 l 304.1,-298.6 h 136.69 l 278.3,-1927.8"
         style="fill:#ce5041;fill-opacity:1;fill-rule:nonzero;stroke:none"
         id="path82" />
      <path
         d="m 16204.8,8041.9 v 0 c -62.6,10.4 -104.8,69.6 -94.4,132.2 l 660.1,3954.1 c 10.4,62.6 69.6,104.8 132.1,94.4 v 0 c 62.6,-10.5 104.8,-69.6 94.4,-132.2 l -660.1,-3954.2 c -10.4,-62.5 -69.6,-104.7 -132.1,-94.3"
         style="fill:#d89fcd;fill-opacity:1;fill-rule:nonzero;stroke:none"
         id="path84" />
      <path
         d="m 12012.6,5300.7 v 0 c -5.8,46.3 26.6,88.6 72.8,95.1 l 1738.1,242.7 c 62,8.7 119.3,-34.5 128,-96.5 v 0 l -1938.9,-241.3"
         style="fill:#2f1925;fill-opacity:1;fill-rule:nonzero;stroke:none"
         id="path86" />
      <path
         d="m 11588.6,5143.4 v 0 c -7.8,62.6 36.1,120 98.7,128.7 l 2507,350.2 21.3,-152.1 -2627,-326.8"
         style="fill:#d89fcd;fill-opacity:1;fill-rule:nonzero;stroke:none"
         id="path88" />
      <path
         d="m 14273.9,5051.2 h -2685.3 v 92.2 h 2593.2 v 585.5 c 0,25.4 20.6,46 46.1,46 v 0 c 25.4,0 46,-20.6 46,-46 v -677.7"
         style="fill:#c56cb7;fill-opacity:1;fill-rule:nonzero;stroke:none"
         id="path90" />
      <path
         d="m 12234.9,5480.7 c -8.6,-35.9 -32.6,-76.8 -64.5,-107.8 -63.6,-62.4 -158.2,-87.2 -223.9,39 l -47.3,55.9 c 0,0 -95,-34.4 -224,-21.5 0,0 -288.4,-309.9 -843.8,-434.6 h -525.2 l 8.9,200.2 29.8,669.4 c 0,0 628.4,434.6 718.7,426 90.7,-8.6 159.5,-81.7 159.5,-81.7 0,0 710.5,90.3 775,-120.4 0,0 258.3,-228.2 202.4,-482.3 0,0 60.2,-34.4 34.4,-142.2"
         style="fill:#f89d8b;fill-opacity:1;fill-rule:nonzero;stroke:none"
         id="path92" />
      <path
         d="M 10405.4,6079.4 V 4972 H 2770.62 c 0,0 0,359.4 0,2836.5 0,2476.7 1418.22,3156.8 1418.22,3156.8 L 4357.78,10854.4 6022.03,9787 c 164.65,-151.8 316.39,-429.2 451.85,-762.1 421.44,-1037.1 684.69,-2612.8 684.69,-2612.8 l 102.29,-83 308.4,-249.7 h 2836.14"
         style="fill:#d72f23;fill-opacity:1;fill-rule:nonzero;stroke:none"
         id="path94" />
      <path
         d="m 7222.15,13704 c 0,0 609.74,333.6 152.36,734.8 -433.43,379.9 -2299.38,702.9 -2675.14,311.6 93.94,181.3 236,319.7 236,319.7 -148.29,-115.7 -251.09,-232.9 -322.62,-342.8 -169.77,24.9 -405.27,12 -698.27,-119.8 0,0 313.12,101.4 569.2,39.6 -294.8,-81.6 -880.5,-375.6 -917.17,-1426.3 l 951.62,-1756.4 h 458.91 l 170.47,1109.5 c 0,0 -15.97,272.2 186.77,373.5 156.04,78.1 293.34,-11.6 348.03,-56.8 1.23,-1.2 2.46,-2.1 3.68,-3.1 14.13,-11.9 21.81,-20.2 21.81,-20.2 l 304.1,-298.6 25.5,-781.1 -281.68,-244.5 671.16,-902.2 c 0,0 836.13,-199.7 960.53,1151.9 -160.34,0 -307.79,-87.9 -383.97,-228.9 l -51.59,-95.2 c -238.37,126 -416.84,341 -496.7,598.4 l -155.43,501.6 75.57,242.7 28.25,89.3 77.71,249.5 c 132.71,3.1 250.96,84.8 301.04,207.9 l 125.63,309.3 c -378.75,309.4 -581.48,394.8 -581.48,394.8 682.85,-111.8 895.71,-358.2 895.71,-358.2"
         style="fill:#2f1925;fill-opacity:1;fill-rule:nonzero;stroke:none"
         id="path96" />
      <path
         d="m 7158.57,6412.1 -747.35,818.6 -868.99,951.9 -555.67,1746 1272,-2059.3 900.01,-1457.2"
         style="fill:#bf2124;fill-opacity:1;fill-rule:nonzero;stroke:none"
         id="path98" />
      <path
         d="m 5621.18,12060.9 c -0.62,0.4 -1.23,0.7 -2.46,1 -31.64,11 -287.82,110.5 -322.22,461.3 -35.02,359.4 311.47,292.8 339.11,286.6 0.62,-0.3 1.23,-0.3 1.54,-0.3 -8.29,0 -218.71,-3.1 -224.85,-301.3 -5.84,-293.4 194.44,-437.1 208.88,-447.3"
         style="fill:#2f1925;fill-opacity:1;fill-rule:nonzero;stroke:none"
         id="path100" />
      <path
         d="m 5494.31,12416.9 c 41.47,-253.4 120.11,-347.4 127.17,-356 h -0.3 c -14.44,10.2 -214.72,153.9 -208.88,447.3 6.14,298.2 216.56,301.3 224.85,301.3 0.31,0 0.31,0 0.31,0 0,0 -187.07,-126.8 -143.15,-392.6"
         style="fill:#c23c34;fill-opacity:1;fill-rule:nonzero;stroke:none"
         id="path102" />
      <path
         d="m 7561.58,12754.5 -46.08,-411 c -3.99,-33.7 -34.4,-58 -67.88,-54.3 -33.79,4 -58.06,34.4 -54.37,67.9 l 37.78,337.5 -55.9,6.2 -999.54,110.6 h -0.31 l 19.05,59.9 9.21,29.5 1040.7,-114.9 c 10.44,23.9 35.63,39.6 62.97,36.5 33.79,-3.7 58.05,-34.1 54.37,-67.9"
         style="fill:#2f1925;fill-opacity:1;fill-rule:nonzero;stroke:none"
         id="path104" />
      <path
         d="m 7377.58,12675 -1077.86,-106.3 75.87,242.7 999.54,-110.6 c 0.92,-8.6 1.84,-17.2 2.45,-25.8"
         style="fill:#ce5041;fill-opacity:1;fill-rule:nonzero;stroke:none"
         id="path106" />
      <path
         d="m 12170.4,5372.9 c -63.6,-62.4 -158.2,-87.2 -223.9,39 l -47.3,55.9 c 0,0 -95,-34.4 -224,-21.5 0,0 -288.4,-309.9 -843.8,-434.6 h -525.2 l 8.9,200.2 c 25.5,2.2 53.1,3.4 83.5,3.4 673.6,0 1226.2,317 1226.2,317 154.6,-4 356.7,27.7 356.7,27.7 l 188.9,-187.1"
         style="fill:#ce5041;fill-opacity:1;fill-rule:nonzero;stroke:none"
         id="path108" />
      <path
         d="M 10405.4,6079.4 V 4972 H 2770.62 c 0,0 0,359.4 0,2836.5 0,2476.7 1418.22,3156.8 1418.22,3156.8 l 168.94,-110.9 1664.25,-1067.4 -1390.87,477 c 0,0 -739.67,-478.6 -739.67,-1740.1 0,-1261.3 2870.83,-3288.3 2870.83,-3288.3 H 10155 l 250.4,843.8"
         style="fill:#bf2124;fill-opacity:1;fill-rule:nonzero;stroke:none"
         id="path110" />
      <path
         d="m 11552.4,5725.3 c 0,0 446.6,72.5 485.2,68 38.5,-4.5 162.9,-170.4 162.9,-170.4 0,0 -85.8,220.3 -124.4,261.1 -38.5,40.8 -523.7,-158.7 -523.7,-158.7"
         style="fill:#ce5041;fill-opacity:1;fill-rule:nonzero;stroke:none"
         id="path112" />
      <path
         d="m 11468.6,6024.6 c 0,0 390.9,87.8 529.5,80.6 0,0 -296.4,106.6 -529.5,-80.6"
         style="fill:#ce5041;fill-opacity:1;fill-rule:nonzero;stroke:none"
         id="path114" />
      <path
         d="m 7158.57,6412.1 -747.35,818.6 c -44.23,118.8 -81.4,246 -109.97,379.6 -18.73,87.6 -32.86,174.2 -42.69,259 -57.44,488.4 27.33,920.6 215.32,1155.6 28.88,-71.3 57.14,-145 84.48,-220.9 269.39,-743 463.52,-1665.2 550.14,-2116.7 32.87,-171.7 50.07,-275.2 50.07,-275.2"
         style="fill:#fef1f9;fill-opacity:1;fill-rule:nonzero;stroke:none"
         id="path116" />
      <path
         d="m 14103.5,5018.1 h -1632.3 c 0,0 47.3,337 656.4,337 344.7,0 611.6,-107.8 778.4,-201.5 52.5,-29.5 95.2,-57.5 127.2,-80.5 46.1,-32.9 70.3,-55 70.3,-55"
         style="fill:#bf2124;fill-opacity:1;fill-rule:nonzero;stroke:none"
         id="path118" />
      <path
         d="M 18637.4,4929.9 H 2263.73 c -33.93,0 -61.43,27.5 -61.43,61.5 v 0 c 0,33.9 27.5,61.4 61.43,61.4 H 18637.4 c 33.9,0 61.4,-27.5 61.4,-61.4 v 0 c 0,-34 -27.5,-61.5 -61.4,-61.5"
         style="fill:#2f1925;fill-opacity:1;fill-rule:nonzero;stroke:none"
         id="path120" />
      <path
         d="m 12090.8,9839.5 -1202.6,-1976.1 70.7,556 865.6,1420.1 h 266.3"
         style="fill:#fef1f9;fill-opacity:1;fill-rule:nonzero;stroke:none"
         id="path122" />
      <path
         d="M 12969,9839.5 11407.4,7368 h -520.1 c -33.1,0 -58.6,28.8 -54.3,61.7 l 9.2,72.5 1460.3,2337.3 h 666.5"
         style="fill:#fef1f9;fill-opacity:1;fill-rule:nonzero;stroke:none"
         id="path124" />
      <path
         d="m 17472.8,8333.6 104.7,615.9 c 12.5,73.8 14.7,147.6 7.5,219.9 64.4,-3.9 127.7,-13.3 188.6,-35.5 260.5,-94.9 401.8,-389.8 399.3,-654 -2.7,-309 -163.4,-595.9 -342.8,-837.3 -142.3,-191.7 -306.1,-353.8 -511.9,-463.1 38.2,386.9 89.7,772.2 154.6,1154.1 z m -519.1,1125.4 36.9,221 c 117.2,-42.7 219,-119.2 293.9,-222.8 43.1,-59.5 74.9,-124.7 95,-193 -149.8,9.1 -382.4,53.9 -425.8,194.8 z m 283.6,-3843.2 c 2.3,486.8 26,975.1 71,1461.4 125.8,56.2 244.8,129.5 353.2,231.2 350.2,329 695.1,871.7 581.5,1371.8 -50.1,220.3 -190.2,431.6 -401.2,525 -87.1,38.6 -178.4,50.4 -271,54.4 -23.6,108.9 -69.6,212.7 -137,305.8 -103.7,143.2 -247.3,246.4 -412.5,298.8 l 87.3,523 c 23.8,142.3 -65.7,277.2 -202.7,312.9 l 255.6,1531 c 12.6,75.3 -38.3,146.5 -113.6,159.1 -75.3,12.5 -146.5,-38.3 -159.1,-113.6 l -794.7,-4760.7 c -12.5,-75.3 38.3,-146.5 113.6,-159.1 v 0 c 75.3,-12.5 146.5,38.3 159.1,113.6 l 251.8,1508.2 c 141.1,-10.7 269.6,87.9 293.3,230.1 l 21.1,126.3 c 28.3,-35.8 64.3,-67 106.8,-91.4 111.6,-64.4 234.8,-70.8 359.4,-71.3 8.5,-62.9 7.6,-127.4 -3.4,-191.9 l -104.7,-615.9 c -71.3,-419.2 -126.6,-842.4 -166,-1267.3 -216.6,-73.4 -444.3,-107.3 -666.5,-159.6 -217.8,-51 -436.5,-120.7 -616.8,-257.7 -189.5,-144.4 -307.2,-350.8 -432.8,-548.6 -303.2,-476.1 -900.9,-967.3 -1503,-977.7 52.5,-29.5 95.2,-57.5 127.2,-80.5 395.6,50.7 767,286 1063.4,546.2 215.3,189.5 355.1,416.5 510.2,653.6 171.4,261.7 382.1,431.3 681.3,524.1 274,84.7 561.3,122.5 828.7,207.9 -39.7,-455 -60.9,-911.6 -63.7,-1366.9 -13.4,0.5 -26.9,0.8 -40.5,0.8 -454.4,0 -825.9,-270.5 -853.6,-612 h 1707.2 c -22.9,283 -282.1,517.1 -628.9,589"
         style="fill:#2f1925;fill-opacity:1;fill-rule:nonzero;stroke:none"
         id="path126" />
      <path
         d="m 7108.5,6687.3 -312.08,795.3 -236.53,-264.5 187.99,445.4 -180.92,737.2 -194.75,-347.7 186.15,751 c 269.39,-743 463.52,-1665.2 550.14,-2116.7"
         style="fill:#2f1925;fill-opacity:1;fill-rule:nonzero;stroke:none"
         id="path128" />
      <path
         d="m 9214.78,9586.7 c 0,-605.4 -489.94,-1096.6 -1095.06,-1098.4 h -3.38 c -606.67,0 -1098.76,491.8 -1098.76,1098.4 0,606.7 492.09,1098.5 1098.76,1098.5 h 3.38 c 605.12,-1.9 1095.06,-493 1095.06,-1098.5"
         style="fill:#d89fcd;fill-opacity:1;fill-rule:nonzero;stroke:none"
         id="path130" />
      <path
         d="M 8119.72,10685.2 V 8488.3 h -3.38 c -301.95,0 -575.95,121.9 -774.38,319.1 l -2.46,2.5 c -6.76,6.8 -13.21,13.5 -19.66,20.3 -6.76,6.7 -12.9,13.8 -19.35,20.9 -50.07,55.6 -93.69,115.2 -130.55,177.5 -4.61,7.7 -9.21,15.7 -13.51,23.7 -4.61,7.6 -8.91,15.6 -12.91,23.6 -3.99,7.7 -7.98,15.7 -11.98,23.4 -8.29,16.5 -15.97,33.1 -23.34,50 -10.44,24.3 -20.27,48.9 -28.87,74.1 -5.84,16.8 -11.06,33.7 -16.28,50.6 -4.92,16.9 -9.53,34.1 -13.83,51.3 -3.99,17.2 -7.98,34.4 -11.36,51.6 -8.47,42.6 -13.97,86 -17.13,130.2 -0.03,0.4 -0.07,0.9 -0.1,1.4 -1.82,25.9 -3.05,51.9 -3.05,78.2 0,17.9 0.31,35.4 1.54,52.9 2.15,53.4 8.6,105.9 18.74,156.9 1.84,8.9 3.68,17.5 5.53,26.1 1.84,8.6 3.68,17.2 5.83,25.8 4.3,17.2 8.91,34.1 13.83,51.3 4.91,16.6 10.44,33.2 15.97,49.8 3.07,8.6 6.14,17.2 9.52,25.8 5.84,15.4 11.98,30.4 18.12,45.5 7.99,18.1 16.28,35.9 24.88,53.7 3.38,6.5 6.46,12.9 10.14,19.4 26.73,51.9 58.36,102 94.3,150.2 4.92,6.7 10.14,13.5 15.36,20.3 4.3,5.2 8.6,10.4 12.9,15.6 5.84,7.4 11.67,14.5 17.82,21.5 18.12,21.2 37.47,42.1 57.44,62.1 12.59,12.6 25.19,24.6 38.09,36.2 5.84,5.2 11.36,10.5 17.2,15.4 14.13,12.3 28.57,24.6 43.31,35.9 6.76,5.2 13.83,10.8 20.89,16 30.1,22.4 61.13,43.3 92.77,62.3 5.83,3.4 11.67,6.8 17.81,10.2 30.72,18.1 62.36,34.1 94.61,48.5 8.29,3.7 16.28,7.4 24.57,10.8 16.59,7 33.49,13.8 50.38,19.9 8.29,3.1 16.59,5.9 24.88,8.6 8.6,3.1 17.2,5.9 25.8,8.3 8.6,2.8 17.21,5.2 25.81,7.7 8.6,2.5 17.51,4.9 26.1,7.1 8.91,2.4 17.82,4.6 26.73,6.4 8.6,2.2 17.51,4 26.42,5.9 9.21,1.8 18.12,3.6 27.03,5.2 5.22,0.9 10.44,1.8 15.66,2.8 6.76,0.9 13.83,2.1 20.89,3 8.6,1.3 17.2,2.5 26.11,3.4 8.6,1.2 16.89,2.2 25.5,3.1 16.58,1.5 33.17,2.4 49.76,3.4 7.37,0.6 14.74,0.9 22.11,0.9 12.6,0.3 25.19,0.6 37.79,0.6"
         style="fill:#d72f23;fill-opacity:1;fill-rule:nonzero;stroke:none"
         id="path132" />
      <path
         d="m 8895.33,10360.8 -775.61,-775.6 v 1100 c 279.83,-0.9 559.66,-108.1 773.15,-321.9 l 2.46,-2.5"
         style="fill:#2f1925;fill-opacity:1;fill-rule:nonzero;stroke:none"
         id="path134" />
      <path
         d="M 10736.3,10476.7 H 9459.33 c -71.25,0 -129.01,57.7 -129.01,129 v 0 c 0,71.2 57.76,129 129.01,129 h 1276.97 c 71.2,0 129,-57.8 129,-129 v 0 c 0,-71.3 -57.8,-129 -129,-129"
         style="fill:#d72f23;fill-opacity:1;fill-rule:nonzero;stroke:none"
         id="path136" />
      <path
         d="M 9999.65,10285.1 H 9366.6 c -10.12,0 -18.32,8.2 -18.32,18.3 v 76 c 0,10.1 8.2,18.3 18.32,18.3 h 633.05 c 10.15,0 18.35,-8.2 18.35,-18.3 v -76 c 0,-10.1 -8.2,-18.3 -18.35,-18.3"
         style="fill:#2f1925;fill-opacity:1;fill-rule:nonzero;stroke:none"
         id="path138" />
      <path
         d="M 10828,10100.9 H 9366.6 c -10.12,0 -18.32,8.2 -18.32,18.3 v 75.9 c 0,10.1 8.2,18.3 18.32,18.3 H 10828 c 10.1,0 18.3,-8.2 18.3,-18.3 v -75.9 c 0,-10.1 -8.2,-18.3 -18.3,-18.3"
         style="fill:#2f1925;fill-opacity:1;fill-rule:nonzero;stroke:none"
         id="path140" />
      <path
         d="M 10828,9919.1 H 9366.6 c -10.12,0 -18.32,8.2 -18.32,18.3 v 76 c 0,10.1 8.2,18.3 18.32,18.3 H 10828 c 10.1,0 18.3,-8.2 18.3,-18.3 v -76 c 0,-10.1 -8.2,-18.3 -18.3,-18.3"
         style="fill:#2f1925;fill-opacity:1;fill-rule:nonzero;stroke:none"
         id="path142" />
      <path
         d="M 10828,9737.4 H 9366.6 c -10.12,0 -18.32,8.2 -18.32,18.3 v 75.9 c 0,10.1 8.2,18.3 18.32,18.3 H 10828 c 10.1,0 18.3,-8.2 18.3,-18.3 v -75.9 c 0,-10.1 -8.2,-18.3 -18.3,-18.3"
         style="fill:#2f1925;fill-opacity:1;fill-rule:nonzero;stroke:none"
         id="path144" />
      <path
         d="M 10828,9555.6 H 9366.6 c -10.12,0 -18.32,8.2 -18.32,18.3 v 76 c 0,10.1 8.2,18.3 18.32,18.3 H 10828 c 10.1,0 18.3,-8.2 18.3,-18.3 v -76 c 0,-10.1 -8.2,-18.3 -18.3,-18.3"
         style="fill:#2f1925;fill-opacity:1;fill-rule:nonzero;stroke:none"
         id="path146" />
      <path
         d="M 10828,9373.9 H 9366.6 c -10.12,0 -18.32,8.2 -18.32,18.3 v 75.9 c 0,10.1 8.2,18.3 18.32,18.3 H 10828 c 10.1,0 18.3,-8.2 18.3,-18.3 v -75.9 c 0,-10.1 -8.2,-18.3 -18.3,-18.3"
         style="fill:#2f1925;fill-opacity:1;fill-rule:nonzero;stroke:none"
         id="path148" />
    </g>
  </g>
</svg>
