<?xml version="1.0" encoding="utf-8"?>
<!-- Generator: Adobe Illustrator 24.3.0, SVG Export Plug-In . SVG Version: 6.00 Build 0)  -->
<svg version="1.1" id="Layer_1" xmlns="http://www.w3.org/2000/svg" xmlns:xlink="http://www.w3.org/1999/xlink" x="0px" y="0px"
	 viewBox="0 0 4000 4000" style="enable-background:new 0 0 4000 4000;" xml:space="preserve">
<style type="text/css">
	.st0{fill:#FFCC80;}
	.st1{fill:#AFACA8;}
	.st2{opacity:0.3;}
	.st3{fill:#440203;}
	.st4{fill:#19B5FE;}
	.st5{fill:#611940;}
	.st6{fill:#FFFFFF;}
	.st7{fill:#CFCFCF;}
	.st8{opacity:0.75;}
	.st9{fill:#EC1C24;}
	.st10{opacity:0.55;}
	.st11{fill:#FBBA9E;}
	.st12{fill:#855139;}
	.st13{fill:#3AAAFF;}
	.st14{fill:#371A45;}
	.st15{fill:#FEBE98;}
	.st16{fill:#6A697C;}
	.st17{opacity:0.35;}
	.st18{fill:#4F4FAF;}
	.st19{fill:#464183;}
	.st20{fill:#8C5032;}
	.st21{fill:#EC187C;}
	.st22{fill:#FDD800;}
	.st23{fill:#00EDF9;}
	.st24{fill:#9CFCFF;}
	.st25{fill:#0F227A;}
	.st26{fill:#E4E6EF;}
	.st27{fill:#4982FF;}
	.st28{fill:#13E8E8;}
	.st29{opacity:0.6;}
	.st30{opacity:0.2;}
	.st31{fill:#262F6A;}
	.st32{fill:#FC6DA4;}
	.st33{fill:#D3D5E2;}
	.st34{fill:#02DAFF00;}
	.st35{opacity:0.55;fill:url(#SVGID_1_);}
	.st36{opacity:0.55;fill:url(#SVGID_2_);}
	.st37{opacity:0.55;fill:url(#SVGID_3_);}
	.st38{opacity:0.55;fill:url(#SVGID_4_);}
	.st39{fill:#5A60AA;}
	.st40{fill:#418BF9;}
	.st41{fill:#F6D61D;}
	.st42{fill:#E1E1EF;}
	.st43{fill:#D3D5E0;}
	.st44{opacity:0.4;}
	.st45{fill:#EE346A;}
	.st46{fill:#9EEF79;}
	.st47{fill:#FCCFA5;}
	.st48{fill:#410608;}
	.st49{fill:#FF3B3C;}
	.st50{fill:#29ADEF;}
	.st51{fill:#A1A8C6;}
	.st52{opacity:0.7;}
	.st53{fill:#EAA926;}
	.st54{fill:#41E53C;}
	.st55{fill:#FA7510;}
	.st56{fill:#4CABF2;}
	.st57{fill:#28DDDD;}
	.st58{fill:#554573;}
	.st59{fill:#351A47;}
	.st60{fill:#FF3D7B;}
	.st61{fill:#709C41;}
	.st62{fill:#A0DE5D;}
	.st63{fill:#61C94C;}
	.st64{fill:#456129;}
	.st65{fill:#102770;}
	.st66{fill:#8C3232;}
	.st67{fill:#40378F;}
	.st68{fill:#2F1345;}
	.st69{fill:#FDBD91;}
	.st70{fill:#A53838;}
	.st71{fill:#FF3366;}
	.st72{fill:#2CDFF9;}
	.st73{fill:#6271CF;}
	.st74{fill:#959AAF;}
	.st75{fill:#FF8661;}
	.st76{fill:#4D1111;}
	.st77{fill:#E82E2E;}
	.st78{fill:#8F6767;}
	.st79{fill:#BABABA;}
	.st80{fill:#8F3D3D;}
	.st81{fill:#FAA285;}
	.st82{fill:#2C2757;}
	.st83{fill:#270F3D;}
	.st84{fill:#F4CB00;}
	.st85{fill:#F4536E;}
	.st86{opacity:0.55;clip-path:url(#SVGID_6_);}
	.st87{fill:#80B4FF;}
	.st88{fill:#BBB8CC;}
	.st89{fill:#23235E;}
	.st90{fill:#9B96B5;}
	.st91{fill:#E8629C;}
	.st92{fill:#C287FA;}
	.st93{fill:#FFAC32;}
	.st94{fill:none;stroke:#102770;stroke-width:40.3931;stroke-linecap:round;stroke-linejoin:round;stroke-miterlimit:10;}
	.st95{fill:#FC6DB1;}
	.st96{opacity:0.8;}
	.st97{fill:#66DECC;}
	.st98{fill:#66DADD;}
	.st99{fill:#75FDFF;}
	.st100{fill:#FC63A6;}
	.st101{fill:#81DBE6;}
	.st102{fill:#618DAF;}
	.st103{fill:#452161;}
	.st104{fill:#FF85A7;}
	.st105{fill:#FD9800;}
	.st106{fill:#D86600;}
	.st107{fill:#244061;}
	.st108{fill:#B5EA24;}
	.st109{fill:#FFD54F;}
	.st110{fill:#7FDCFF;}
	.st111{fill:#FFCCBC;}
	.st112{fill:#FFB031;}
	.st113{fill:#1E276A;}
	.st114{fill:#AC3D50;}
	.st115{fill:#ED197C;}
	.st116{fill:none;stroke:#1E276A;stroke-width:44.0593;stroke-linecap:round;stroke-linejoin:round;stroke-miterlimit:10;}
	.st117{fill:#A0A1A8;}
</style>
<g>
	<rect x="2.5" y="2.5" class="st34" width="3995.01" height="3995.01"/>
	<g>
		<g>
			<path class="st6" d="M1327.99,3348.45l141.27-448.98c12.08-38.39,33.97-73.12,64.07-99.83c20.65-18.32,43.78-33.84,68.79-46.06
				l213.54-104.08h381.41l213.54,104.08c48.5,23.69,89.91,59.78,119.9,104.67L2664,3057.81l188.28-206.19
				c10.04-11.02,27.69-10.17,36.62,1.77l99.68,132.56c6.82,9.12,6.23,21.79-1.38,30.25l-267.88,298.33
				c-47.45,52.96-129.08,56.63-181.19,8.33l-128.03-118.78l10.37,154.22h-828.51l10.7-154.22l-4.4,4.07L1327.99,3348.45z"/>
		</g>
		<g class="st2">
			<path class="st25" d="M2019.9,2916.85l44.69-45.54c94.96,80.78,143.59,75.47,154.61,0.2
				C2234.88,3039.17,2177.2,3070.6,2019.9,2916.85z"/>
		</g>
		<g class="st2">
			<path class="st25" d="M2001.52,2916.85c-157.3,153.76-214.98,122.32-199.3-45.35c11.02,75.27,59.65,80.59,154.61-0.2
				L2001.52,2916.85z"/>
		</g>
		<g>
			<path class="st18" d="M1998.44,2789.71l-82.04,475.68c-2.07,10.15,1.4,20.63,9.11,27.55l64.53,57.9c11.09,9.95,27.9,9.95,38.99,0
				l64.53-57.9c7.71-6.92,11.17-17.4,9.11-27.54l-81.98-475.69H1998.44z"/>
		</g>
		<g>
			<path class="st25" d="M2009.53,3378.01c-11.67,0-23.34-4.17-32.64-12.52l-64.53-57.9c-12.77-11.46-18.62-28.98-15.32-45.8
				l82-475.43c1.85-10.71,12.06-17.9,22.75-16.06c2.88,0.5,5.51,1.6,7.78,3.15c2.27-1.55,4.89-2.66,7.78-3.15
				c10.68-1.84,20.9,5.34,22.74,16.06l81.94,475.43c3.3,16.82-2.56,34.34-15.32,45.79l-64.53,57.9
				C2032.87,3373.84,2021.2,3378.01,2009.53,3378.01z M2009.56,2841.07l-73.76,427.67c-0.03,0.2-0.07,0.39-0.11,0.58
				c-0.67,3.29,0.47,6.73,2.97,8.97l64.53,57.9c3.62,3.25,9.08,3.24,12.69,0l64.53-57.9c2.5-2.24,3.64-5.68,2.97-8.97
				c-0.04-0.19-0.08-0.38-0.11-0.58L2009.56,2841.07z"/>
		</g>
		<g>
			<polygon class="st18" points="2076.63,2881.38 2049.2,2929.92 1969.9,2929.92 1944.78,2881.38 1952.26,2815.3 2081.96,2815.3 			
				"/>
		</g>
		<g>
			<path class="st6" d="M2197.35,2649.49c58.67,279.24,15.72,369.66-177.49,180.9L2197.35,2649.49z"/>
		</g>
		<g>
			<path class="st6" d="M1824.06,2649.49c-58.67,279.24-15.72,369.66,177.49,180.9L1824.06,2649.49z"/>
		</g>
		<g>
			<path class="st15" d="M2197.1,2649.49c-130.86,241.21-255.2,241.21-373.04,0H2197.1z"/>
		</g>
		<g>
			<path class="st15" d="M2879.95,2846.13c-50.26-121.15,2.49-166.53,69.69-74.91l63.58-64.07c21.13-21.29,55.37-23.03,77.93-3.27
				c123.08,107.83,50.37,262.9-109.48,272.93L2879.95,2846.13z"/>
		</g>
		<g>
			<path class="st25" d="M1849.07,2949.63c-10.5,0-20.02-2.38-28.64-7.12c-48.4-26.57-53.22-118.19-15.63-297.07
				c1.73-8.23,8.49-14.45,16.84-15.49c8.36-1.05,16.43,3.34,20.12,10.89c54.5,111.56,109.11,168.71,162.31,169.84
				c54.44,1.08,113.68-56.23,175.73-170.59c5.19-9.56,17.14-13.1,26.69-7.92c9.56,5.18,13.1,17.14,7.92,26.69
				c-68.52,126.3-135.59,188.93-204.81,191.15C1939.94,2917.12,1887.81,2949.62,1849.07,2949.63z M1832.78,2708.09
				c-28.87,165.19-2.86,194.71,6.6,199.9c7.45,4.1,37.05,10,121.69-66.51C1916.51,2824.03,1874.1,2779.9,1832.78,2708.09z"/>
		</g>
		<g>
			<path class="st25" d="M2172.35,2949.63c-39.8,0-93.71-34.3-166.24-105.15c-7.78-7.6-7.92-20.06-0.32-27.84
				c7.6-7.77,20.06-7.92,27.84-0.32c105.3,102.87,140.22,96.18,148.41,91.68c10.41-5.72,40.91-40.97-3.95-254.46
				c-2.24-10.64,4.58-21.08,15.22-23.31c10.62-2.24,21.08,4.58,23.31,15.22c37.59,178.88,32.76,270.5-15.63,297.07
				C2192.36,2947.24,2182.85,2949.63,2172.35,2949.63z"/>
		</g>
		<g>
			<path class="st25" d="M2049.2,2949.61h-79.3c-7.36,0-14.1-4.1-17.48-10.64l-25.13-48.55c-5-9.66-1.22-21.54,8.43-26.53
				c9.66-5,21.54-1.22,26.53,8.43l19.62,37.91h55.83l21.78-38.55c5.35-9.46,17.36-12.8,26.83-7.45c9.47,5.35,12.8,17.36,7.45,26.83
				l-27.44,48.55C2062.85,2945.79,2056.3,2949.61,2049.2,2949.61z"/>
		</g>
		<g>
			<path class="st25" d="M2390.48,3205.9l-1.17-190.73c-0.01-1.82,1.46-3.3,3.27-3.31c1.63-0.01,2.98,1.16,3.26,2.71l33.84,187.7
				c1.94,10.74-5.2,21.02-15.94,22.95s-21.02-5.2-22.95-15.94C2390.59,3208.18,2390.49,3206.98,2390.48,3205.9z"/>
		</g>
		<g>
			<path class="st25" d="M2680.76,3068.16l-55.7,58.9c-1.27,1.35-3.39,1.4-4.74,0.13c-1-0.95-1.29-2.37-0.85-3.58l27.79-76.15
				c3.81-10.43,15.35-15.8,25.78-11.99c10.43,3.81,15.8,15.35,11.99,25.78C2684.08,3063.87,2682.55,3066.24,2680.76,3068.16z"/>
		</g>
		<g>
			<path class="st25" d="M2420.47,3377.99h-828.51c-10.87,0-19.69-8.81-19.69-19.69c0-10.87,8.81-19.69,19.69-19.69h807.45
				l-8.98-133.21c-0.54-8.05,3.88-15.62,11.17-19.09c7.28-3.48,15.95-2.16,21.86,3.33l128.03,118.76
				c21.31,19.77,49.06,29.91,78.07,28.6c29.03-1.33,55.72-13.97,75.13-35.59l267.88-298.35c1.32-1.47,1.42-3.69,0.23-5.27
				l-99.64-132.59c-0.97-1.29-2.23-1.61-3.12-1.66c-0.88-0.03-2.18,0.16-3.26,1.35l-188.23,206.18c-4.08,4.47-10,6.82-16.02,6.36
				c-6.03-0.45-11.52-3.66-14.88-8.69l-133.47-199.57c-28.05-41.94-66.85-75.79-112.2-97.9l-213.51-104.09
				c-9.77-4.76-13.84-16.55-9.07-26.32c4.76-9.77,16.56-13.84,26.32-9.07l213.51,104.09c51.61,25.16,95.76,63.68,127.68,111.41
				l119.5,178.69l171.29-187.63c8.76-9.6,21.21-14.76,34.22-14.13c12.98,0.62,24.91,6.93,32.72,17.33l99.64,132.59
				c12.46,16.58,11.44,39.8-2.41,55.23L2734,3327.72c-26.53,29.54-62.98,46.81-102.64,48.62c-39.68,1.82-77.53-12.06-106.64-39.06
				l-91.67-85.03l7.06,104.73c0.37,5.44-1.54,10.79-5.26,14.77S2425.92,3377.99,2420.47,3377.99z"/>
		</g>
		<g>
			<path class="st25" d="M1327.99,3368.14c-1.96,0-3.95-0.29-5.91-0.91c-10.37-3.26-16.13-14.32-12.87-24.69l141.26-448.97
				c13.35-42.41,37.48-79.98,69.79-108.66c22.08-19.6,46.74-36.1,73.28-49.04l213.51-104.09c9.77-4.78,21.56-0.7,26.32,9.07
				c4.77,9.77,0.7,21.56-9.07,26.32l-213.51,104.09c-23.32,11.37-44.99,25.87-64.39,43.09c-26.98,23.94-47.16,55.42-58.37,91.03
				l-141.26,448.96C1344.12,3362.76,1336.35,3368.14,1327.99,3368.14z"/>
		</g>
		<g>
			<path class="st25" d="M1583.07,3202.31l33.51-187.73c0.32-1.79,2.03-2.98,3.82-2.66c1.6,0.29,2.72,1.68,2.71,3.26l-0.83,190.7
				c-0.05,10.91-8.93,19.72-19.85,19.68c-10.91-0.05-19.72-8.93-19.68-19.85C1582.77,3204.57,1582.89,3203.37,1583.07,3202.31z"/>
		</g>
		<g>
			<g>
				<g>
					<path class="st15" d="M1405.24,2030.99c-64.57,27.5-109.86,91.48-109.86,166.1c0,99.68,80.85,180.47,180.47,180.47
						c13.06,0,25.72-1.38,38-4.07l29.84-203.11l-83.12-111.54L1405.24,2030.99z"/>
				</g>
				<g>
					<path class="st15" d="M2576.17,2058.84l-83.12,111.54l29.84,203.11c12.27,2.69,24.94,4.07,38,4.07
						c99.62,0,180.47-80.78,180.47-180.47c0-74.61-45.28-138.6-109.85-166.1L2576.17,2058.84z"/>
				</g>
				<g class="st2">
					<path class="st25" d="M2741.35,2197.09c0,99.68-80.85,180.47-180.47,180.47c-13.06,0-25.72-1.38-38-4.07l-29.86-203.11
						l11.09-14.9l18.77,127.77c12.27,2.69,24.94,4.07,38,4.07c84,0,154.68-57.49,174.76-135.32
						C2739.38,2166.37,2741.35,2181.53,2741.35,2197.09z"/>
				</g>
				<g class="st2">
					<path class="st25" d="M1291.99,2197.09c0,99.68,80.85,180.47,180.47,180.47c13.06,0,25.72-1.38,38-4.07l29.86-203.11
						l-11.09-14.9l-18.77,127.77c-12.27,2.69-24.94,4.07-38,4.07c-84,0-154.68-57.49-174.76-135.32
						C1293.96,2166.37,1291.99,2181.53,1291.99,2197.09z"/>
				</g>
				<g>
					<path class="st15" d="M2560.88,2170.38c0,32.35-2.36,63.13-6.82,92.4c-87.21,572.38-986.01,556.3-1071.65-4
						c-4.33-28.09-6.56-57.55-6.56-88.4l38-470.99c0,0,384.23-34.32,390.79-36.49c6.56-2.17,605.91,21.85,605.91,21.85
						L2560.88,2170.38z"/>
				</g>
				<g class="st2">
					<path class="st25" d="M2560.88,2170.38c0,32.35-2.36,63.13-6.82,92.4c-87.21,572.38-986.01,556.3-1071.65-4
						c-4.33-28.09-6.56-57.55-6.56-88.4l3.48-42.79c0.79,8.14,1.84,16.14,3.08,24.02c85.64,560.3,984.43,576.38,1071.65,4
						c1.12-7.35,2.1-14.7,2.95-22.25L2560.88,2170.38z"/>
				</g>
				<g>
					<path class="st19" d="M2692.13,1776.63c-2.56,27.69-5.91,55.78-10.24,83.61c-20.34,132.63-60.7,259.35-121.01,310.14
						c-56.37-47.51-84.39-126.39-96.4-223.06c-7.61-61.75-8.73-130.79-6.43-203.5c-158.42-118.19-303.18-69.3-446.25,0
						c-100.21,41.08-194.97,59.65-282.84,50.01c-53.48-5.77-104.41-21.98-152.45-50.01c14.63,66.15,14.31,130.59,1.51,193.59
						c-16.01,79.73-51.84,157.17-102.18,232.97c-63.52-86.89-91.94-184.08-94.7-288.75c-0.26-9.97-0.33-19.95-0.13-30.06
						c1.31-72.91,14.31-149.23,35.77-228.04c-43.64-98.9-53.55-196.15-30.91-285.27c26.18-103.49,96.34-195.95,208.42-266.89
						c12.86-8.14,29.66-5.45,39.64,5.97c6.1,6.96,12.6,13.65,19.56,20.02c55.72,50.86,137.35,80.39,231.85,87.21
						c47.71,3.48,95.61-0.79,142.6-10.11c283.37-56.31,584.58-48.96,548.23,258.76C2695.54,1485.59,2705.91,1624.91,2692.13,1776.63
						z"/>
				</g>
				<g class="st17">
					<path class="st25" d="M2525.05,1824.73l-67,17.52c-158.42-118.19-303.18-69.3-446.25,0
						c-100.21,41.08-194.97,59.65-282.84,50.01c-53.48-5.77-104.41-21.98-152.45-50.01l-71.99-27.04l9.32-115.83
						c0,0,384.23-34.32,390.79-36.49c6.56-2.17,605.91,21.85,605.91,21.85L2525.05,1824.73z"/>
				</g>
				<g class="st10">
					<path class="st6" d="M2692.13,1776.63c-2.49,27.1-5.77,54.53-9.97,81.77c0.39-4.13,0.79-8.2,1.18-12.27
						c12.06-132.76,5.68-256.07-76.08-319.91c-23.4-18.27-36.47-46.87-36.85-76.56c-3.27-255.39-285.11-258.65-551.26-205.77
						c-46.92,9.32-94.83,13.58-142.6,10.11c-107.42-7.76-198.28-44.77-253.2-109.36c-8.77-10.31-23.87-12.59-35.34-5.39
						c-117.73,73.83-189.64,171.18-213.68,280.06c4.73-136.05,79.34-258.84,219.97-347.95c12.83-8.13,29.66-5.45,39.64,6
						c55.11,63.21,145.14,99.53,251.4,107.21c47.71,3.48,95.61-0.79,142.6-10.11c283.37-56.31,584.58-48.96,548.23,258.76
						C2695.54,1485.59,2705.91,1624.91,2692.13,1776.63z"/>
				</g>
				<g>
					<path class="st25" d="M2560.86,2190.09c-4.51,0-9.02-1.55-12.69-4.64c-103.93-87.64-114.64-266.22-110.1-431.81
						c-150.05-106.5-288.55-54.63-417.68,7.92c-0.37,0.18-0.74,0.34-1.12,0.5c-161.21,66.05-297.91,71.93-416.37,17.65
						c17.9,131.1-18.49,262.9-110.63,401.59c-3.56,5.36-9.52,8.64-15.95,8.79c-6.44,0.12-12.53-2.86-16.33-8.06
						c-104.75-143.15-125.7-325.39-63.98-556.96c-95.22-222.57-25.34-435.39,187.78-570.37c21.09-13.36,48.44-9.26,65.01,9.74
						c49.97,57.33,134.48,93.02,237.95,100.51c42.82,3.1,89.03-0.2,137.33-9.79c246.53-48.97,416.31-32.41,504.62,49.23
						c53.78,49.72,76.79,122.7,68.48,217.06c123.33,63.88,127.38,215.73,114.54,357c-6.71,73.82-36.51,321.35-138.17,407.02
						C2569.88,2188.54,2565.37,2190.09,2560.86,2190.09z M2256.62,1652.99c68.34,0,139.71,20.22,213.2,75.08
						c5.15,3.85,8.1,9.96,7.9,16.39c-4.44,142.54,1.39,314.35,82.89,398.78c53.38-59.06,96.57-199.89,111.89-368.37
						c17.03-187.32-14.15-284.11-104.24-323.62c-7.93-3.48-12.66-11.74-11.64-20.34c10.39-88-7.99-154.48-54.65-197.61
						c-78.54-72.61-236.75-85.91-470.23-39.53c-51.76,10.28-101.51,13.79-147.84,10.44c-113.9-8.24-207.94-48.69-264.78-113.91
						c-3.7-4.25-9.7-5.24-14.26-2.36c-197.23,124.92-260.8,322.16-170.04,527.62c1.82,4.13,2.17,8.77,0.99,13.13
						c-57.02,209.42-44.14,375.37,39.52,506.08c82.95-134.25,109.75-260.99,81.95-386.69c-1.69-7.63,1.3-15.54,7.61-20.15
						c6.31-4.61,14.75-5.05,21.51-1.11c115.24,67.06,251.77,66.75,417.38-0.97C2081.22,1688.37,2166.26,1652.99,2256.62,1652.99z"/>
				</g>
				<g>
					<path class="st25" d="M2024.19,2705.27c-147.54,0-285.77-47.71-389.24-134.33c-116.95-97.91-178.77-236.42-178.77-400.54
						c0-10.87,8.81-19.69,19.69-19.69c10.87,0,19.69,8.81,19.69,19.69c0,325.29,265.94,495.49,528.64,495.49
						c136.61,0,263.24-43.75,356.56-123.2c104.95-89.35,160.42-218.08,160.42-372.3c0-10.87,8.81-19.69,19.69-19.69
						s19.69,8.81,19.69,19.69c0,166.11-60.26,305.22-174.27,402.28C2305.84,2658.18,2170.15,2705.27,2024.19,2705.27z"/>
				</g>
				<g>
					<path class="st25" d="M1475.85,2397.24c-110.36,0-200.16-89.79-200.16-200.15c0-80.39,47.82-152.69,121.83-184.21
						c10-4.26,21.56,0.4,25.83,10.4c4.26,10-0.4,21.57-10.4,25.83c-59.46,25.32-97.88,83.4-97.88,147.98
						c0,88.65,72.13,160.78,160.78,160.78c11.48,0,22.85-1.21,33.78-3.61c10.61-2.32,21.12,4.39,23.44,15.02
						c2.33,10.62-4.4,21.12-15.02,23.44C1504.36,2395.72,1490.16,2397.24,1475.85,2397.24z"/>
				</g>
				<g>
					<path class="st25" d="M2560.88,2397.24c-13.66,0-27.24-1.37-40.34-4.08c-10.65-2.2-17.5-12.62-15.29-23.27
						c2.2-10.65,12.6-17.5,23.27-15.29c10.48,2.17,21.38,3.27,32.37,3.27c88.65,0,160.78-72.12,160.78-160.78
						c0-61.8-34.51-117.14-90.06-144.42c-9.76-4.79-13.78-16.59-8.99-26.35c4.8-9.76,16.59-13.78,26.35-8.99
						c69.13,33.96,112.07,102.84,112.07,179.76C2761.04,2307.45,2671.25,2397.24,2560.88,2397.24z"/>
				</g>
				<g class="st17">
					<path class="st25" d="M2692.13,1776.63c-2.56,27.69-5.91,55.78-10.24,83.61c-7.35,4.53-15.09,8.86-23.03,13.06l-5.32,2.76
						c-20.19,10.21-42.11,20.12-65.6,29.63c-35.44,14.35-53.23,54.07-39.93,89.91c6.7,18.06,15,34.62,25.2,49.51
						c15.16,21.98,47.77,22.77,63.06,0.79l0.26-0.39c-20.15,54.8-45.41,99.36-75.67,124.88c-56.37-47.51-84.39-126.39-96.4-223.06
						c-7.61-61.75-8.73-130.79-6.43-203.5c-158.42-118.19-303.18-69.3-446.25,0c-100.21,41.08-194.9,59.59-282.84,50.01
						c-0.98-0.13-1.9-0.26-2.89-0.33c-9.58-0.92-25.2-3.68-34.65-5.58c-0.72-0.13-1.38-0.26-2.1-0.39c-3.28-0.72-6.5-1.44-9.78-2.23
						c-2.23-0.52-4.46-1.05-6.69-1.71c-1.97-0.46-3.94-0.98-5.91-1.58c-3.15-0.85-6.3-1.77-9.45-2.76
						c-2.89-0.85-5.71-1.71-8.53-2.69c-2.89-0.92-5.78-1.97-8.6-2.95c-2.89-0.98-5.77-2.1-8.6-3.22
						c-18.83-7.22-37.21-16.08-55.26-26.58c14.63,66.15,14.31,130.59,1.51,193.59c-16.01,79.73-51.84,157.17-102.18,232.97
						c-63.52-86.89-91.94-184.08-94.7-288.75c42.46,92.6,77.44,98.04,105.39,23.3c-22.84-9.32-44.1-18.97-63.72-28.87l-5.25-2.76
						c-12.93-6.76-25.13-14.04-36.55-21.72c1.31-72.91,14.31-149.23,35.77-228.04c-43.64-98.9-53.55-196.15-30.91-285.27
						c66.61-91.74,158.68-177.45,267.62-240.91c55.72,50.86,137.35,80.39,231.85,87.21c47.71,3.48,95.61-0.79,142.6-10.11
						c283.37-56.31,584.58-48.96,548.23,258.76C2695.54,1485.59,2705.91,1624.91,2692.13,1776.63z"/>
				</g>
				<g>
					<g>
						<path class="st25" d="M1900.26,2343.42c18.07,20,37.14,35.91,58.14,46.56c20.81,10.71,42.98,16.44,64.95,15.96
							c21.97-0.42,43.62-6.62,64.43-17.71c10.39-5.56,20.61-12.26,30.64-19.91c10.05-7.66,19.75-16.28,30.26-25.12l0.07-0.06
							c1.16-0.97,2.88-0.82,3.85,0.33c0.6,0.71,0.77,1.66,0.54,2.5c-7.45,26.72-22.94,51.77-45.63,70.76
							c-11.26,9.55-24.4,17.3-38.65,22.79c-14.28,5.35-29.68,8.32-45.11,8.37c-30.98,0.38-61.26-11.25-84.15-30
							c-22.87-18.84-39.08-44.65-44.06-72.15c-0.27-1.48,0.72-2.9,2.2-3.17C1898.7,2342.37,1899.65,2342.75,1900.26,2343.42z"/>
					</g>
				</g>
				<g class="st2">
					<path class="st25" d="M2464.48,1947.32c-122,34.12-268.6,56.44-426.3,56.44c-172.53,0-331.86-26.77-460.16-66.35
						c12.8-63,13.12-127.44-1.51-193.59c18.05,10.5,36.42,19.36,55.26,26.58c2.82,1.12,5.71,2.23,8.6,3.22
						c2.82,0.98,5.71,2.03,8.6,2.95c2.82,0.98,5.64,1.84,8.53,2.69c3.15,0.98,6.3,1.9,9.45,2.76c1.97,0.59,3.94,1.12,5.91,1.58
						c2.23,0.66,4.46,1.18,6.69,1.71c3.28,0.79,6.5,1.51,9.78,2.23c0.72,0.13,1.38,0.26,2.1,0.39c9.45,1.9,25.07,4.66,34.65,5.58
						c0.98,0.07,1.9,0.2,2.89,0.33c87.94,9.58,182.63-8.93,282.84-50.01c143.06-69.3,287.83-118.19,446.25,0
						C2455.75,1816.53,2456.87,1885.57,2464.48,1947.32z"/>
				</g>
				<g>
					<path class="st25" d="M1493.49,2112.09c-12.55,0-23.04-9.83-23.72-22.51c-0.7-13.11,9.36-24.31,22.47-25.01l181.54-9.69
						c13.12-0.72,24.31,9.36,25.01,22.47c0.7,13.11-9.36,24.31-22.47,25.01l-181.54,9.69
						C1494.35,2112.08,1493.92,2112.09,1493.49,2112.09z"/>
				</g>
				<g>
					<path class="st25" d="M2436.29,2109.29c1.06,66.46-29.69,120.82-74.23,153.68c-9.03,6.66-18.65,12.47-28.69,17.28
						c-14.58,7.03-30.06,11.99-45.96,14.69c-17.75,3.01-36.03,3.17-54.26,0.16c-61.07-10.2-120.93-56.32-155.16-151.2
						c-16.01-44.32,15.16-91.5,62.23-93.46l6.13-0.26l53.52-2.22l50.35-2.11l34.34-1.43l79.35-3.33
						C2402.91,2039.45,2435.66,2070.3,2436.29,2109.29z"/>
				</g>
				<g>
					<path class="st25" d="M1960.82,2143.89c-18.6,51.56-44.8,88.76-74.6,113.53c-9.09,7.55-18.44,13.95-28.05,19.23
						c-14.63,8.14-29.85,13.74-45.12,17.01c-17.86,3.86-35.82,4.54-53.41,2.43c-84.16-9.93-158.7-83.84-157.06-186.81
						c0.58-37.09,30.22-66.78,66.67-68.15c1.85-0.16,3.75-0.16,5.65-0.05l49.4,2.06l51.88,2.17l35.4,1.48l87.01,3.65
						C1945.66,2052.39,1976.83,2099.57,1960.82,2143.89z"/>
				</g>
				<linearGradient id="SVGID_1_" gradientUnits="userSpaceOnUse" x1="1705.816" y1="2042.8416" x2="1776.2565" y2="2291.144">
					<stop  offset="0" style="stop-color:#FFFFFF"/>
					<stop  offset="1" style="stop-color:#0F227A;stop-opacity:0"/>
				</linearGradient>
				<path class="st35" d="M1813.05,2293.67c-17.86,3.86-35.82,4.54-53.41,2.43l-90.39-254.96c1.85-0.16,3.75-0.16,5.65-0.05
					l49.4,2.06L1813.05,2293.67z"/>
				<linearGradient id="SVGID_2_" gradientUnits="userSpaceOnUse" x1="1793.368" y1="2018.004" x2="1863.8086" y2="2266.3066">
					<stop  offset="0" style="stop-color:#FFFFFF"/>
					<stop  offset="1" style="stop-color:#0F227A;stop-opacity:0"/>
				</linearGradient>
				<path class="st36" d="M1886.22,2257.43c-9.09,7.55-18.44,13.95-28.05,19.23l-81.99-231.34l35.4,1.48L1886.22,2257.43z"/>
				<linearGradient id="SVGID_3_" gradientUnits="userSpaceOnUse" x1="2172.0935" y1="2030.3252" x2="2242.5339" y2="2253.9736">
					<stop  offset="0" style="stop-color:#FFFFFF"/>
					<stop  offset="1" style="stop-color:#0F227A;stop-opacity:0"/>
				</linearGradient>
				<path class="st37" d="M2287.42,2294.94c-17.75,3.01-36.03,3.17-54.26,0.16l-86.8-244.92l53.52-2.22L2287.42,2294.94z"/>
				<linearGradient id="SVGID_4_" gradientUnits="userSpaceOnUse" x1="2258.4951" y1="2003.1121" x2="2328.9355" y2="2226.7605">
					<stop  offset="0" style="stop-color:#FFFFFF"/>
					<stop  offset="1" style="stop-color:#0F227A;stop-opacity:0"/>
				</linearGradient>
				<path class="st38" d="M2362.07,2262.97c-9.03,6.66-18.65,12.47-28.69,17.28l-83.16-234.41l34.34-1.43L2362.07,2262.97z"/>
				<g>
					<path class="st25" d="M2259.94,2316.95c-72.93,0-156.01-43.06-200.47-166.38c-9.83-27.26-6.23-56.63,9.86-80.59
						c15.94-23.73,41.48-38.03,70.07-39.23l223.69-9.35c24.19-1.01,47.3,7.6,64.95,24.26c17.62,16.64,27.54,39.14,27.92,63.34l0,0
						c1.81,114.66-80.52,189.89-162.79,204.94C2282.47,2315.9,2271.32,2316.95,2259.94,2316.95z M2366.87,2060.69
						c-0.71,0-1.42,0.01-2.14,0.04l-223.69,9.35c-15.93,0.67-30.15,8.63-39.03,21.84c-9.03,13.44-11.04,29.95-5.51,45.28
						c43.06,119.43,126.15,149.59,189.58,137.99c65.96-12.06,131.97-72.81,130.5-165.58l0,0c-0.21-13.5-5.75-26.04-15.58-35.33
						C2391.67,2065.47,2379.62,2060.69,2366.87,2060.69z"/>
				</g>
				<g>
					<path class="st25" d="M1778.89,2316.95c-11.39,0-22.53-1.05-33.23-3.01c-82.27-15.05-164.6-90.27-162.79-204.94
						c0.38-24.21,10.3-46.7,27.92-63.34c17.65-16.66,40.74-25.24,64.95-24.26l223.69,9.35c28.59,1.19,54.13,15.49,70.07,39.23
						c16.09,23.96,19.69,53.33,9.86,80.59C1934.91,2273.88,1851.82,2316.95,1778.89,2316.95z M1671.96,2060.69
						c-12.75,0-24.8,4.78-34.14,13.6c-9.83,9.29-15.37,21.83-15.58,35.33l0,0c-1.46,92.77,64.54,153.52,130.5,165.58
						c63.41,11.61,146.52-18.56,189.58-137.99c5.53-15.34,3.52-31.84-5.51-45.28c-8.88-13.22-23.1-21.18-39.03-21.84l-223.69-9.35
						C1673.39,2060.71,1672.67,2060.69,1671.96,2060.69z M1602.55,2109.31h0.05H1602.55z"/>
				</g>
				<g>
					<path class="st25" d="M2100.86,2145.97c-54.91-45.03-105.26-45.09-158.46-0.21l-30.66-36.34
						c70.79-59.73,146.62-59.8,219.27-0.21L2100.86,2145.97z"/>
				</g>
				<g>
					<path class="st25" d="M2552.4,2112.09c-0.43,0-0.86-0.01-1.28-0.03l-181.54-9.69c-13.11-0.7-23.17-11.89-22.47-25.01
						c0.7-13.11,11.97-23.12,25.01-22.47l181.54,9.69c13.11,0.7,23.17,11.89,22.47,25.01
						C2575.44,2102.26,2564.95,2112.09,2552.4,2112.09z"/>
				</g>
			</g>
			<g>
				<g>
					<path class="st18" d="M2807.08,1565.92c0,107.68-55.01,180.55-148.21,229.27l-5.3,2.75
						c-140.23,70.82-363.71,127.73-615.37,127.73s-475.14-56.91-615.37-127.73l-5.3-2.75c-93.2-48.72-148.21-121.59-148.21-229.27
						c0-37.49,6.71-77.25,19.35-117.92c78.09-251.23,383.98-536.64,749.53-536.64c360.18,0,662.46,277.07,745.93,525.62
						C2799.17,1481.47,2807.08,1525.03,2807.08,1565.92z"/>
				</g>
				<g class="st10">
					<path class="st6" d="M2653.57,1797.94c-5.08,2.54-10.31,5.15-15.6,7.63c-129.71-49.36-349.94-81.7-599.76-81.7
						s-470.05,32.34-599.76,81.7c-5.3-2.47-10.52-5.08-15.6-7.63c127.24-76.96,355.24-128.23,615.37-128.23
						S2526.34,1720.98,2653.57,1797.94z"/>
				</g>
				<g class="st10">
					<path class="st6" d="M2807.08,1565.92c0,9.53-0.42,18.85-1.27,27.82c-22.95-267.19-357.78-625.89-767.6-625.89
						s-744.65,358.7-767.6,625.89c-0.85-8.97-1.27-18.29-1.27-27.82c0-269.38,344.22-654.56,768.87-654.56
						S2807.08,1296.54,2807.08,1565.92z"/>
				</g>
				<g>
					<path class="st25" d="M2038.21,1945.36c-229.89,0-463.25-48.54-624.24-129.85l-5.5-2.86
						c-105.4-55.09-158.82-138.1-158.82-246.74c0-139.71,88.68-309.33,231.44-442.68c159.86-149.33,357.72-231.56,557.12-231.56
						c199.4,0,397.26,82.24,557.12,231.56c142.76,133.35,231.44,302.98,231.44,442.68c0,108.64-53.42,191.65-158.78,246.72
						l-5.34,2.77C2501.46,1896.82,2268.09,1945.36,2038.21,1945.36z M2038.21,931.05c-189.39,0-377.7,78.47-530.24,220.96
						c-135.05,126.15-218.95,284.75-218.95,413.91c0,94.12,45.02,163.41,137.64,211.83l5.26,2.73
						c155.55,78.56,382.27,125.52,606.29,125.52c224.01,0,450.74-46.96,606.49-125.62l5.09-2.65
						c92.58-48.39,137.6-117.68,137.6-211.8c0-129.16-83.89-287.76-218.95-413.91C2415.91,1009.52,2227.6,931.05,2038.21,931.05z"/>
				</g>
				<g>
					<path class="st22" d="M2658.87,1795.19l-5.3,2.75c-127.24-76.96-355.24-128.23-615.37-128.23
						c-260.13,0-488.13,51.26-615.37,128.23l-5.3-2.75c126.11-138.25,356.86-230.82,620.66-230.82S2532.76,1656.93,2658.87,1795.19z
						"/>
				</g>
				<g>
					<path class="st25" d="M2653.57,1817.63c-3.54,0-7.06-0.95-10.19-2.84c-127.86-77.34-359.75-125.38-605.18-125.38
						c-245.43,0-477.32,48.05-605.18,125.38c-5.88,3.56-13.17,3.79-19.27,0.62l-5.3-2.75c-5.43-2.82-9.23-8-10.3-14.02
						c-1.07-6.02,0.72-12.19,4.84-16.71c135.5-148.55,372.96-237.24,635.21-237.24s499.71,88.69,635.21,237.24
						c4.12,4.52,5.91,10.69,4.84,16.71c-1.07,6.02-4.88,11.2-10.3,14.02l-5.3,2.75C2659.8,1816.89,2656.69,1817.63,2653.57,1817.63z
						 M2038.21,1650.03c195.22,0,377.55,28.49,513.3,78.41c-131.75-90.74-317.74-144.38-513.3-144.38
						c-195.56,0-381.54,53.64-513.29,144.38C1660.66,1678.51,1842.99,1650.03,2038.21,1650.03z"/>
				</g>
				<g>
					<path class="st6" d="M2038.21,1429.07c-0.71,0.07-1.48,0.07-2.19,0.14c-0.71-0.07-1.48-0.07-2.19-0.14H2038.21z"/>
				</g>
				<g class="st17">
					<path class="st25" d="M2807.08,1565.92c0,107.68-55.01,180.55-148.21,229.27c-126.11-138.25-356.86-230.82-620.66-230.82
						s-494.55,92.57-620.66,230.82c-93.2-48.72-148.21-121.59-148.21-229.27c0-37.49,6.71-77.25,19.35-117.92
						c22.74,251.58,353.12,2.54,747.34-18.78c399.72,21.61,733.99,277.5,748.11,7.77
						C2799.17,1481.47,2807.08,1525.03,2807.08,1565.92z"/>
				</g>
				<g>
					<polygon class="st22" points="2017.68,1290.92 2240.31,1286.46 2178,1360.04 2019.72,1363.21 					"/>
				</g>
				<g>
					<path class="st25" d="M2019.71,1380.11c-9.17,0-16.7-7.34-16.88-16.56c-0.19-9.33,7.22-17.04,16.55-17.23l150.66-3.02
						l33.2-39.2l-185.22,3.7c-9.48,0.14-17.05-7.23-17.23-16.55c-0.19-9.33,7.22-17.04,16.55-17.23l222.63-4.45
						c6.81-0.15,12.74,3.64,15.6,9.63c2.85,6,1.93,13.11-2.37,18.18l-62.31,73.58c-3.13,3.7-7.71,5.87-12.55,5.97l-158.28,3.17
						C2019.94,1380.1,2019.82,1380.11,2019.71,1380.11z"/>
				</g>
				<g>
					<polygon class="st22" points="2048.16,1254.72 2264.5,1201.96 2219.68,1287.33 2065.87,1324.84 					"/>
				</g>
				<g>
					<path class="st25" d="M2065.86,1341.74c-7.61,0-14.52-5.17-16.4-12.89c-2.21-9.07,3.35-18.2,12.41-20.42l146.4-35.71
						l23.88-45.48l-179.98,43.9c-9.07,2.22-18.2-3.34-20.42-12.41c-2.21-9.07,3.35-18.21,12.41-20.42l216.34-52.76
						c6.45-1.58,13.23,0.78,17.32,6.01c4.09,5.23,4.73,12.37,1.64,18.26l-44.82,85.37c-2.25,4.29-6.24,7.41-10.95,8.56
						l-153.81,37.51C2068.53,1341.58,2067.19,1341.74,2065.86,1341.74z"/>
				</g>
				<g>
					<polygon class="st22" points="2053.22,1290.92 1830.59,1286.46 1892.9,1360.04 2051.18,1363.21 					"/>
				</g>
				<g>
					<path class="st25" d="M2051.19,1380.11c-0.11,0-0.23,0-0.35,0l-158.28-3.17c-4.85-0.1-9.42-2.27-12.55-5.97l-62.31-73.58
						c-4.29-5.07-5.22-12.18-2.37-18.18c2.85-6,8.89-9.82,15.6-9.63l222.63,4.45c9.33,0.19,16.74,7.9,16.55,17.23
						c-0.19,9.33-7.81,16.71-17.23,16.55l-185.22-3.7l33.2,39.2l150.66,3.02c9.33,0.19,16.74,7.9,16.55,17.23
						C2067.89,1372.76,2060.37,1380.1,2051.19,1380.11z"/>
				</g>
				<g>
					<polygon class="st22" points="2028.37,1254.72 1812.03,1201.96 1856.85,1287.33 2010.66,1324.84 					"/>
				</g>
				<g>
					<path class="st25" d="M2010.67,1341.74c-1.33,0-2.67-0.16-4.02-0.49l-153.81-37.51c-4.71-1.15-8.7-4.27-10.95-8.56
						l-44.82-85.37c-3.09-5.88-2.44-13.02,1.64-18.26c4.09-5.23,10.87-7.58,17.32-6.01l216.34,52.76
						c9.06,2.21,14.62,11.35,12.41,20.42c-2.21,9.07-11.36,14.62-20.42,12.41l-179.98-43.9l23.88,45.48l146.4,35.71
						c9.06,2.21,14.62,11.35,12.41,20.42C2025.19,1336.56,2018.28,1341.74,2010.67,1341.74z"/>
				</g>
				<g>
					<circle class="st22" cx="2038.02" cy="1306.88" r="70.07"/>
				</g>
				<g>
					<path class="st25" d="M2038.02,1393.84c-47.95,0-86.96-39.01-86.96-86.96c0-47.95,39.01-86.96,86.96-86.96
						c47.95,0,86.96,39.01,86.96,86.96C2124.98,1354.83,2085.97,1393.84,2038.02,1393.84z M2038.02,1253.71
						c-29.32,0-53.17,23.85-53.17,53.17s23.85,53.17,53.17,53.17s53.17-23.85,53.17-53.17S2067.34,1253.71,2038.02,1253.71z"/>
				</g>
			</g>
		</g>
		<g>
			<polygon class="st39" points="2336.8,3066.79 2336.8,3123.84 2245.71,3167.01 2154.69,3123.84 2154.69,3066.79 			"/>
		</g>
		<g>
			<polygon class="st39" points="1858.88,3066.79 1858.88,3123.84 1767.79,3167.01 1676.78,3123.84 1676.78,3066.79 			"/>
		</g>
		<g>
			<path class="st25" d="M2245.71,3186.18c-2.81,0-5.62-0.62-8.21-1.85l-91.02-43.17c-6.69-3.17-10.96-9.91-10.96-17.32v-57.05
				c0-10.59,8.58-19.17,19.17-19.17h182.11c10.59,0,19.17,8.58,19.17,19.17v57.05c0,7.41-4.27,14.15-10.96,17.32l-91.09,43.17
				C2251.32,3185.56,2248.51,3186.18,2245.71,3186.18z M2173.86,3111.72l71.85,34.08l71.92-34.08v-25.75h-143.77V3111.72z"/>
		</g>
		<g>
			<path class="st25" d="M1767.79,3186.18c-2.81,0-5.62-0.62-8.21-1.85l-91.02-43.17c-6.69-3.17-10.96-9.91-10.96-17.32v-57.05
				c0-10.59,8.58-19.17,19.17-19.17h182.11c10.59,0,19.17,8.58,19.17,19.17v57.05c0,7.41-4.27,14.15-10.96,17.32l-91.09,43.17
				C1773.4,3185.56,1770.6,3186.18,1767.79,3186.18z M1695.95,3111.72l71.85,34.08l71.92-34.08v-25.75h-143.77V3111.72z"/>
		</g>
		<g class="st2">
			<path class="st25" d="M2404.69,3081.04l12.99,127.11l123.64,114.71c52.11,48.3,133.74,44.62,181.19-8.33l270.83-310.7
				c-2.03-2.1-47.71-48.63-91.02,0.07c-44.3,49.74-241.1,283.86-276.87,265.81S2404.69,3081.04,2404.69,3081.04z"/>
		</g>
		<g>
			<path class="st25" d="M1526.74,2761.83l-3.41-6.29c-5.71-10.54-1.48-23.71,9.3-28.95l153.92-74.8
				c10.18-4.95,22.46-0.95,27.77,9.05l2.42,4.56c5.55,10.44,1.41,23.39-9.16,28.68l-152.93,76.53
				C1544.5,2775.7,1532.15,2771.81,1526.74,2761.83z"/>
		</g>
		<g>
			<path class="st25" d="M2503.33,2775.55l3.41-6.29c5.71-10.54,1.48-23.71-9.3-28.95l-153.92-74.8
				c-10.18-4.95-22.46-0.95-27.77,9.05l-2.42,4.56c-5.55,10.44-1.41,23.39,9.16,28.68l152.93,76.53
				C2485.57,2789.42,2497.92,2785.53,2503.33,2775.55z"/>
		</g>
		<g>
			<path class="st25" d="M871.41,3351.64c45.49-10.27,90.98-13,136.47-14.09c45.49-1.43,90.98-0.67,136.47,0.1
				c45.49,0.83,90.98,0.65,136.47,0.67h136.47h545.88h545.87h272.94l68.24-0.02c22.74,0.02,45.49-0.9,68.23-1.32
				c22.75-0.43,45.49,0.23,68.23,1.91c22.74,1.98,45.49,5.27,68.24,12.75c3.68,1.21,5.68,5.17,4.47,8.85
				c-0.72,2.18-2.45,3.79-4.47,4.47c-22.75,7.48-45.49,10.77-68.24,12.75c-22.75,1.68-45.49,2.34-68.23,1.91
				c-22.74-0.42-45.49-1.34-68.23-1.32l-68.24-0.02h-272.94h-545.87h-545.88h-136.47c-45.49,0.02-90.98-0.17-136.47,0.66
				c-45.49,0.78-90.98,1.54-136.47,0.11c-45.49-1.09-90.98-3.82-136.47-14.09c-3.68-0.83-5.99-4.48-5.15-8.16
				C866.85,3354.15,868.93,3352.21,871.41,3351.64z"/>
		</g>
		<g>
			<path class="st25" d="M2981.66,2996.51c-10.31,0-18.98-8.02-19.63-18.45c-0.68-10.85,7.56-20.2,18.41-20.88
				c72.08-4.52,128.41-41.23,147-95.8c16.6-48.71-1.36-100.71-49.26-142.68c-14.61-12.79-37-11.77-50.99,2.33l-63.58,64.07
				c-4.05,4.09-9.71,6.19-15.44,5.77c-5.74-0.43-11.01-3.35-14.41-7.99c-28.7-39.11-46.68-41.48-48.78-40.29
				c-4.77,2.69-13.3,32.26,13.15,96.01c4.16,10.04-0.6,21.56-10.64,25.73c-10.05,4.16-21.56-0.6-25.73-10.64
				c-29.7-71.6-28.21-127.32,3.9-145.4c11.95-6.73,42.64-15.48,85.56,33.42l48.03-48.4c28.6-28.83,74.67-30.67,104.88-4.21
				c59.61,52.22,82.26,121.38,60.58,184.99c-23.83,69.96-93.5,116.86-181.8,122.4C2982.49,2996.5,2982.08,2996.51,2981.66,2996.51z"
				/>
		</g>
		<g>
			<path class="st25" d="M3111.14,2728.55c-6.79,7.37-14.41,13.73-22.21,19.89c-7.78,6.17-16.07,11.74-24.35,17.32
				c-16.64,11.06-33.62,21.7-51.83,30.87c-0.9,0.46-2,0.09-2.46-0.81c-0.32-0.64-0.23-1.39,0.18-1.93
				c12.3-16.26,25.83-31.05,39.7-45.43c6.98-7.13,13.95-14.29,21.42-20.83c7.46-6.56,15.09-12.91,23.56-18.26
				c5.88-3.71,13.66-1.96,17.37,3.92C3115.64,2718.21,3114.91,2724.47,3111.14,2728.55z"/>
		</g>
		<g>
			<path class="st25" d="M3151.31,2788.7c-7.33,6.33-15.38,11.56-23.57,16.56c-8.18,5.02-16.8,9.38-25.4,13.75
				c-17.28,8.64-34.85,16.82-53.46,23.4c-0.95,0.34-2-0.16-2.34-1.12c-0.24-0.67-0.06-1.39,0.4-1.88
				c13.59-14.31,28.22-27.03,43.15-39.29c7.5-6.07,14.99-12.16,22.91-17.59c7.91-5.44,15.96-10.66,24.73-14.78
				c6.3-2.96,13.8-0.26,16.77,6.04C3156.95,2779.03,3155.49,2785.1,3151.31,2788.7z"/>
		</g>
		<g>
			<g>
				<path class="st40" d="M1642.45,2897.85h-522.7c-39.47,0-71.46,32-71.46,71.46v313.51c0,39.47,32,71.46,71.46,71.46h522.7
					c39.47,0,71.46-32,71.46-71.46v-313.51C1713.91,2929.85,1681.92,2897.85,1642.45,2897.85z"/>
			</g>
			<g class="st2">
				<path class="st25" d="M1713.91,3216.94v65.88c0,39.46-32.02,71.48-71.48,71.48h-522.7c-39.46,0-71.43-32.01-71.43-71.48v-65.88
					c0,39.46,31.96,71.48,71.43,71.48h522.7C1681.9,3288.42,1713.91,3256.4,1713.91,3216.94z"/>
			</g>
			<g class="st10">
				<path class="st6" d="M1713.91,2969.32v47.81c0-39.46-32.02-71.48-71.48-71.48h-522.7c-39.46,0-71.43,32.01-71.43,71.48v-47.81
					c0-39.46,31.96-71.48,71.43-71.48h522.7C1681.9,2897.84,1713.91,2929.86,1713.91,2969.32z"/>
			</g>
			<g>
				<path class="st25" d="M1642.45,3373.98h-522.7c-50.26,0-91.15-40.89-91.15-91.15v-313.51c0-50.26,40.89-91.15,91.15-91.15h522.7
					c50.26,0,91.15,40.89,91.15,91.15v313.51C1733.6,3333.09,1692.71,3373.98,1642.45,3373.98z M1119.75,2917.54
					c-28.55,0-51.78,23.23-51.78,51.77v313.51c0,28.55,23.23,51.78,51.78,51.78h522.7c28.55,0,51.77-23.23,51.77-51.78v-313.51
					c0-28.55-23.23-51.77-51.77-51.77H1119.75z"/>
			</g>
			<g>
				<path class="st25" d="M1535.63,2897.85h-63.4v-76.93c0-7.48-6.08-13.56-13.55-13.56h-155.15c-7.48,0-13.56,6.08-13.56,13.56
					v76.93h-63.4v-76.93c0-42.43,34.52-76.95,76.95-76.95h155.15c42.43,0,76.95,34.52,76.95,76.95V2897.85z"/>
			</g>
			<g>
				<path class="st25" d="M1639.86,3145.76h-517.52c-51.69,0-93.74-42.05-93.74-93.74v-57.69c0-10.87,8.81-19.69,19.69-19.69
					s19.69,8.81,19.69,19.69v57.69c0,29.98,24.39,54.37,54.37,54.37h517.52c29.98,0,54.37-24.39,54.37-54.37v-57.69
					c0-10.87,8.81-19.69,19.69-19.69s19.69,8.81,19.69,19.69v57.69C1733.6,3103.71,1691.55,3145.76,1639.86,3145.76z"/>
			</g>
			<g class="st2">
				<g>
					<path class="st25" d="M1713.91,3052v60.91c0,40.89-33.18,74.07-74.07,74.07h-517.53c-40.89,0-74.02-33.18-74.02-74.07V3052
						c0,40.89,33.12,74.07,74.02,74.07h517.53C1680.74,3126.07,1713.91,3092.89,1713.91,3052z"/>
				</g>
			</g>
			<g>
				<path class="st41" d="M1392.47,3173.88h-22.75c-11.23,0-20.32-9.1-20.32-20.32v-64.93c0-11.23,9.1-20.32,20.32-20.32h22.75
					c11.23,0,20.32,9.1,20.32,20.32v64.93C1412.8,3164.78,1403.7,3173.88,1392.47,3173.88z"/>
			</g>
			<g>
				<path class="st25" d="M1392.47,3188.87h-22.74c-19.47,0-35.31-15.84-35.31-35.31v-64.93c0-19.47,15.84-35.31,35.31-35.31h22.74
					c19.47,0,35.31,15.84,35.31,35.31v64.93C1427.78,3173.03,1411.94,3188.87,1392.47,3188.87z M1369.73,3083.28
					c-2.95,0-5.34,2.4-5.34,5.34v64.93c0,2.95,2.4,5.34,5.34,5.34h22.74c2.95,0,5.34-2.4,5.34-5.34v-64.93
					c0-2.95-2.4-5.34-5.34-5.34H1369.73z"/>
			</g>
		</g>
		<g>
			<path class="st25" d="M3158.45,2859.94c-6.31,4.45-13.19,7.72-20.18,10.75c-6.98,3.04-14.3,5.37-21.61,7.73
				c-14.68,4.58-29.59,8.67-45.33,11.03c-1.02,0.15-1.97-0.55-2.12-1.57c-0.09-0.63,0.15-1.25,0.59-1.66
				c11.78-10.69,24.37-19.67,37.2-28.15c6.44-4.18,12.88-8.38,19.65-11.86c6.77-3.5,13.65-6.76,21.09-8.84
				c6.74-1.88,13.73,2.05,15.61,8.79C3164.84,2851.47,3162.7,2856.93,3158.45,2859.94z"/>
		</g>
	</g>
</g>
</svg>
