<?xml version="1.0" encoding="UTF-8" standalone="no"?>
<!-- Created with Inkscape (http://www.inkscape.org/) -->

<svg
   version="1.1"
   id="svg2"
   width="1245.3733"
   height="759.30664"
   viewBox="0 0 1245.3733 759.30664"
   sodipodi:docname="Suitcases.eps"
   xmlns:inkscape="http://www.inkscape.org/namespaces/inkscape"
   xmlns:sodipodi="http://sodipodi.sourceforge.net/DTD/sodipodi-0.dtd"
   xmlns="http://www.w3.org/2000/svg"
   xmlns:svg="http://www.w3.org/2000/svg">
  <defs
     id="defs6" />
  <sodipodi:namedview
     id="namedview4"
     pagecolor="#ffffff"
     bordercolor="#000000"
     borderopacity="0.25"
     inkscape:showpageshadow="2"
     inkscape:pageopacity="0.0"
     inkscape:pagecheckerboard="0"
     inkscape:deskcolor="#d1d1d1" />
  <g
     id="g8"
     inkscape:groupmode="layer"
     inkscape:label="ink_ext_XXXXXX"
     transform="matrix(1.3333333,0,0,-1.3333333,0,759.30667)">
    <g
       id="g10"
       transform="scale(0.1)">
      <path
         d="M 1643.25,307.07 C 757.746,419.52 164.215,750.871 366.219,1619.49 657.977,2874.05 1754.87,2495.38 1503.44,3477.7 c -188.52,736.56 -20.53,1534.07 679.08,1617.69 1085.7,129.77 1083.26,-1350.76 1980.01,-771.3 782.25,505.49 1212.15,1114.82 2154.69,1007.54 1000.5,-113.88 875.91,-1006.04 1879.13,-1226.46 1003.21,-220.42 1128.21,-3225.881 0,-3685.01 C 7068.13,-38.9609 1988.37,288.84 1643.25,307.07"
         style="fill:#fff8eb;fill-opacity:1;fill-rule:nonzero;stroke:none"
         id="path12" />
      <path
         d="m 5818.87,4977.19 c 0,-34.6 -28.04,-62.65 -62.64,-62.65 -34.6,0 -62.65,28.05 -62.65,62.65 0,34.6 28.05,62.65 62.65,62.65 34.6,0 62.64,-28.05 62.64,-62.65"
         style="fill:#fede9e;fill-opacity:1;fill-rule:nonzero;stroke:none"
         id="path14" />
      <path
         d="m 5431.32,4780.84 c 0,-22.58 -18.31,-40.88 -40.89,-40.88 -22.58,0 -40.88,18.3 -40.88,40.88 0,22.57 18.3,40.88 40.88,40.88 22.58,0 40.89,-18.31 40.89,-40.88"
         style="fill:#fede9e;fill-opacity:1;fill-rule:nonzero;stroke:none"
         id="path16" />
      <path
         d="m 9206.54,2882.32 c -3.8,-47.42 -11.21,-94.6 -22.33,-141.47 v -0.07 c -53.59,-28.9 -143.12,-81.89 -12.34,-46.46 -21.85,-74.85 -53.26,-148.26 -93.38,-219.04 -6.64,-11.81 -14.02,-23.41 -21.86,-34.86 -184.34,-111.06 -508.28,-313.52 -92.93,-122.39 -12.56,-17.01 -24.55,-34.16 -35.07,-51.6 -50.02,-83.47 -65.71,-188.78 -96.45,-277.21 -31.62,-90.71 -45.18,-213.19 -114.84,-291.44 -60.44,-67.94 -169.2,-103.02 -276.84,-114.68 -194.94,-21 -422.52,68.51 -503.56,199.27 -3.19,5.31 -6.2,10.63 -8.84,16.05 -47.03,96.67 -0.92,220.52 52.41,309.04 34.76,57.49 80.26,111.84 134.54,160.83 51.45,46.34 118.19,80.5 157.54,132.85 54.35,72.35 73.53,149.17 76.2,227.78 0,0 214.21,-56.64 -0.42,53.42 v 0.06 c -1.51,31.26 -4.87,62.68 -8.97,94.17 -12.65,96.47 -48.44,217.92 28.11,305.23 9.88,11.31 19.86,22.41 30.03,33.44 53,-273.71 162.01,-739.53 147.85,138.71 119.65,94.1 273.32,172.33 508.24,229.54 30.85,7.46 103.15,-228.82 132.08,-332.83 -27.62,-91.28 -79.64,-227.87 -171.02,-361.01 -104.51,-152.49 58.61,-68.24 191.85,92.67"
         style="fill:#fede9e;fill-opacity:1;fill-rule:nonzero;stroke:none"
         id="path18" />
      <path
         d="m 7811.68,1159.54 c 0,0 773.77,373.95 1085.33,1997.85 0,0 -259.01,-1343.74 -1148.68,-1958.6 0,0 -32.85,-20.91 -1.54,-40.51 31.32,-19.6 64.89,1.26 64.89,1.26"
         style="fill:#ffffff;fill-opacity:1;fill-rule:nonzero;stroke:none"
         id="path20" />
      <path
         d="m 8562.76,1364.47 c -0.66,-9.97 -0.74,-20.16 -0.15,-30.57 23.59,79.06 72.7,147.79 123.95,212.44 58.94,74.36 124.38,147.12 158.67,236.91 8.2,21.49 14.42,43.78 18.07,65.07 3.69,21.27 4.71,41.51 3.81,58.69 -0.69,17.22 -3.91,31.28 -6.42,40.88 -3.07,9.53 -5.47,14.7 -6.79,14.39 -1.33,-0.31 -1.54,-6.04 -1.07,-15.62 -0.08,-9.66 0.57,-23.24 -1.09,-39.4 -6.56,-63.84 -37.83,-121.95 -70.96,-176.5 -41.8,-68.82 -99.56,-123.45 -144.89,-188.75 -38.25,-54.68 -68.72,-111.61 -73.13,-177.54"
         style="fill:#fede9e;fill-opacity:1;fill-rule:nonzero;stroke:none"
         id="path22" />
      <path
         d="m 8489.7,1264.19 c 1.54,-3.72 3.26,-6.9 4.93,-9.56 1.61,-2.69 3.07,-4.91 4.38,-6.63 2.6,-3.47 4.56,-4.99 5.83,-4.49 5.86,2.31 -5.45,34.92 -4.32,88.25 0.15,15.3 1.59,32.3 4.15,50.57 1.12,-14.28 3.01,-26.36 5.07,-35.73 3.59,-16.02 7.51,-24.43 10.14,-24.07 2.77,0.36 4.02,9.4 5.2,25.19 1.23,15.8 2.48,38.41 6.44,65.82 3.99,27.46 10.71,59.38 22.54,93.94 11.55,34.76 27.72,72.6 41.99,114.78 0,0 1.42,4.86 3.91,13.34 29.14,99.6 16.39,210.23 -31.27,302.05 12.95,-71.72 17.57,-144.94 13.73,-217.71 5.98,42.14 -1.11,86.03 -20.06,124.14 9.42,-75.49 -9.8,-151.49 -32.84,-223.99 -29.56,-93.05 -68.7,-190.03 -56.92,-289.65 3.3,-28.89 10.09,-51.65 17.1,-66.25"
         style="fill:#fede9e;fill-opacity:1;fill-rule:nonzero;stroke:none"
         id="path24" />
      <path
         d="m 9259.2,1466.22 c -31.12,-6.67 -62.93,-9.8 -94.79,-10.13 -11.82,-0.12 -23.79,-0.4 -35.89,-0.22 -9.4,0.08 -18.81,0.21 -28.22,0.23 61.39,-0.12 122.35,12.05 183.5,16.19 -8.15,-2.28 -16.35,-4.3 -24.6,-6.07 z m 78.67,25.13 c 0.04,0.03 0.08,0.07 0.13,0.1 -20.19,1.93 -42.06,-3.77 -62.36,-4.71 -18.54,-1.03 -40.25,-1.12 -63.63,-0.68 -23.38,0.41 -48.46,1.43 -73.86,1.61 -50.95,0.44 -102.09,-3.84 -140.08,-9.58 -19.07,-2.5 -34.77,-5.78 -45.81,-7.87 -5.5,-1.08 -9.86,-1.85 -12.79,-2.52 -2.93,-0.7 -4.49,-1.07 -4.49,-1.07 -55.12,-13.58 -106.2,-32.45 -150.42,-54.18 -37.9,-18.7 -74.19,-40.84 -107.35,-67.09 -14.9,-11.8 -90.54,-68.23 -84.04,-90.15 -2.39,-2.56 -3.44,-4.38 -2.9,-5.32 2.7,-4.75 43.01,12.49 105.99,44.2 31.49,15.85 68.66,35.32 109.61,57.45 48,25.95 94.21,46.84 147.49,58.6 57.16,12.62 116.01,13.4 174.15,17.78 71.3,5.37 153.34,17.11 210.36,63.43"
         style="fill:#fede9e;fill-opacity:1;fill-rule:nonzero;stroke:none"
         id="path26" />
      <path
         d="m 9185.6,1815.8 c -11.28,-12.78 -25.52,-26.66 -41.21,-40.95 -15.8,-14.2 -33.57,-28.3 -51.78,-41.83 -36.61,-26.86 -75.53,-50.78 -105.08,-68.44 -29.72,-17.58 -49.52,-29.3 -49.52,-29.3 -43.33,-26.91 -84.66,-53.5 -120.65,-80.51 -35.97,-27.01 -66.59,-54.27 -89.48,-79.94 -22.97,-25.58 -38.79,-48.64 -47.69,-65.66 -2.39,-4.14 -4.22,-8 -5.65,-11.44 -1.47,-3.41 -2.61,-6.34 -3.42,-8.77 -1.62,-4.86 -1.88,-7.72 -0.72,-8.44 5.3,-3.23 28.49,31.07 77.2,74.53 24.18,21.89 55.06,45.61 90.94,70.12 35.92,24.5 76.98,49.65 120.33,76.58 0,0 19.37,12.57 48.26,32.16 28.84,19.58 67.19,46.57 102.91,77.27 17.75,15.47 34.93,31.64 49.88,47.96 14.84,16.41 27.94,32.4 37.75,47.13 20,29.21 28.77,51.14 26.66,52.3 -2.61,1.52 -15.79,-17.51 -38.73,-42.77"
         style="fill:#fede9e;fill-opacity:1;fill-rule:nonzero;stroke:none"
         id="path28" />
      <path
         d="m 8262.87,1861.97 c 7.95,-13.44 16.58,-27.54 17.87,-30.16 14.04,-28.49 26.3,-57.89 36.68,-87.92 27.67,-80.01 33.35,-160.61 46.6,-243.32 5.68,-37.15 17.55,-69.54 30.45,-94.56 12.93,-25.15 26.87,-43.33 37.58,-54.72 10.8,-11.39 18.29,-16.17 20.33,-14.52 2.2,1.77 -1.18,9.77 -7.68,23.25 -6.43,13.5 -15.89,32.66 -24.62,57.17 -7.43,20.82 -14.25,45.4 -18.16,73.12 10.04,-37.67 20.31,-59.76 25.22,-58.53 5.38,1.34 3.91,27.85 0.47,70.31 -8.73,108 -28.02,230.89 -103.8,314.25 -7.53,8.07 -14.99,15.38 -22.21,21.47 -4.91,7.45 -9.91,14.31 -14.92,20.24 -18.74,22.61 -36.35,31.95 -37.74,29.96 -0.66,-0.95 6.32,-13.19 13.93,-26.04"
         style="fill:#fede9e;fill-opacity:1;fill-rule:nonzero;stroke:none"
         id="path30" />
      <path
         d="m 8858.91,1047.42 c -11.88,10.39 -22.75,21.69 -32.68,33.03 -6.79,7.71 -13.18,15.25 -19.12,22.29 4.5,-4.36 9.56,-9.33 15.05,-14.86 11.23,-11.13 24.33,-24.43 39.2,-38.28 9.86,-9.17 20.64,-18.55 32.1,-27.46 -11.81,6.95 -23.55,15.61 -34.55,25.28 z m 164.24,-77.01 c -36.07,14.442 -68.86,38.28 -97.74,64.73 -41.73,38.23 -77.54,82.6 -119.88,120.15 -51.34,45.54 -107.76,74.06 -176.86,71.01 -49.35,-2.07 -98.76,-16.75 -140.46,-43.32 25.67,34.87 51.36,69.74 77.04,104.61 0.81,-3.18 1.61,-6.36 2.42,-9.54 -4.06,16 30.54,62.54 39.07,76.09 15.84,25.16 33.95,48.89 54.04,70.83 39.74,43.39 88.54,77.91 132.76,116.51 88.6,77.34 189.95,129.41 286.4,195.25 80.4,54.88 155.07,130.44 171.84,226.31 -34.56,-82.21 -106.68,-142.57 -181.95,-190.39 -75.28,-47.82 -156.67,-86.78 -225.45,-143.56 15.2,12.54 24.06,54.96 29.88,73.33 8.35,26.45 14.5,53.61 18.35,81.09 13.09,93.15 1.98,189.36 -46.41,271.32 9.34,-15.83 12.45,-42.91 16.08,-61.46 4.4,-22.5 7.27,-45.29 8.62,-68.17 2.69,-45.6 -0.68,-91.55 -9.96,-136.29 -19,-91.49 -62.46,-173.69 -125.99,-241.9 -19,-20.4 -38.85,-39.99 -57.92,-60.31 -45.51,-48.47 -99.11,-104.79 -109.9,-173.09 -1.07,-6.53 -1.58,-12.16 -1.77,-17 -0.36,-9.23 -42.19,-44.01 -49.49,-52.27 -21.77,-24.63 -43.53,-49.25 -65.3,-73.88 -42.97,77.86 -89.6,153.73 -139.64,227.25 8.82,-7.13 17.65,-14.26 26.48,-21.38 -23.58,129.79 -117.4,244.59 -239.89,293.57 41.06,-34.22 74.35,-76.98 102.4,-122.48 77.63,-125.89 123.99,-289.24 241.21,-386.08 -1.41,1.24 -219.57,-287.738 -238.07,-314.481 C 8127.45,737.57 8058.32,623.41 8002.6,502.598 c -11.14,-24.157 -21.74,-48.559 -31.74,-73.219 101.21,150.609 202.43,301.211 303.65,451.82 13.24,-33.14 26.48,-66.281 39.73,-99.418 25.18,39.739 14.95,97.938 -22.29,126.699 -6.2,5.872 68,100.97 73.43,108.43 20.69,28.48 41.58,56.81 62.54,85.09 18.81,25.38 33.93,51.54 61.54,67.43 61.73,40.97 143.79,12.08 202.75,-22.37 32.22,-18.83 61.62,-42.02 89.63,-66.57 14.07,-12.33 27.19,-27.72 42.37,-38.56 11.05,-7.9 24.53,-13.02 36.32,-20.12 32.69,-19.65 67.45,-36.119 103.89,-47.529 36.5,-11.41 71.43,-12.422 108.76,-16.972 -17.29,2.113 -33.98,6.671 -50.03,13.101"
         style="fill:#fede9e;fill-opacity:1;fill-rule:nonzero;stroke:none"
         id="path32" />
      <path
         d="m 9218.56,1112.21 c -10.9,23.01 -43.05,50.87 -56.58,62.87 -27.27,24.17 -58.15,44.05 -90.11,61.4 51.26,-11.34 101.39,-27.72 149.46,-48.84 -110.58,116.51 -309.48,111.99 -454.37,84.12 -49.11,-9.44 -78.75,-18.67 -78.08,-23.99 0.71,-5.5 31.86,-6.03 81.3,-3.75 153.12,7.06 310.24,-27.98 427.75,-131.32 1.91,-1.57 3.74,-3.08 5.48,-4.52 1.66,-1.51 3.24,-2.95 4.78,-4.34 4.83,-4.28 7.82,-7.87 13.92,-7.85 0.61,4.87 -0.78,10.39 -3.55,16.22"
         style="fill:#fede9e;fill-opacity:1;fill-rule:nonzero;stroke:none"
         id="path34" />
      <path
         d="m 8911.92,727.781 c -16.21,7.899 -27.53,17.758 -37.31,34.629 -17.15,29.512 -33.14,58.891 -51.92,87.461 -21.4,32.848 -44.04,64.859 -61.61,88.559 -17.61,23.781 -30.72,39.121 -30.72,39.121 -60.58,68.389 -143.59,107.439 -232.86,122.129 -11.49,1.87 -21.6,2.67 -29.9,2.56 -16.66,-0.25 -25.52,-3.63 -25.41,-6.22 0.1,-2.84 8.76,-4.75 23.4,-9.02 50.24,-14.67 103.32,-35.37 148.73,-61.41 30.03,-17.2 58.95,-43.211 86.56,-74.34 0,0 13.01,-13.551 31.72,-35.492 18.76,-21.988 43.4,-51.84 67.41,-82.199 18.69,-23.43 36.85,-47.278 52.38,-67.59 -0.62,0.492 -1.24,0.972 -1.87,1.461 -6.86,5.871 -13.9,11.672 -20.54,18.019 -13.46,12.449 -26.27,25.66 -37.79,38.621 -70.33,77.91 -127.12,165.969 -221.85,217.88 -27.9,15.29 -61.24,27 -91.08,15.99 86.17,-30.18 150.26,-101.651 210.09,-170.62 59.84,-68.961 123.16,-140.871 208.79,-172.511 19.17,-4.18 38.03,-5 56.26,-7.207 -9.72,1.187 -26.65,13.218 -36.45,17.429 -2.08,0.887 -4.09,1.809 -6.03,2.75"
         style="fill:#fede9e;fill-opacity:1;fill-rule:nonzero;stroke:none"
         id="path36" />
      <path
         d="m 8741.61,631.391 c -52.89,156.679 -145.23,299.05 -289.77,384.789 -11.49,6.83 -23.16,13.34 -35.13,19.3 -16.86,8.27 -26.95,11.59 -28.44,9.34 -5.66,-8.46 60.12,-58.289 66.31,-63.41 33.96,-28.109 67.01,-54.332 96.61,-87.351 56.28,-62.77 100.39,-135.489 137.6,-210.868 19.03,-38.562 36.31,-77.972 52.57,-117.761 5.85,-14.321 35.81,-110.192 46.68,-109.2 0.75,17.188 -6.25,36.661 -10.44,53.29 -8.45,33.539 -21.04,77.968 -35.99,121.871"
         style="fill:#fede9e;fill-opacity:1;fill-rule:nonzero;stroke:none"
         id="path38" />
      <path
         d="m 8660.43,710.371 c -16.4,22.141 -34.28,42.777 -47.66,57.988 -47.06,53.039 -98.92,102.2 -134.68,164.032 -5.88,10.539 -10.07,18.39 -13.53,22.199 l -0.19,-0.059 c 0.02,0.149 0.05,0.27 0.07,0.43 l -6.87,-2.102 c -0.97,-5.039 -0.82,-14.519 1.76,-27.41 2.76,-12.789 8,-28.949 16.72,-46.578 8.66,-17.652 20.72,-36.703 35.54,-55.691 52.49,-67.27 123.5,-117.52 174.38,-185.66 11.83,-15.84 19.13,-27.239 21.77,-26.129 2.38,0.968 -0.19,14.668 -8.44,33.789 -8.06,19.179 -22.46,43.07 -38.87,65.191"
         style="fill:#fede9e;fill-opacity:1;fill-rule:nonzero;stroke:none"
         id="path40" />
      <path
         d="m 8557.04,540.352 c -0.89,15.878 -3.03,32.726 -6.07,49.41 -6,33.418 -16.03,65.847 -24.56,89.648 -8.56,23.762 -15.1,39.168 -15.1,39.168 -25.62,56.57 -56.48,110.652 -85.87,165.293 -10.96,20.387 -17.54,36.887 -20.64,49.027 -3.21,12.051 -3.96,19.571 -6.8,20.071 -2.48,0.5 -7.13,-6.571 -8.53,-21.211 -1.56,-14.547 1.97,-35.809 10.34,-58.996 4.8,-13.321 11.19,-26.934 15.27,-40.032 -14.48,24.43 -26.03,50.52 -35.21,77.36 -2.19,6.39 -13.09,58.519 -21.2,58.16 -2.68,-0.121 -5.12,-7.082 -6.2,-19.871 -1.01,-12.758 -0.57,-31.391 3.64,-54.039 4.02,-22.61 12.55,-49.27 25.59,-76.551 33.54,-70.129 84.41,-130.187 118.98,-200 25.11,-50.711 43.39,-105.598 46.22,-162.121 -0.62,12.062 8.54,28.23 9.71,41.312 0.98,12.641 1.31,27.489 0.43,43.372"
         style="fill:#fede9e;fill-opacity:1;fill-rule:nonzero;stroke:none"
         id="path42" />
      <path
         d="m 8159.77,1389.67 c 16.49,-17.82 33.28,-35.39 45.72,-48.49 12.36,-13.11 20.6,-21.84 20.6,-21.84 38.1,-36.62 70.39,-70.52 92.43,-96.62 1.42,-1.64 2.8,-3.25 4.13,-4.82 -20.49,21.66 -47.14,44.47 -76.3,68.75 -29.42,24.76 -61.79,51.15 -89.01,83.19 0,0 -0.81,0.88 -2.32,2.52 -1.55,1.62 -3.78,4.02 -6.26,7.31 -2.58,3.24 -5.72,7.15 -9.31,11.66 -3.48,4.57 -6.82,10.05 -10.84,15.86 -7.87,11.66 -15.26,26.55 -22.37,43.32 -0.21,0.48 -0.4,1 -0.61,1.49 10.91,-14.71 32.29,-38.7 54.14,-62.33 z m -82.1,50.2 c 0.94,-2.29 1.9,-4.58 2.86,-6.86 14.33,-33.77 31.13,-74.46 55.32,-102.5 23.6,-27.36 58.96,-50.42 87.87,-72.37 31.09,-23.28 58.83,-43.32 80.76,-61.57 24.32,-19.99 46.54,-42.39 70.03,-63.35 -3.38,21.1 -13.29,41.11 -28.02,56.6 3.38,-5.39 10.39,-8.21 16.57,-6.67 4.72,1.18 -37.75,82.15 -42.29,88.87 -18.98,28.01 -42.92,52.22 -67.14,75.65 0,0 -9.18,8.19 -23.17,19.99 -14,11.83 -32.71,27.22 -51.63,42.45 -34.94,28.07 -70.6,55.22 -78.84,56.14 -4.72,12.43 -9.25,25.54 -13.72,38.87 -17.16,51.1 -36.2,101.41 -55.33,151.88 5.62,-14.83 2.32,-39.27 4.32,-55.4 2.38,-19.31 5.68,-38.51 9.85,-57.51 7.83,-35.6 18.74,-70.51 32.56,-104.22"
         style="fill:#fede9e;fill-opacity:1;fill-rule:nonzero;stroke:none"
         id="path44" />
      <path
         d="m 7898.51,1274.93 c 77.57,-40.67 154.84,-81.88 232.91,-121.53 9.6,-4.88 119.98,-67.95 128.1,-55.45 5.07,7.79 -68.03,63.87 -174.95,122.69 0.75,-0.22 1.17,-0.36 1.17,-0.36 59.45,-16.16 109.56,-42.24 144.51,-63.52 34.95,-21.42 55.93,-37.18 60.02,-33.13 3.7,3.53 -10.59,26.8 -43.51,55.65 -32.72,28.58 -85.47,61.42 -150.58,79.11 0,0 -3.71,0.86 -10.24,2.2 -6.48,1.48 -15.88,3.05 -27.1,4.81 -25.69,4.01 -50.33,3.78 -73.95,14.79 -27,12.59 -54.45,24.52 -83.25,32.43 -27.27,7.5 -47.09,11.02 -70.06,28.84 -18.98,14.73 -27.5,29.31 -30.25,27.94 -1.15,-0.55 -0.6,-4.99 2.28,-12.16 2.82,-7.19 8.59,-16.79 17.32,-26.87 8.71,-10.07 20.49,-20.35 34.01,-29.6 13.48,-9.36 28.56,-17.89 43.57,-25.84"
         style="fill:#fede9e;fill-opacity:1;fill-rule:nonzero;stroke:none"
         id="path46" />
      <path
         d="m 8268.15,973.258 c -8.85,0.98 -23.96,10.793 -31.88,13.363 -13.48,4.359 -27.29,7.699 -41.26,10.008 -98.56,16.241 -202.58,2.961 -297.34,-26.949 -29.9,-9.43 -59.19,-20.41 -80.41,-30.371 -21.25,-9.899 -34.64,-18.059 -33.68,-20.489 1.05,-2.64 16.28,0.66 38.69,5.95 22.42,5.378 52.24,12.05 82.1,17.8 119.72,21.348 243.92,22.891 365.73,30.621 -0.61,-0.043 -1.25,-0.011 -1.95,0.067"
         style="fill:#fede9e;fill-opacity:1;fill-rule:nonzero;stroke:none"
         id="path48" />
      <path
         d="m 8105.27,1078.82 c -1.31,-10.83 102.55,-32.32 102.55,-32.32 57.94,-7.02 105.98,-3.93 107.28,6.9 1.32,10.83 -44.58,25.3 -102.53,32.32 0,0 -105.98,3.93 -107.3,-6.9"
         style="fill:#fede9e;fill-opacity:1;fill-rule:nonzero;stroke:none"
         id="path50" />
      <path
         d="m 8839.45,3640.77 c -4.48,-14.77 -20.08,-23.1 -34.84,-18.62 -14.77,4.48 -23.1,20.08 -18.63,34.84 4.49,14.77 20.09,23.1 34.86,18.62 14.75,-4.48 23.09,-20.08 18.61,-34.84"
         style="fill:#fede9e;fill-opacity:1;fill-rule:nonzero;stroke:none"
         id="path52" />
      <path
         d="m 8944.18,2005.22 c -4.36,-14.35 -19.53,-22.46 -33.88,-18.1 -14.36,4.35 -22.46,19.52 -18.11,33.87 4.36,14.36 19.53,22.45 33.88,18.1 14.36,-4.36 22.46,-19.52 18.11,-33.87"
         style="fill:#fede9e;fill-opacity:1;fill-rule:nonzero;stroke:none"
         id="path54" />
      <path
         d="m 9339.1,1558.44 c -4.52,-14.91 -20.28,-23.34 -35.21,-18.8 -14.91,4.53 -23.34,20.29 -18.8,35.2 4.52,14.92 20.29,23.34 35.2,18.82 14.92,-4.53 23.34,-20.29 18.81,-35.22"
         style="fill:#fede9e;fill-opacity:1;fill-rule:nonzero;stroke:none"
         id="path56" />
      <path
         d="m 9234.42,3819.49 c -8.39,-27.64 -37.61,-43.25 -65.25,-34.86 -27.65,8.39 -43.25,37.6 -34.87,65.25 8.39,27.65 37.61,43.26 65.26,34.87 27.64,-8.4 43.25,-37.61 34.86,-65.26"
         style="fill:#fede9e;fill-opacity:1;fill-rule:nonzero;stroke:none"
         id="path58" />
      <path
         d="m 1285.27,1252.35 c -6.81,-23.29 -20.68,-43.88 -35.99,-62.71 -18.23,-22.41 -38.74,-42.8 -59.24,-63.19 -30.64,-30.4 -66.43,-62.88 -109.57,-61.77 -15.44,0.48 -32.39,6.96 -38.06,21.24 -2.71,6.77 -2.5,14.33 -1.52,21.53 6.09,45.03 39.34,81.32 73.83,110.87 22.85,19.63 49.38,37.44 67.91,61.54 10.58,13.67 15.56,33.59 28.72,45.19 53.62,47.28 88.8,-22.39 73.92,-72.7 z m 42.84,-221.84 c -6.35,-18.08 -22.12,-31.069 -38.48,-42.26 -39,-26.84 -88.39,-47.789 -140.82,-36.98 -20.44,4.238 -42.28,14.949 -50.74,32.808 -10.84,22.642 5.55,46.302 27.81,56.112 23.53,10.36 51.22,8.17 76.3,14.57 22.31,5.73 32.46,17.99 51.11,27.02 36.97,17.91 92.2,-1.68 74.82,-51.27 z m -390.227,133.14 c 0.492,-3.67 0.652,-7.58 0.582,-11.47 2.305,-23.51 -11.516,-40.14 -25.262,-56.74 -20.348,-21.98 -67.66,-13.5 -58.09,23.78 8.778,23.46 11.254,47.35 23.821,62.43 2.093,3.21 4.293,5.98 6.675,8.33 9.493,9.47 21.801,12.04 37.5,0.78 8.391,-6.27 13.207,-16.03 14.774,-27.11 z M 785.992,976.43 c 1.035,-7.879 0.66,-16.328 -3.347,-23.172 -8.43,-14.246 -29.879,-15.817 -43.883,-7.11 -14.067,8.633 -22.071,24.293 -28.02,39.731 -4.047,18.841 6.918,19.621 18.086,27.241 11.145,7.78 27.082,6.17 38.07,-1.87 10.961,-7.98 17.239,-21.25 19.094,-34.82 z M 770.578,611.699 c -9.887,-32.41 -27.855,-62.711 -54.008,-84.07 -4.199,-3.481 -8.683,-6.719 -13.312,-9.688 -24.012,-15.113 -52.91,-22.742 -81.039,-18.711 -14.492,2.02 -29.317,7.68 -38.219,19.321 -63.656,83.207 143.465,257.961 188.625,128.219 4.012,-11.262 1.426,-23.719 -2.047,-35.071 z m -246.09,444.811 c -26.465,-9.05 -58.605,-8.62 -85.476,-1.13 -12.438,3.45 -24.438,9.94 -32.317,20.2 -7.316,9.54 -10.5,21.87 -10.925,33.99 -0.676,17.02 0.796,41.9 13.39,54.91 7.082,7.27 17.664,10.26 27.793,10.29 13.094,-0.04 25.184,-5.27 38.195,-5.32 11.391,-0.06 22.672,1.63 33.911,2.86 20.871,2.36 46.168,5.33 63.32,-9.75 12.961,-11.45 15.152,-31.59 10.426,-48.35 -7.774,-27.33 -31.422,-48.47 -58.317,-57.7 z m -262.656,500.74 c -10.93,-7.03 -25.031,-6.3 -38.004,-5.15 -33.562,2.8 -67.707,5.76 -98.644,19.24 -18.829,8.19 -36.7035,21.09 -45.4106,39.67 -15.2343,32.26 6.2852,64.89 40.7226,67.49 35.406,2.76 68.32,-15.76 101.285,-25.43 19.848,-14.36 44.262,-26.47 52.703,-51.37 5.395,-15.75 1.383,-35.51 -12.652,-44.45 z m 139.582,293.87 c 32.5,-21.93 40.691,-66.8 36.16,-105.72 -1.797,-15.76 -5.39,-31.79 -14.152,-44.95 -8.82,-13.27 -23.676,-23.32 -39.492,-22.86 -26.407,0.72 -43.649,27.78 -52.606,52.57 -15.207,42.48 -11.386,176.13 70.09,120.96 z m 159.531,-390.4 c -2.765,25.12 -1.797,30.76 6.254,54.67 5.278,20.93 29.571,32.94 50.879,29.91 21.621,-3.03 40.524,-18.93 48.848,-39.15 8.312,-20.14 6.543,-43.78 -3.059,-63.5 -10.691,-21.9 -33.961,-39.78 -58.133,-36.13 -24.968,3.77 -42.046,29.17 -44.789,54.2 z M 314.383,998.289 c -16.656,-9.949 -37.102,-11.211 -56.438,-9.961 -20.16,1.442 -40.218,5.383 -59.523,11.672 -24.219,8.05 -50.418,24.68 -51.262,50.18 -0.445,15.75 9.742,30.42 23.149,38.74 13.336,8.3 29.464,11.09 45.156,11.83 33.547,1.45 33.027,-3.16 33.027,-3.16 16.551,-4.47 32.887,-10 48.649,-16.67 16.363,-6.92 33.722,-16.69 39.156,-33.58 6.098,-18.35 -5.332,-39.12 -21.914,-49.051 z m 1130.467,61.501 c -16.21,44.72 -49.85,82.09 -62.03,128.09 -12.34,47.04 -0.99,98.83 -18.45,144.26 -16.59,43.07 -55.93,72.58 -93.36,99.61 -48.03,34.77 -96.05,69.48 -144.14,104.17 9.53,-103.75 13.02,-223.97 -64.38,-293.75 -15.86,-14.23 -37.54,-25.85 -57.84,-19.26 -21.638,6.96 -32.127,32.01 -34.095,54.75 -9.469,111.59 115.725,197.37 116.295,309.34 0.33,60.68 -37.86,116.39 -86.63,152.62 -48.693,36.24 -107.204,56.28 -164.736,75.78 49.969,-97.79 61.246,-214.65 30.704,-320.11 -7.239,-25.03 -26.43,-54.78 -51.418,-47.37 -15.821,4.65 -23.442,22.24 -27.243,38.13 -16.601,71.56 5.379,145.55 16.539,218.19 15.207,98.37 -2.753,208.92 -111.109,241.25 -34.691,10.42 -85.348,20.26 -84.238,-23.12 0.543,-20.69 29.043,-58.91 37.074,-79.2 9.613,-24.63 17.73,-49.77 24.375,-75.26 8.746,-33.59 11.887,-76.11 -16.34,-96.25 -35.699,-25.42 -86.168,12.1 -98.113,54.2 -11.817,42.21 -2.781,87.88 -13.152,130.51 -15.754,64.49 -80.407,113.39 -146.77,110.96 -50.859,-1.88 -97.016,-29.89 -146.852,-40.58 -48.949,-10.49 -101.402,-3.17 -146.007,19.59 -10.9184,5.5 -21.3676,11.98 -31.1918,19.38 2.9375,-7.42 5.2773,-14.91 7.1719,-22.51 18.1797,-72.34 -7.4414,-150.84 -27.6133,-224.32 -22.1953,-81.17 -34.6289,-177.25 19.8867,-241.35 34.7575,-40.75 88.6255,-58.18 136.8825,-81.29 52.528,-25.11 100.957,-58.64 142.891,-98.98 10.18,-9.86 20.457,-20.79 23.555,-34.68 8.343,-36.77 -36.149,-62.98 -73.465,-68.44 -79.465,-11.68 -163.465,12.01 -225.0979,63.49 -20.332,17.03 -39.539,40.68 -36.1601,66.96 -28.0078,-56.24 -55.9024,-122.68 -28.6563,-179.23 13.1446,-27.42 37.3711,-47.46 56.7656,-70.92 19.4493,-23.35 34.8397,-54.65 25.2579,-83.489 -8.6055,-1.211 -17.5235,5.629 -18.6016,14.349 -28.1289,-84.822 26.9184,-181.861 107.4804,-220.29 80.621,-38.352 177.816,-26.989 259.551,8.839 39.019,17.09 82.652,39.77 121.699,22.809 C 608.93,796.719 616.773,729.719 589.617,688 562.391,646.27 512.836,625.34 464.895,611.922 401.281,594.129 335.164,585.5 269.051,586.219 c -37.258,0.441 -78.383,5.761 -103.028,33.679 56.481,-74.238 119.54,-153.019 209.571,-177.339 47.246,-12.758 97.156,-8.848 146.097,-9.278 50.09,-0.383 100.172,-5.273 149.344,-14.773 22.633,-4.328 45.582,-9.668 68.5,-7.117 28.934,3.289 55.137,18.937 78.262,36.777 88.133,68.242 144.258,176.102 150.195,287.352 0.363,5.582 0.512,11.121 0.567,16.699 0.402,-0.051 0.879,-0.098 1.277,-0.16 112.814,-15.079 232.714,-21.258 335.194,28.121 102.88,49.648 178.72,172.14 139.82,279.61"
         style="fill:#fede9e;fill-opacity:1;fill-rule:nonzero;stroke:none"
         id="path60" />
      <path
         d="m 1319.15,2272.98 c -91.46,0 -165.61,74.14 -165.61,165.59 0,91.47 74.15,165.61 165.61,165.61 91.46,0 165.6,-74.14 165.6,-165.61 0,-91.45 -74.14,-165.59 -165.6,-165.59 z m 250.14,391.03 h -40.95 v 156.63 l -80.99,133.59 v 209.47 c 0,29.69 -24.07,53.75 -53.75,53.75 h -44.4 v 127.23 c 0,16.6 -13.46,30.05 -30.05,30.05 -16.6,0 -30.06,-13.45 -30.06,-30.05 v -127.23 h -44.4 c -29.68,0 -53.75,-24.06 -53.75,-53.75 v -209.47 l -80.99,-133.59 V 2664.01 H 1069 c -33.75,0 -61.12,-27.36 -61.12,-61.12 v -344.16 c 0,-33.76 27.37,-61.13 61.12,-61.13 h 40.95 V 568.48 h 418.39 V 2197.6 h 40.95 c 33.76,0 61.12,27.37 61.12,61.13 v 344.16 c 0,33.76 -27.36,61.12 -61.12,61.12"
         style="fill:#fede9e;fill-opacity:1;fill-rule:nonzero;stroke:none"
         id="path62" />
      <path
         d="m 4205.24,3200.96 h -108.77 v 2219.47 h 108.77 V 3200.96"
         style="fill:#fede9e;fill-opacity:1;fill-rule:nonzero;stroke:none"
         id="path64" />
      <path
         d="m 4695.59,3200.96 h -108.78 v 2219.47 h 108.78 V 3200.96"
         style="fill:#fede9e;fill-opacity:1;fill-rule:nonzero;stroke:none"
         id="path66" />
      <path
         d="m 4640.58,5176.58 h -484.2 v 133.1 h 484.2 v -133.1"
         style="fill:#fede9e;fill-opacity:1;fill-rule:nonzero;stroke:none"
         id="path68" />
      <path
         d="m 4628.28,4669.83 h -470.36 v 128.58 h 470.36 v -128.58"
         style="fill:#fede9e;fill-opacity:1;fill-rule:nonzero;stroke:none"
         id="path70" />
      <path
         d="m 4617.52,4163.93 h -454.99 v 160.16 h 454.99 v -160.16"
         style="fill:#fede9e;fill-opacity:1;fill-rule:nonzero;stroke:none"
         id="path72" />
      <path
         d="m 4300.19,4163.5 v 0 50.76 H 4194.68 V 4024.2 h 10.6 v 0 c 0,76.93 42.49,139.3 94.91,139.3"
         style="fill:#fede9e;fill-opacity:1;fill-rule:nonzero;stroke:none"
         id="path74" />
      <path
         d="m 4491.78,4163.5 v 0 50.76 H 4597.3 V 4024.2 h -10.6 v 0 c 0,76.93 -42.5,139.3 -94.92,139.3"
         style="fill:#fede9e;fill-opacity:1;fill-rule:nonzero;stroke:none"
         id="path76" />
      <path
         d="m 4300.19,4669.85 v 0 50.75 h -105.51 v -190.05 h 10.6 v 0 c 0,76.93 42.49,139.3 94.91,139.3"
         style="fill:#fede9e;fill-opacity:1;fill-rule:nonzero;stroke:none"
         id="path78" />
      <path
         d="m 4491.78,4669.85 v 0 50.75 h 105.52 v -190.05 h -10.6 v 0 c 0,76.93 -42.5,139.3 -94.92,139.3"
         style="fill:#fede9e;fill-opacity:1;fill-rule:nonzero;stroke:none"
         id="path80" />
      <path
         d="m 4300.19,5176.2 v 0 50.75 H 4194.68 V 5036.9 h 10.6 v 0 c 0,76.93 42.49,139.3 94.91,139.3"
         style="fill:#fede9e;fill-opacity:1;fill-rule:nonzero;stroke:none"
         id="path82" />
      <path
         d="m 4491.78,5176.2 v 0 50.75 H 4597.3 V 5036.9 h -10.6 v 0 c 0,76.93 -42.5,139.3 -94.92,139.3"
         style="fill:#fede9e;fill-opacity:1;fill-rule:nonzero;stroke:none"
         id="path84" />
      <path
         d="m 4184.37,5405.23 h -52.91 v 106.33 h 52.91 v -106.33"
         style="fill:#fede9e;fill-opacity:1;fill-rule:nonzero;stroke:none"
         id="path86" />
      <path
         d="m 4667.03,5405.23 h -52.91 v 106.33 h 52.91 v -106.33"
         style="fill:#fede9e;fill-opacity:1;fill-rule:nonzero;stroke:none"
         id="path88" />
      <path
         d="m 8057.03,3181.3 c -518.26,7.84 -921.78,133.85 -1233.59,385.24 -190.22,153.36 -346.25,355.89 -463.75,601.95 -128.37,268.84 -214.66,597.99 -256.46,978.3 l 130.39,14.33 c 40.19,-365.63 122.43,-680.58 244.44,-936.1 108.98,-228.22 252.88,-415.4 427.72,-556.36 288.13,-232.31 665.36,-348.82 1153.23,-356.2 l -1.98,-131.16"
         style="fill:#fede9e;fill-opacity:1;fill-rule:nonzero;stroke:none"
         id="path90" />
      <path
         d="m 8513.24,3181.3 c -518.26,7.84 -921.78,133.85 -1233.58,385.24 -190.24,153.36 -346.26,355.89 -463.76,601.95 -128.37,268.84 -214.66,597.99 -256.46,978.3 l 130.39,14.33 c 40.19,-365.63 122.42,-680.58 244.44,-936.1 108.98,-228.22 252.89,-415.4 427.72,-556.36 288.13,-232.31 665.36,-348.82 1153.23,-356.2 l -1.98,-131.16"
         style="fill:#fede9e;fill-opacity:1;fill-rule:nonzero;stroke:none"
         id="path92" />
      <path
         d="m 6603.77,3200.96 h 108.77 V 5420.43 H 6603.77 V 3200.96"
         style="fill:#fede9e;fill-opacity:1;fill-rule:nonzero;stroke:none"
         id="path94" />
      <path
         d="m 6113.42,3200.96 h 108.77 V 5420.43 H 6113.42 V 3200.96"
         style="fill:#fede9e;fill-opacity:1;fill-rule:nonzero;stroke:none"
         id="path96" />
      <path
         d="m 6168.43,5176.58 h 484.19 v 133.1 h -484.19 v -133.1"
         style="fill:#fede9e;fill-opacity:1;fill-rule:nonzero;stroke:none"
         id="path98" />
      <path
         d="m 6180.72,4669.83 h 470.37 v 128.58 h -470.37 v -128.58"
         style="fill:#fede9e;fill-opacity:1;fill-rule:nonzero;stroke:none"
         id="path100" />
      <path
         d="m 6191.48,4163.93 h 455 v 160.16 h -455 v -160.16"
         style="fill:#fede9e;fill-opacity:1;fill-rule:nonzero;stroke:none"
         id="path102" />
      <path
         d="m 6508.81,4163.5 v 0 50.76 h 105.51 V 4024.2 h -10.59 v 0 c 0,76.93 -42.5,139.3 -94.92,139.3"
         style="fill:#fede9e;fill-opacity:1;fill-rule:nonzero;stroke:none"
         id="path104" />
      <path
         d="m 6317.22,4163.5 v 0 50.76 H 6211.71 V 4024.2 h 10.6 v 0 c 0,76.93 42.49,139.3 94.91,139.3"
         style="fill:#fede9e;fill-opacity:1;fill-rule:nonzero;stroke:none"
         id="path106" />
      <path
         d="m 6508.81,4669.85 v 0 50.75 h 105.51 v -190.05 h -10.59 v 0 c 0,76.93 -42.5,139.3 -94.92,139.3"
         style="fill:#fede9e;fill-opacity:1;fill-rule:nonzero;stroke:none"
         id="path108" />
      <path
         d="m 6317.22,4669.85 v 0 50.75 h -105.51 v -190.05 h 10.6 v 0 c 0,76.93 42.49,139.3 94.91,139.3"
         style="fill:#fede9e;fill-opacity:1;fill-rule:nonzero;stroke:none"
         id="path110" />
      <path
         d="m 6508.81,5176.2 v 0 50.75 h 105.51 V 5036.9 h -10.59 v 0 c 0,76.93 -42.5,139.3 -94.92,139.3"
         style="fill:#fede9e;fill-opacity:1;fill-rule:nonzero;stroke:none"
         id="path112" />
      <path
         d="m 6317.22,5176.2 v 0 50.75 H 6211.71 V 5036.9 h 10.6 v 0 c 0,76.93 42.49,139.3 94.91,139.3"
         style="fill:#fede9e;fill-opacity:1;fill-rule:nonzero;stroke:none"
         id="path114" />
      <path
         d="m 6624.64,5405.23 h 52.91 v 106.33 h -52.91 v -106.33"
         style="fill:#fede9e;fill-opacity:1;fill-rule:nonzero;stroke:none"
         id="path116" />
      <path
         d="m 6141.97,5405.23 h 52.91 v 106.33 h -52.91 v -106.33"
         style="fill:#fede9e;fill-opacity:1;fill-rule:nonzero;stroke:none"
         id="path118" />
      <path
         d="m 5711.96,4026.35 c -277.7,0 -547.79,119.43 -760.52,336.28 -245.99,250.77 -383.2,596.41 -376.44,948.3 l 131.16,-2.52 c -3.08,-160 26.41,-317.69 87.63,-468.66 58.38,-143.96 145.27,-277.18 251.3,-385.26 187.85,-191.49 424.67,-296.95 666.87,-296.95 127.31,0 247.55,31.78 357.39,94.47 104.13,59.42 196.86,145.1 275.63,254.64 153.84,213.94 242.06,506.62 242.06,803.03 h 131.18 c 0,-323.26 -97.23,-643.87 -266.74,-879.61 -187.2,-260.34 -449.83,-403.72 -739.52,-403.72"
         style="fill:#fede9e;fill-opacity:1;fill-rule:nonzero;stroke:none"
         id="path120" />
      <path
         d="m 5227.99,4026.35 c -277.71,0 -547.8,119.43 -760.52,336.28 -246,250.77 -383.21,596.41 -376.44,948.3 l 131.15,-2.52 c -3.08,-160 26.41,-317.69 87.63,-468.66 58.38,-143.96 145.28,-277.18 251.3,-385.26 187.85,-191.49 424.69,-296.95 666.88,-296.95 127.3,0 247.54,31.78 357.39,94.47 104.13,59.42 196.85,145.1 275.62,254.64 153.83,213.94 242.06,506.63 242.06,803.03 h 131.19 c 0,-323.26 -97.23,-643.87 -266.74,-879.61 -187.2,-260.34 -449.83,-403.72 -739.52,-403.72"
         style="fill:#fede9e;fill-opacity:1;fill-rule:nonzero;stroke:none"
         id="path122" />
      <path
         d="m 4119.17,5161.12 c -40.18,-365.63 -122.42,-680.58 -244.44,-936.1 -108.98,-228.22 -252.88,-415.4 -427.71,-556.36 -90.07,-72.61 -188.92,-133.82 -297.07,-183.99 v -143.6 c 139.43,58.69 265.56,133.69 379.4,225.47 190.23,153.36 346.26,355.89 463.76,601.95 128.37,268.84 214.66,597.99 256.45,978.3 l -130.39,14.33"
         style="fill:#fede9e;fill-opacity:1;fill-rule:nonzero;stroke:none"
         id="path124" />
      <path
         d="m 4575.38,5161.12 c -40.18,-365.63 -122.42,-680.58 -244.44,-936.1 -108.97,-228.22 -252.88,-415.4 -427.71,-556.36 -192.31,-155.04 -424.36,-258.43 -702.44,-312.3 v -133.59 c 310.37,56.4 569.45,170.18 784.77,343.77 190.23,153.36 346.26,355.89 463.76,601.95 128.37,268.84 214.66,597.99 256.46,978.3 l -130.4,14.33"
         style="fill:#fede9e;fill-opacity:1;fill-rule:nonzero;stroke:none"
         id="path126" />
      <path
         d="m 8513.21,3754.25 -133.45,37.62 41.79,148.19 c 10.39,36.85 48.68,58.3 85.53,47.91 36.85,-10.39 58.3,-48.69 47.91,-85.54 z m -91.56,-324.74 -133.45,37.63 41.79,148.18 c 10.39,36.85 48.68,58.31 85.53,47.91 36.85,-10.39 58.3,-48.68 47.91,-85.53 z m -91.56,-324.73 -133.45,37.63 41.79,148.18 c 10.39,36.85 48.68,58.3 85.53,47.91 36.85,-10.39 58.29,-48.68 47.9,-85.53 z m -91.57,-324.73 -133.44,37.62 41.78,148.19 c 10.39,36.85 48.68,58.3 85.54,47.91 36.85,-10.39 58.29,-48.69 47.9,-85.54 z m -91.56,-324.73 -133.45,37.63 41.79,148.18 c 10.39,36.85 48.68,58.29 85.54,47.9 36.84,-10.38 58.3,-48.68 47.91,-85.53 z m 147.48,1360.61 -133.45,37.63 41.79,148.18 c 10.39,36.85 48.68,58.3 85.53,47.91 h 0.01 c 36.84,-10.39 58.29,-48.69 47.9,-85.54 z m -91.56,-324.73 -133.45,37.63 41.79,148.18 c 10.39,36.85 48.68,58.29 85.54,47.91 v 0 c 36.84,-10.39 58.29,-48.69 47.91,-85.54 z m -91.56,-324.73 -133.45,37.62 41.79,148.19 c 10.39,36.84 48.68,58.29 85.53,47.9 v 0 c 36.85,-10.38 58.29,-48.68 47.91,-85.53 z m -91.57,-324.73 -133.44,37.62 41.78,148.18 c 10.39,36.85 48.68,58.3 85.54,47.91 v 0 c 36.85,-10.39 58.3,-48.69 47.91,-85.53 z m -91.56,-324.74 -133.44,37.63 41.78,148.18 c 10.39,36.85 48.68,58.3 85.54,47.91 v 0 c 36.84,-10.39 58.3,-48.68 47.91,-85.54 z m 147.48,1360.61 -133.45,37.63 41.79,148.18 c 10.39,36.86 48.68,58.31 85.54,47.92 36.84,-10.4 58.29,-48.69 47.91,-85.54 z m -91.56,-324.73 -133.44,37.63 41.78,148.18 c 10.39,36.85 48.68,58.3 85.54,47.91 36.84,-10.39 58.3,-48.68 47.91,-85.53 z m -91.56,-324.73 -133.44,37.62 41.78,148.19 c 10.39,36.85 48.68,58.3 85.53,47.91 36.85,-10.39 58.3,-48.69 47.91,-85.53 z m -91.57,-324.73 -133.43,37.62 41.77,148.19 c 10.39,36.85 48.69,58.3 85.54,47.91 36.85,-10.39 58.3,-48.69 47.91,-85.54 z m -91.56,-324.73 -133.44,37.63 41.78,148.17 c 10.39,36.85 48.69,58.3 85.54,47.91 36.84,-10.39 58.3,-48.68 47.91,-85.53 z m 1058.05,1618.62 -45.59,12.85 15.02,53.25 c 6.85,24.28 -7.29,49.51 -31.57,56.36 l -631.5,178.05 c -24.28,6.85 -49.52,-7.28 -56.36,-31.56 l -15.02,-53.25 -45.58,12.85 c -20.05,5.66 -40.88,-6.01 -46.53,-26.06 l -28.7,-101.78 c -5.66,-20.05 6.01,-40.88 26.06,-46.54 l 45.58,-12.85 -522.52,-1853.19 719.43,-202.85 522.52,1853.19 45.59,-12.85 c 20.05,-5.65 40.88,6.02 46.53,26.07 l 28.69,101.77 c 5.66,20.05 -6.01,40.88 -26.05,46.54"
         style="fill:#fede9e;fill-opacity:1;fill-rule:nonzero;stroke:none"
         id="path128" />
      <path
         d="m 5931.58,2751.57 c -242.06,147.71 -132.29,-29.57 -85.99,-111.2 -159.67,-85.08 -335.26,-45.33 -400.64,-28.45 -14.09,3.67 -24.94,7.26 -32.21,10 -6.85,2.6 -10.44,4.27 -10.44,4.27 -83.95,105.8 -217.37,179.21 -251.39,269.74 219.26,54.79 156.06,98.11 52,100.79 -22.6,91.58 -13.77,162.4 26.98,196.16 56.22,46.57 104.46,128.32 131.61,180.74 299.72,-17.49 111.52,10.54 12.03,23.94 7.54,15.48 11.7,25.07 11.7,25.07 -0.29,11.94 -0.34,23.65 0.03,35.2 371.13,60.26 122.82,82.11 7.77,88.55 32.76,216.2 160.21,362.69 242.44,423.73 361.98,-244.33 157.57,-53.28 61.47,32.69 26.95,9.21 58.01,28.78 85.81,49.07 68.16,-80.8 196.6,-221.55 54.49,43.64 14.04,12.09 22.76,20.35 22.76,20.35 101.5,179.92 290.58,157.89 356.77,143.65 15,-3.2 23.64,-6.02 23.64,-6.02 1.2,-1.82 2.32,-3.59 3.4,-5.42 31.86,-50.45 57.44,-101.21 77.88,-151.41 -70.91,-35.74 -150.7,-95.01 39.11,-117.55 12.56,-47.83 20.97,-94.75 26.08,-139.72 -111.11,15.88 -327.52,39.21 6.1,-79.3 4.65,-117.54 -10.73,-217.86 -25.97,-285.15 -188.56,57.86 -592.44,171.53 -30.82,-103.39 -129.64,-316.72 -271.43,-507.32 -404.61,-619.98"
         style="fill:#fede9e;fill-opacity:1;fill-rule:nonzero;stroke:none"
         id="path130" />
      <path
         d="m 5444.95,2611.92 c -97.32,-164.92 -210.1,-321.41 -376.57,-433.17 -4.49,-3.05 -11.52,-2.47 -17.44,1.04 -1.5,0.9 -2.93,1.93 -4.19,3.22 -6.34,6.25 -6.76,14.32 -1.04,18.19 161.18,108.19 271.72,260.04 367.03,420.72 35.11,59.19 68.19,119.68 100.9,179.54 126.56,231.13 234.86,471.37 352.8,706.91 121.82,243.27 245.36,486 350.7,737.01 2.31,5.52 5.32,11.67 11.07,13.33 6.94,2 14.08,-4.27 15.73,-11.31 1.65,-7.03 -0.59,-14.33 -2.86,-21.19 -66.89,-202.08 -173.51,-391.34 -267.67,-581.61 -171.62,-346.77 -331.58,-699.02 -528.46,-1032.68"
         style="fill:#fff8eb;fill-opacity:1;fill-rule:nonzero;stroke:none"
         id="path132" />
      <path
         d="m 1908.67,2413.71 h 372.91 c 19.07,-60.68 39.02,-119.78 59.87,-177.21 12.81,-35.28 25.96,-69.91 39.44,-103.96 l -571.52,-0.01 c 13.47,34.05 26.63,68.69 39.44,103.97 20.85,57.43 40.79,116.53 59.86,177.21 z m 293.01,284.38 h -213.1 c 41.29,165.01 76.84,339.91 106.55,524.18 29.7,-184.27 65.25,-359.17 106.55,-524.18 z m 808.58,-1310.9 c -210.62,218.89 -387.24,522.2 -524.94,901.54 -156.38,430.75 -261.57,958.48 -312.77,1568.64 39.87,4.42 70.88,38.2 70.88,79.25 v 0 c 0,41.36 -31.47,75.36 -71.77,79.38 v 130.38 c 0,42.26 -34.27,76.53 -76.53,76.53 -42.27,0 -76.53,-34.27 -76.53,-76.53 v -130.36 c -40.49,-3.83 -72.18,-37.9 -72.18,-79.4 v 0 c 0,-41.19 31.22,-75.07 71.28,-79.31 -51.2,-610.13 -156.39,-1137.84 -312.76,-1568.58 -137.71,-379.34 -314.32,-682.65 -524.95,-901.54 -29.3,-30.44 -28.37,-78.89 2.08,-108.2 14.85,-14.29 33.96,-21.39 53.05,-21.39 20.09,0 40.14,7.86 55.16,23.47 89.06,92.55 172.23,198.73 249.23,317.88 229.4,213.65 397.35,308.82 556.15,316.34 157.55,7.51 319.99,-72.82 518.56,-258.09 87.03,-143.05 182.43,-268.76 285.75,-376.13 15.03,-15.61 35.08,-23.47 55.15,-23.47 19.1,0 38.21,7.1 53.06,21.39 30.45,29.31 31.38,77.75 2.08,108.2"
         style="fill:#fede9e;fill-opacity:1;fill-rule:nonzero;stroke:none"
         id="path134" />
      <path
         d="M 9163.96,420.16 C 9163.96,188.109 7149.29,0 4664.09,0 2178.88,0 164.215,188.109 164.215,420.16 c 0,232.059 2014.665,420.168 4499.875,420.168 2485.2,0 4499.87,-188.109 4499.87,-420.168"
         style="fill:#31475c;fill-opacity:1;fill-rule:nonzero;stroke:none"
         id="path136" />
      <path
         d="m 3471,3933.53 h -139.8 v 896.05 H 3471 v -896.05"
         style="fill:#3a4a75;fill-opacity:1;fill-rule:nonzero;stroke:none"
         id="path138" />
      <path
         d="m 4374.35,3933.53 h -139.8 v 896.05 h 139.8 v -896.05"
         style="fill:#3a4a75;fill-opacity:1;fill-rule:nonzero;stroke:none"
         id="path140" />
      <path
         d="m 4566.03,4920.81 v -65.36 c 0,-37.59 -29.04,-68.68 -66.84,-73.74 -3.63,-0.58 -7.42,-0.87 -11.19,-0.87 H 3226.97 c -5.29,0 -10.59,0.58 -15.58,1.59 -35.68,6.8 -62.45,36.87 -62.45,73.02 v 65.36 c 0,41.35 34.93,74.76 78.03,74.76 H 4488 c 43.1,0 78.03,-33.41 78.03,-74.76"
         style="fill:#3a4a75;fill-opacity:1;fill-rule:nonzero;stroke:none"
         id="path142" />
      <path
         d="M 5172.63,3764.09 V 890.801 c 0,-116.09 -97.41,-210.262 -217.71,-210.262 H 2735.86 c -1.67,0 -3.44,0 -5.21,0.102 -117.76,2.66 -212.51,95.648 -212.51,210.16 V 3764.09 c 0,116.08 97.51,210.25 217.72,210.25 h 2219.06 c 28.6,0 56.02,-5.41 80.99,-15.14 80.11,-30.96 136.72,-106.75 136.72,-195.11"
         style="fill:#59b4c6;fill-opacity:1;fill-rule:nonzero;stroke:none"
         id="path144" />
      <path
         d="m 5035.91,3959.2 c -24.97,9.73 -52.39,15.14 -80.99,15.14 h -137.9 c 28.6,0 56.02,-5.41 80.99,-15.14 80.1,-30.96 136.72,-106.75 136.72,-195.11 v -32.37 -2604.77 h 137.9 v 2604.77 32.37 c 0,88.36 -56.61,164.15 -136.72,195.11"
         style="fill:#5793c5;fill-opacity:1;fill-rule:nonzero;stroke:none"
         id="path146" />
      <path
         d="m 5035.91,3959.2 c -24.97,9.73 -52.39,15.14 -80.99,15.14 H 2735.86 c -120.21,0 -217.72,-94.17 -217.72,-210.25 V 3731.72 959.711 h 121.83 v 2772.009 16.18 c 0,58.04 48.76,105.13 108.86,105.13 H 5152.1 c -23.34,48.1 -64.91,86.35 -116.19,106.17"
         style="fill:#88d4d8;fill-opacity:1;fill-rule:nonzero;stroke:none"
         id="path148" />
      <path
         d="M 4651.63,2115.31 H 3063.34 c -128.5,0 -232.68,104.17 -232.68,232.68 v 942.61 c 0,128.51 104.18,232.68 232.68,232.68 h 1588.29 c 128.5,0 232.67,-104.17 232.67,-232.68 v -942.61 c 0,-128.51 -104.17,-232.68 -232.67,-232.68"
         style="fill:#3a4a75;fill-opacity:1;fill-rule:nonzero;stroke:none"
         id="path150" />
      <path
         d="M 4709.84,3292.47 H 3005.12 v 45.72 h 1704.72 v -45.72"
         style="fill:#59b4d1;fill-opacity:1;fill-rule:nonzero;stroke:none"
         id="path152" />
      <path
         d="m 2681.18,1575.3 c -8.4,0 -16.74,3.59 -22.54,10.56 l -132.27,159.08 c -18.8,22.61 -46.44,35.57 -75.84,35.57 h -440.66 c -16.18,0 -29.3,13.12 -29.3,29.29 0,16.17 13.12,29.29 29.3,29.29 h 440.66 c 46.86,0 90.92,-20.67 120.88,-56.69 l 132.27,-159.08 c 10.35,-12.44 8.65,-30.91 -3.79,-41.25 -5.47,-4.55 -12.11,-6.77 -18.71,-6.77"
         style="fill:#59b4c6;fill-opacity:1;fill-rule:nonzero;stroke:none"
         id="path154" />
      <path
         d="m 2082.95,1741.25 c 0,-92.79 -75.21,-168 -168,-168 -92.78,0 -167.99,75.21 -167.99,168 0,92.78 75.21,168 167.99,168 92.79,0 168,-75.22 168,-168"
         style="fill:#4a4657;fill-opacity:1;fill-rule:nonzero;stroke:none"
         id="path156" />
      <path
         d="m 2518.51,1741.25 c 0,-92.79 -75.21,-168 -168,-168 -92.77,0 -167.99,75.21 -167.99,168 0,92.78 75.22,168 167.99,168 92.79,0 168,-75.22 168,-168"
         style="fill:#4a4657;fill-opacity:1;fill-rule:nonzero;stroke:none"
         id="path158" />
      <path
         d="m 2187.19,1728.76 c -18.93,40.17 -53.57,40.23 -63.72,39.25 -16.71,-1.55 -38.32,-11.42 -44.25,-34.16 l -56.68,14.79 c 11.17,42.85 48.67,73.36 95.51,77.7 51.91,4.85 98.75,-22.99 122.13,-72.6 l -52.99,-24.98"
         style="fill:#4a4657;fill-opacity:1;fill-rule:nonzero;stroke:none"
         id="path160" />
      <path
         d="m 3146.62,1575.3 c -8.4,0 -16.74,3.59 -22.53,10.56 l -132.28,159.08 c -18.8,22.61 -46.44,35.57 -75.84,35.57 h -440.66 c -16.18,0 -29.29,13.12 -29.29,29.29 0,16.17 13.11,29.29 29.29,29.29 h 440.66 c 46.86,0 90.92,-20.67 120.88,-56.69 l 132.28,-159.08 c 10.34,-12.44 8.65,-30.91 -3.8,-41.25 -5.46,-4.55 -12.11,-6.77 -18.71,-6.77"
         style="fill:#4a4657;fill-opacity:1;fill-rule:nonzero;stroke:none"
         id="path162" />
      <path
         d="M 4027.61,312.609 H 1338.62 c -80.1,0 -145.02,64.942 -145.02,145.032 v 982.439 c 0,80.08 64.92,145.01 145.02,145.01 h 2688.99 c 80.1,0 145.03,-64.93 145.03,-145.01 V 457.641 c 0,-80.09 -64.93,-145.032 -145.03,-145.032"
         style="fill:#31475c;fill-opacity:1;fill-rule:nonzero;stroke:none"
         id="path164" />
      <path
         d="M 3997.96,415.211 H 1368.27 c -41.05,0 -74.33,33.277 -74.33,74.328 v 918.631 c 0,41.05 33.28,74.33 74.33,74.33 h 2629.69 c 41.05,0 74.33,-33.28 74.33,-74.33 V 489.539 c 0,-41.051 -33.28,-74.328 -74.33,-74.328"
         style="fill:#22b566;fill-opacity:1;fill-rule:nonzero;stroke:none"
         id="path166" />
      <path
         d="M 4031.05,1585.09 H 1335.18 c -78.2,0 -141.58,-63.38 -141.58,-141.59 v -285.83 h 2979.04 v 285.83 c 0,78.21 -63.39,141.59 -141.59,141.59"
         style="fill:#fe8b27;fill-opacity:1;fill-rule:nonzero;stroke:none"
         id="path168" />
      <path
         d="M 4172.64,1230.71 H 1193.6 v -73.04 h 2979.04 v 73.04"
         style="fill:#ffc84a;fill-opacity:1;fill-rule:nonzero;stroke:none"
         id="path170" />
      <path
         d="m 4072.29,1157.67 v 252.26 c 0,40.08 -32.49,72.57 -72.57,72.57 H 1366.51 c -40.08,0 -72.57,-32.49 -72.57,-72.57 v -252.26 h 2778.35"
         style="fill:#ffc84a;fill-opacity:1;fill-rule:nonzero;stroke:none"
         id="path172" />
      <path
         d="M 4072.29,1230.71 H 1293.94 v -73.04 h 2778.35 v 73.04"
         style="fill:#ffe577;fill-opacity:1;fill-rule:nonzero;stroke:none"
         id="path174" />
      <path
         d="m 3019.25,528.461 h -744.67 c -61.46,0 -111.47,43.098 -111.47,96.07 v 173.43 h 85.11 v -173.43 c 0.56,-2.59 9.59,-10.961 26.36,-10.961 h 744.67 c 16.77,0 25.81,8.371 26.39,11.039 v 173.352 h 85.1 v -173.43 c 0,-52.972 -50.01,-96.07 -111.49,-96.07"
         style="fill:#ffe577;fill-opacity:1;fill-rule:nonzero;stroke:none"
         id="path176" />
      <path
         d="m 2935.71,653.23 h -569.15 c -30.84,0 -55.84,-25 -55.84,-55.851 v -62.938 c 0,-30.851 25,-55.851 55.84,-55.851 h 569.15 c 30.84,0 55.84,25 55.84,55.851 v 62.938 c 0,30.851 -25,55.851 -55.84,55.851"
         style="fill:#31475c;fill-opacity:1;fill-rule:nonzero;stroke:none"
         id="path178" />
      <path
         d="M 2261.63,713.629 H 2084.8 c -20.46,0 -37.05,16.59 -37.05,37.051 v 40.48 c 0,20.469 16.59,37.051 37.05,37.051 h 176.83 c 20.47,0 37.06,-16.582 37.06,-37.051 v -40.48 c 0,-20.461 -16.59,-37.051 -37.06,-37.051"
         style="fill:#31475c;fill-opacity:1;fill-rule:nonzero;stroke:none"
         id="path180" />
      <path
         d="m 3205.44,713.629 h -176.83 c -20.47,0 -37.06,16.59 -37.06,37.051 v 40.48 c 0,20.469 16.59,37.051 37.06,37.051 h 176.83 c 20.46,0 37.05,-16.582 37.05,-37.051 v -40.48 c 0,-20.461 -16.59,-37.051 -37.05,-37.051"
         style="fill:#31475c;fill-opacity:1;fill-rule:nonzero;stroke:none"
         id="path182" />
      <path
         d="m 2025.21,902.352 h -397.82 c -34.81,0 -63.03,28.218 -63.03,63.027 v 84.941 c 0,34.8 28.22,63.03 63.03,63.03 h 397.82 c 34.81,0 63.02,-28.23 63.02,-63.03 v -84.941 c 0,-34.809 -28.21,-63.027 -63.02,-63.027"
         style="fill:#ffffff;fill-opacity:1;fill-rule:nonzero;stroke:none"
         id="path184" />
      <path
         d="m 1741.02,971.668 h -86.1 c -19.98,0 -36.17,16.203 -36.17,36.182 v 0 c 0,19.98 16.19,36.17 36.17,36.17 h 86.1 c 19.98,0 36.18,-16.19 36.18,-36.17 v 0 c 0,-19.979 -16.2,-36.182 -36.18,-36.182"
         style="fill:#fe8b27;fill-opacity:1;fill-rule:nonzero;stroke:none"
         id="path186" />
      <path
         d="m 1964.31,990.281 h -49.22 c -28.73,0 -52,23.279 -52,51.999 v 180.5 c 0,28.72 23.27,51.99 52,51.99 h 49.22 c 28.72,0 52,-23.27 52,-51.99 v -180.5 c 0,-28.72 -23.28,-51.999 -52,-51.999"
         style="fill:#31475c;fill-opacity:1;fill-rule:nonzero;stroke:none"
         id="path188" />
      <path
         d="m 3273.72,902.352 h 397.83 c 34.8,0 63.02,28.218 63.02,63.027 v 84.941 c 0,34.8 -28.22,63.03 -63.02,63.03 h -397.83 c -34.81,0 -63.02,-28.23 -63.02,-63.03 v -84.941 c 0,-34.809 28.21,-63.027 63.02,-63.027"
         style="fill:#ffffff;fill-opacity:1;fill-rule:nonzero;stroke:none"
         id="path190" />
      <path
         d="m 3557.91,971.668 h 86.1 c 19.98,0 36.18,16.203 36.18,36.182 v 0 c 0,19.98 -16.2,36.17 -36.18,36.17 h -86.1 c -19.98,0 -36.17,-16.19 -36.17,-36.17 v 0 c 0,-19.979 16.19,-36.182 36.17,-36.182"
         style="fill:#fe8b27;fill-opacity:1;fill-rule:nonzero;stroke:none"
         id="path192" />
      <path
         d="m 3334.62,990.281 h 49.23 c 28.72,0 52,23.279 52,51.999 v 180.5 c 0,28.72 -23.28,51.99 -52,51.99 h -49.23 c -28.71,0 -52,-23.27 -52,-51.99 v -180.5 c 0,-28.72 23.29,-51.999 52,-51.999"
         style="fill:#31475c;fill-opacity:1;fill-rule:nonzero;stroke:none"
         id="path194" />
      <path
         d="m 976.828,2491.34 c 1.567,1 15.051,-16.47 24.682,-47.97 4.42,-15.75 7.92,-34.7 8.83,-55.25 3.94,-88.08 -36.305,-173.36 -84.688,-244.59 -23.672,-34.85 -49.726,-67.98 -75.089,-101.59 -36.149,-47.92 -82.629,-95.42 -74.754,-160.2 -0.696,5.67 -9.254,14.67 -11.371,20.85 -3.102,9.05 -4.403,18.74 -3.864,28.27 1.012,17.93 9.543,36.43 17.629,52.21 17.36,33.88 39.676,65.82 60.379,97.5 21.469,32.85 50.957,60.46 72.207,94.17 48.039,76.21 91.351,174.47 77.938,265.68 -5.18,30.43 -14.356,49.67 -11.899,50.92"
         style="fill:#fede9e;fill-opacity:1;fill-rule:nonzero;stroke:none"
         id="path196" />
      <path
         d="m 988.41,2464.09 c 1.145,-0.23 1.078,-5.12 0.051,-13.67 -0.289,-2.14 -0.606,-4.51 -0.953,-7.08 -0.192,-1.29 -0.395,-2.63 -0.602,-4.03 -0.347,-1.35 -0.703,-2.75 -1.07,-4.2 -1.508,-5.79 -3.297,-12.33 -5.32,-19.49 -2.657,-6.91 -5.539,-14.4 -8.586,-22.32 -3.606,-7.65 -7.446,-15.75 -11.68,-24 -8.926,-16.16 -19.23,-33 -30.574,-48.93 -35.004,-49.86 -78.653,-92.65 -110.664,-144.64 -23.59,-38.32 -41.93,-79.84 -53.239,-123.43 -5.855,-22.57 -9.839,-45.6 -11.996,-68.82 -1.968,-21.14 0.883,-43.84 -4.683,-64.4 -28.711,43.99 -21.11,112.93 -7.926,160.72 15,54.39 43.684,104.6 78.391,148.76 34.656,44.09 73.679,84.6 107.308,129.53 15.578,20.8 30.602,42.58 41.852,66.05 1.914,4 15.426,40.8 19.691,39.95"
         style="fill:#fede9e;fill-opacity:1;fill-rule:nonzero;stroke:none"
         id="path198" />
      <path
         d="m 917.762,2778.47 c 2.324,-0.12 3.172,-23.66 3.14,-58.86 -0.019,-17.61 -0.254,-38.14 -0.64,-60.13 -0.414,-21.94 -0.719,-45.56 -2.766,-69.49 -10.047,-117.56 -85.25,-208.09 -149.945,-300.33 -25.824,-36.84 -48.207,-69.28 -62.781,-98.65 -16.161,-32.03 -25.582,-67.42 -28.829,-103.13 0.61,6.72 -6.386,18.84 -7.558,26.12 -1.594,9.86 -1.875,19.95 -0.832,29.89 2.008,19.19 8.375,38.97 15.453,56.83 12.789,32.88 34.453,68.59 58.699,106.12 37.086,57.43 79.735,112.92 111.563,173.84 30.222,57.83 41.738,115.7 48.187,179.89 2.172,21.89 4.324,42.31 6.352,59.8 4.058,34.98 7.636,58.24 9.957,58.1"
         style="fill:#fede9e;fill-opacity:1;fill-rule:nonzero;stroke:none"
         id="path200" />
      <path
         d="m 918.82,2773.37 c 0.094,0.18 0.18,0.36 0.274,0.54 -12.383,-73.05 -56.406,-136.31 -100.41,-195.91 -59.77,-80.98 -107.899,-163.31 -132.739,-261.55 -19.023,-74.83 -13.84,-148.11 -11.371,-224.51 -37.176,84.84 -36.152,183.31 -9.285,271.96 29.449,97.17 87.324,178.81 152.359,255.13 15.172,17.8 30.02,35.64 42.911,53.02 23.554,31.61 40.406,66.35 58.261,101.32"
         style="fill:#fede9e;fill-opacity:1;fill-rule:nonzero;stroke:none"
         id="path202" />
      <path
         d="m 784.348,2992.46 c 22.98,-61.33 28.222,-129.17 14.941,-193.3 -7.598,-36.71 -21.258,-72.13 -40.074,-104.55 -24.793,-42.73 -58.426,-79.31 -89.344,-117.54 -28.34,-35.05 -51.871,-74.67 -73.887,-113.94 -29.976,-53.46 -45.804,-88.51 -50.507,-86.79 -2.11,0.78 -1.036,10.62 3.628,27.58 4.633,16.97 12.883,41.06 25.567,69.87 23.824,54.13 56.023,104.01 90.558,151.84 32.696,45.29 76.676,88.8 98.2,140.63 7.265,17.5 12.808,37.26 16.312,57.64 9.543,55.27 4.949,112.68 4.606,168.56"
         style="fill:#fede9e;fill-opacity:1;fill-rule:nonzero;stroke:none"
         id="path204" />
      <path
         d="m 787.457,2989.33 c 8.352,-5.97 -91.504,-147.11 -100.305,-160.08 -42.156,-62.15 -77.828,-129.11 -102.027,-200.33 -12.191,-35.88 -21.426,-72.77 -27.055,-110.25 -5.644,-37.57 -6.078,-75.83 -9.316,-113.7 -0.34,-3.98 -0.691,-7.95 -1.051,-11.93 -28.793,59.99 -19.348,142.83 -5.433,205.64 22.257,100.54 77.031,182.93 139.085,263.09 50.692,65.49 102.325,130.26 106.102,127.56"
         style="fill:#fede9e;fill-opacity:1;fill-rule:nonzero;stroke:none"
         id="path206" />
      <path
         d="m 417.098,3125.66 c 4.648,-0.07 7.625,-79.91 9.437,-159.71 1.774,-77.99 11.043,-155.63 30.406,-231.28 19.86,-77.58 56.86,-148.07 78.657,-224.83 -4.106,14.47 -25.34,33.19 -33.981,46.17 -11.066,16.64 -21.32,33.82 -30.715,51.46 -18.8,35.28 -34.179,72.38 -45.871,110.6 -25.117,82.13 -27.129,163.13 -22.32,248.24 4.281,79.72 9.734,159.41 14.387,159.35"
         style="fill:#fede9e;fill-opacity:1;fill-rule:nonzero;stroke:none"
         id="path208" />
      <path
         d="m 417.063,3128.75 c 0.988,0.62 4.507,-3.1 9.941,-10.12 62.687,-81.07 103.226,-185.01 120.242,-285.75 7.551,-44.68 10.715,-87.81 11.047,-126.99 -1.18,-67.74 -7,-133.53 -33.789,-196.64 -1.992,39.55 1.738,78.47 3.434,117.87 0.335,7.81 0.113,15.96 0.25,24.37 2.117,130.43 -22.454,262.89 -71.473,383.78 -1.75,4.32 -3.477,8.57 -5.164,12.73 -1.645,4.19 -3.313,8.26 -5.168,12.11 -3.52,7.82 -6.848,15.21 -9.926,22.03 -1.519,3.43 -2.973,6.72 -4.359,9.85 -1.5,3.07 -2.922,5.99 -4.258,8.73 -2.641,5.49 -4.883,10.34 -6.645,14.39 -3.515,8.1 -5.117,13.03 -4.132,13.64"
         style="fill:#fede9e;fill-opacity:1;fill-rule:nonzero;stroke:none"
         id="path210" />
      <path
         d="m 256.965,2837.2 c 0.781,0.87 4.621,-1.21 10.765,-5.51 3.075,-2.16 6.719,-4.88 10.848,-8.07 4.164,-3.15 8.742,-6.85 13.524,-11.1 19.613,-16.54 44.023,-40.58 67.148,-65.94 45.371,-49.75 84.219,-106.77 115.016,-166.57 29.632,-57.54 61.406,-126.72 60.922,-192.56 -0.024,-2.8 -0.098,-5.6 -0.231,-8.4 -29.984,60.93 -56.102,123.75 -87.547,183.83 -30.863,58.96 -66.39,115.5 -106.566,168.57 -20.235,26.64 -41.496,52.65 -58.02,71.8 -4.004,4.9 -7.808,9.29 -11.203,13.16 -3.351,3.91 -6.234,7.38 -8.531,10.32 -4.606,5.87 -6.91,9.62 -6.125,10.47"
         style="fill:#fede9e;fill-opacity:1;fill-rule:nonzero;stroke:none"
         id="path212" />
      <path
         d="m 248.59,2847.03 c 7.183,0.19 23.683,-88 25.949,-97.21 13.992,-56.77 40.457,-112.77 69.539,-163.28 24.098,-41.86 51.711,-81.83 83.332,-118.38 15.809,-18.27 32.641,-35.69 50.594,-51.88 15.281,-13.77 37.699,-25.41 45.184,-45.49 -1.766,4.74 -32.422,14.71 -38.094,17.81 -13.528,7.4 -26.551,15.75 -38.934,24.96 -24.273,18.03 -45.058,39.8 -65.637,61.79 -47.832,51.12 -81.679,114.34 -103.625,180.52 -5.156,15.54 -46.156,189.21 -28.308,191.16"
         style="fill:#fede9e;fill-opacity:1;fill-rule:nonzero;stroke:none"
         id="path214" />
      <path
         d="m 204.348,2506.79 c -0.172,0.16 -0.348,0.32 -0.52,0.47 13.395,-12.01 38.309,-19 54.262,-28 18.531,-10.46 36.664,-21.64 54.344,-33.49 36.125,-24.22 70.347,-51.27 102.265,-80.82 62.746,-58.08 117.125,-126.41 166.215,-196.18 30.984,-44.28 47.824,-73.28 44.195,-76.11 -3.718,-2.88 -27.285,21.04 -62.894,61.34 -35.707,40.21 -83.438,96.76 -139.328,155.65 0,0 -3.117,3.36 -8.574,9.26 -5.532,5.82 -13.125,14.48 -22.782,24.28 -19.043,19.92 -45.332,45.54 -72.836,69.93 -37.39,32.28 -77.554,60.74 -114.347,93.67"
         style="fill:#fede9e;fill-opacity:1;fill-rule:nonzero;stroke:none"
         id="path216" />
      <path
         d="m 203.305,2506.39 c 5.945,2.84 82.312,-127.33 90.765,-139.52 45.121,-65.08 99.379,-127.21 162.184,-175.82 27.266,-21.1 53.625,-37.71 76.746,-49.95 25.699,-13.73 52.32,-26.55 78.199,-40.29 -69.086,4.18 -135.062,33.96 -189.707,76.44 -66.019,51.33 -117.222,119.8 -157.773,192.3 -36.731,65.66 -64.356,134.96 -60.414,136.84"
         style="fill:#fede9e;fill-opacity:1;fill-rule:nonzero;stroke:none"
         id="path218" />
      <path
         d="m 159.824,2243.43 c 46.606,-38.62 101.821,-53.14 158.278,-70.99 173.261,-54.79 327.722,-163.1 426.562,-317.02 -67.742,58.04 -133.586,120.02 -206.613,171.02 -70.93,49.53 -147.324,91.46 -227.942,122.97 -28.109,11 -56.804,20.81 -83.414,35.06 -26.609,14.25 -51.386,33.42 -67.121,59.17 0.082,-0.07 0.168,-0.14 0.25,-0.21"
         style="fill:#fede9e;fill-opacity:1;fill-rule:nonzero;stroke:none"
         id="path220" />
      <path
         d="m 160.465,2244.17 c 2.281,1.12 13.25,-17.4 31.851,-43.26 9.153,-13.04 20.7,-27.58 33.375,-42.8 102.731,-120.2 245.008,-195.61 389.508,-254.09 57.211,-23.15 93.281,-36.94 91.918,-41.64 -1.203,-4.25 -39.621,1.44 -99.816,19.16 -30.067,8.9 -65.496,21.11 -103.828,37.5 -95.551,40.86 -182.993,99.91 -252.676,177.34 -14.469,16.43 -28.133,33.51 -39.992,50.19 -11.66,16.84 -21.942,32.92 -29.59,47.35 -15.617,28.72 -22.649,49.35 -20.75,50.25"
         style="fill:#fede9e;fill-opacity:1;fill-rule:nonzero;stroke:none"
         id="path222" />
      <path
         d="m 895.867,1557.7 c -2.015,-1.1 -20.101,27.12 -45.871,70.25 -25.754,43.13 -59.258,101.14 -91.273,160.08 -32.125,58.88 -62.508,118.79 -84.325,164.26 -10.699,22.84 -19.863,41.76 -25.71,55.29 -6,13.44 -9.422,21.13 -9.422,21.13 -36.118,85.09 -68.219,172.21 -89.828,262.2 -10.868,45.24 -19.051,91.15 -23.778,137.46 -3.398,33.34 -16.152,92.61 8.086,121.25 0.207,0.24 0.707,0.79 1.121,0.67 2.567,-0.6 0.16,-15.46 0.36,-42.01 0.078,-13.26 0.91,-29.44 3.242,-48.11 2.355,-18.67 6.242,-39.79 11.699,-63.03 22.211,-93.3 62.461,-220.24 120.117,-355.29 0,0 3.16,-7.68 8.688,-21.14 5.355,-13.53 13.832,-32.52 23.644,-55.48 20.067,-45.73 48.004,-106.27 77.289,-166.28 29.164,-60.07 59.418,-119.7 81.614,-164.73 22.203,-45.02 36.414,-75.39 34.347,-76.52"
         style="fill:#fede9e;fill-opacity:1;fill-rule:nonzero;stroke:none"
         id="path224" />
      <path
         d="m 6770.33,736.141 v -6.903 c 0,1.66 -0.1,3.403 -0.28,5.051 l 0.28,1.852"
         style="fill:#fca300;fill-opacity:1;fill-rule:nonzero;stroke:none"
         id="path226" />
      <path
         d="m 5249.41,5310.93 c 0,-47.98 -38.9,-86.89 -86.89,-86.89 -47.99,0 -86.9,38.91 -86.9,86.89 0,48 38.91,86.9 86.9,86.9 47.99,0 86.89,-38.9 86.89,-86.9"
         style="fill:#fede9e;fill-opacity:1;fill-rule:nonzero;stroke:none"
         id="path228" />
      <path
         d="m 5882.66,5662.91 c 0,-17.63 -14.29,-31.93 -31.92,-31.93 -17.64,0 -31.92,14.3 -31.92,31.93 0,17.63 14.28,31.92 31.92,31.92 17.63,0 31.92,-14.29 31.92,-31.92"
         style="fill:#fede9e;fill-opacity:1;fill-rule:nonzero;stroke:none"
         id="path230" />
      <path
         d="m 2856.07,4374.82 c -35.49,-17.94 -78.81,-3.72 -96.75,31.77 -17.95,35.5 -3.72,78.81 31.77,96.76 35.49,17.95 78.81,3.72 96.76,-31.77 17.94,-35.49 3.71,-78.81 -31.78,-96.76"
         style="fill:#fede9e;fill-opacity:1;fill-rule:nonzero;stroke:none"
         id="path232" />
      <path
         d="m 580.242,3861.77 c -27.133,-13.72 -60.25,-2.85 -73.969,24.29 -13.718,27.13 -2.843,60.25 24.29,73.97 27.128,13.71 60.25,2.84 73.964,-24.29 13.723,-27.14 2.844,-60.25 -24.285,-73.97"
         style="fill:#fede9e;fill-opacity:1;fill-rule:nonzero;stroke:none"
         id="path234" />
      <path
         d="m 730.676,3480.44 c -12.488,-6.32 -27.731,-1.31 -34.043,11.17 -6.313,12.49 -1.309,27.73 11.176,34.05 12.492,6.31 27.73,1.31 34.043,-11.19 6.312,-12.48 1.308,-27.72 -11.176,-34.03"
         style="fill:#fede9e;fill-opacity:1;fill-rule:nonzero;stroke:none"
         id="path236" />
      <path
         d="m 1930.12,4311.2 c -60.28,-30.48 -133.86,-6.32 -164.34,53.96 -30.47,60.29 -6.31,133.87 53.97,164.35 60.29,30.48 133.86,6.32 164.34,-53.97 30.48,-60.28 6.32,-133.86 -53.97,-164.34"
         style="fill:#fede9e;fill-opacity:1;fill-rule:nonzero;stroke:none"
         id="path238" />
      <path
         d="m 1412.02,5213.83 c -4.7,-26.67 -30.13,-44.46 -56.79,-39.76 -26.66,4.7 -44.46,30.13 -39.76,56.79 4.7,26.66 30.13,44.46 56.79,39.76 26.66,-4.71 44.47,-30.13 39.76,-56.79"
         style="fill:#fede9e;fill-opacity:1;fill-rule:nonzero;stroke:none"
         id="path240" />
      <path
         d="m 1664.3,5356.34 c -7.68,-43.55 -49.21,-72.64 -92.77,-64.95 -43.55,7.68 -72.63,49.21 -64.95,92.77 7.68,43.55 49.22,72.63 92.77,64.95 43.55,-7.69 72.63,-49.22 64.95,-92.77"
         style="fill:#fede9e;fill-opacity:1;fill-rule:nonzero;stroke:none"
         id="path242" />
      <path
         d="m 854.332,4866.91 c 0,0 233.568,-194.25 264.138,-237.9 19.43,-27.75 89.41,56.97 99.83,68.1 25.42,27.14 48.74,56.17 74.63,82.88 13.05,13.47 26.75,26.38 41.54,37.93 13.76,10.74 33.39,16.24 45.19,29.11 -13.8,5.95 -33.92,-3.94 -47.64,-6.8 -16.96,-3.54 -33.75,-7.98 -50.18,-13.5 -25.52,-8.55 -50.38,-19.26 -73.78,-32.6 -6.79,-3.87 -71.45,-52.87 -69.96,-53.8 0,0 -172.444,106.95 -283.768,126.58"
         style="fill:#fede9e;fill-opacity:1;fill-rule:nonzero;stroke:none"
         id="path244" />
      <path
         d="m 899.617,5111.18 c 0,0 -173.219,-112.74 -197.332,-139.81 -15.332,-17.22 -55.902,45.57 -62.062,53.92 -15.02,20.36 -28.481,41.82 -43.86,61.92 -7.754,10.14 -15.98,19.94 -25.062,28.92 -8.446,8.35 -21.27,13.62 -28.227,23.25 9.797,2.93 22.606,-5.34 31.656,-8.37 11.18,-3.73 22.168,-8.07 32.833,-13.09 16.566,-7.81 32.515,-17.01 47.269,-27.88 4.281,-3.15 44.09,-41.39 43.008,-41.89 0,0 125,58.59 201.777,63.03"
         style="fill:#fede9e;fill-opacity:1;fill-rule:nonzero;stroke:none"
         id="path246" />
      <path
         d="m 7645.4,5340.71 c 0,0 -283.96,-93.95 -327.68,-122.96 -27.79,-18.44 -61.43,84.39 -66.98,98.34 -13.52,34.02 -24.45,69.02 -38.55,102.81 -7.12,17.05 -15.02,33.8 -24.43,49.71 -8.74,14.8 -24.74,26.9 -30.94,42.94 14.8,0.49 29.67,-15.81 41.22,-23.37 14.27,-9.35 28.05,-19.47 41.13,-30.43 20.3,-17.03 39.24,-35.79 55.88,-56.43 4.82,-6 46.45,-74.17 44.74,-74.48 0,0 196.53,35.94 305.61,13.87"
         style="fill:#fede9e;fill-opacity:1;fill-rule:nonzero;stroke:none"
         id="path248" />
      <path
         d="m 7524.58,373.141 c 0,-68.192 -55.28,-123.473 -123.47,-123.473 -68.18,0 -123.46,55.281 -123.46,123.473 0,68.187 55.28,123.461 123.46,123.461 68.19,0 123.47,-55.274 123.47,-123.461"
         style="fill:#ffffff;fill-opacity:1;fill-rule:nonzero;stroke:none"
         id="path250" />
      <path
         d="m 8019.67,373.141 c 0,-68.192 -55.29,-123.473 -123.47,-123.473 -68.19,0 -123.47,55.281 -123.47,123.473 0,68.187 55.28,123.461 123.47,123.461 68.18,0 123.47,-55.274 123.47,-123.461"
         style="fill:#ffffff;fill-opacity:1;fill-rule:nonzero;stroke:none"
         id="path252" />
      <path
         d="m 7460.83,3440.19 v 0 c -32.98,0 -59.72,28.62 -59.72,63.93 v 1012.16 c 0,35.31 26.74,63.93 59.72,63.93 v 0 c 32.99,0 59.71,-28.62 59.71,-63.93 V 3504.12 c 0,-35.31 -26.72,-63.93 -59.71,-63.93"
         style="fill:#31475c;fill-opacity:1;fill-rule:nonzero;stroke:none"
         id="path254" />
      <path
         d="m 6838.58,3416.57 v 0 c -32.98,0 -59.72,29.8 -59.72,66.56 V 4545.4 c 0,36.76 26.74,66.56 59.72,66.56 v 0 c 32.99,0 59.72,-29.8 59.72,-66.56 V 3483.13 c 0,-36.76 -26.73,-66.56 -59.72,-66.56"
         style="fill:#31475c;fill-opacity:1;fill-rule:nonzero;stroke:none"
         id="path256" />
      <path
         d="m 7557.14,4604.41 v -25.24 c 0,-31.47 -26.47,-56.9 -59,-56.9 H 6760.5 c -32.63,0 -59,25.43 -59,56.9 v 25.24 c 0,31.47 26.37,56.9 59,56.9 h 737.64 c 32.53,0 59,-25.43 59,-56.9"
         style="fill:#e8443f;fill-opacity:1;fill-rule:nonzero;stroke:none"
         id="path258" />
      <path
         d="m 7508.75,4522.27 h -148.24 c -28.84,0 -52.21,23.38 -52.21,52.21 v 34.62 c 0,28.83 23.37,52.21 52.21,52.21 h 148.24 c 28.84,0 52.21,-23.38 52.21,-52.21 v -34.62 c 0,-28.83 -23.37,-52.21 -52.21,-52.21"
         style="fill:#a01910;fill-opacity:1;fill-rule:nonzero;stroke:none"
         id="path260" />
      <path
         d="m 7012.07,3612.89 h 440.48 c 492.8,0 892.3,-399.5 892.3,-892.31 V 714.738 c 0,-162.679 -131.89,-294.578 -294.58,-294.578 H 6414.34 c -162.69,0 -294.58,131.899 -294.58,294.578 V 2720.58 c 0,492.81 399.51,892.31 892.31,892.31"
         style="fill:#c73b2e;fill-opacity:1;fill-rule:nonzero;stroke:none"
         id="path262" />
      <path
         d="m 7222.85,3612.89 h -51.3 c 484.42,0 877.12,-392.7 877.12,-877.12 V 709.73 c 0,-159.921 -129.64,-289.57 -289.56,-289.57 h 51.3 c 159.92,0 289.56,129.649 289.56,289.57 v 2026.04 c 0,484.42 -392.71,877.12 -877.12,877.12"
         style="fill:#d73b2e;fill-opacity:1;fill-rule:nonzero;stroke:none"
         id="path264" />
      <path
         d="m 7275.44,3612.89 h -51.3 c 484.42,0 877.13,-392.7 877.13,-877.12 V 709.73 c 0,-159.921 -129.65,-289.57 -289.57,-289.57 h 51.3 c 159.92,0 289.56,129.649 289.56,289.57 v 2026.04 c 0,484.42 -392.7,877.12 -877.12,877.12"
         style="fill:#b13023;fill-opacity:1;fill-rule:nonzero;stroke:none"
         id="path266" />
      <path
         d="m 6381.87,3612.89 h 440.47 c 492.81,0 892.31,-399.5 892.31,-892.31 V 714.738 c 0,-162.679 -131.89,-294.578 -294.58,-294.578 H 5784.15 c -162.7,0 -294.58,131.899 -294.58,294.578 V 2720.58 c 0,492.81 399.49,892.31 892.3,892.31"
         style="fill:#f05040;fill-opacity:1;fill-rule:nonzero;stroke:none"
         id="path268" />
      <path
         d="m 6911.12,3612.89 h -167.81 c 484.42,0 877.12,-392.7 877.12,-877.12 V 709.73 c 0,-159.921 -129.64,-289.57 -289.56,-289.57 h 167.81 c 159.92,0 289.56,129.649 289.56,289.57 v 2026.04 c 0,484.42 -392.7,877.12 -877.12,877.12"
         style="fill:#f15b4c;fill-opacity:1;fill-rule:nonzero;stroke:none"
         id="path270" />
      <path
         d="M 5756.23,2114.26 V 884.801 c 0,-79.192 64.2,-143.391 143.39,-143.391 H 7284.3 c 79.19,0 143.39,64.199 143.39,143.391 V 2114.26 c 0,71.15 -57.66,128.81 -128.81,128.81 H 5885.04 c -71.15,0 -128.81,-57.66 -128.81,-128.81"
         style="fill:#c73b2e;fill-opacity:1;fill-rule:nonzero;stroke:none"
         id="path272" />
      <path
         d="m 7427.69,2601.81 v 145.67 c 0,255.15 -206.84,462 -462.01,462 h -747.45 c -255.16,0 -462,-206.85 -462,-462 v -145.67 c 0,-67.29 54.55,-121.84 121.84,-121.84 h 1427.78 c 67.29,0 121.84,54.55 121.84,121.84"
         style="fill:#c73b2e;fill-opacity:1;fill-rule:nonzero;stroke:none"
         id="path274" />
      <path
         d="M 5667.46,2114.26 V 884.801 c 0,-79.192 64.19,-143.391 143.38,-143.391 h 1384.69 c 79.19,0 143.39,64.199 143.39,143.391 V 2114.26 c 0,71.15 -57.67,128.81 -128.81,128.81 H 5796.27 c -71.15,0 -128.81,-57.66 -128.81,-128.81"
         style="fill:#ff594a;fill-opacity:1;fill-rule:nonzero;stroke:none"
         id="path276" />
      <path
         d="M 7210.11,2243.07 H 5796.27 c -54.09,0 -100.33,-33.38 -119.42,-80.63 h 1506.36 c 42.69,0 77.3,-34.6 77.3,-77.3 V 757.09 c 46.5,23.711 78.41,71.93 78.41,127.711 V 2114.26 c 0,71.15 -57.67,128.81 -128.81,128.81"
         style="fill:#ff7569;fill-opacity:1;fill-rule:nonzero;stroke:none"
         id="path278" />
      <path
         d="m 7338.92,2601.81 v 145.67 c 0,255.15 -206.84,462 -462.01,462 h -747.45 c -255.16,0 -462,-206.85 -462,-462 v -145.67 c 0,-67.29 54.55,-121.84 121.83,-121.84 h 1427.79 c 67.29,0 121.84,54.55 121.84,121.84"
         style="fill:#ff594a;fill-opacity:1;fill-rule:nonzero;stroke:none"
         id="path280" />
      <path
         d="m 6876.91,3209.48 h -747.45 c -179.69,0 -335.3,-102.65 -411.7,-252.45 4.37,8.56 8.96,16.99 13.83,25.23 78.78,83.15 190.16,135.1 313.73,135.1 h 807.04 c 238.7,0 432.21,-193.52 432.21,-432.22 v -184.75 0 c 32.75,21.84 54.35,59.1 54.35,101.42 v 145.67 c 0,255.15 -206.85,462 -462.01,462"
         style="fill:#ff7569;fill-opacity:1;fill-rule:nonzero;stroke:none"
         id="path282" />
      <path
         d="M 7054.79,2780.13 H 5812.92 c -13.28,0 -24.05,10.78 -24.05,24.06 v 0 c 0,13.28 10.77,24.05 24.05,24.05 h 1241.87 c 13.28,0 24.06,-10.77 24.06,-24.05 v 0 c 0,-13.28 -10.78,-24.06 -24.06,-24.06"
         style="fill:#c73b2e;fill-opacity:1;fill-rule:nonzero;stroke:none"
         id="path284" />
      <path
         d="M 6636.13,2657.59 H 3928.04 c -156.98,0 -284.29,-127.31 -284.29,-284.28 V 591.352 c 0,-157.032 127.31,-284.282 284.29,-284.282 h 2708.09 c 157.04,0 284.3,127.25 284.3,284.282 V 2373.31 c 0,156.97 -127.26,284.28 -284.3,284.28"
         style="fill:#ba702d;fill-opacity:1;fill-rule:nonzero;stroke:none"
         id="path286" />
      <path
         d="m 4960.99,1304.54 c 24.2,-34.51 15.83,-82.11 -18.68,-106.31 L 4372.52,798.398 c -34.51,-24.199 -82.11,-15.839 -106.32,18.672 l -172.76,246.63 c -24.19,34.51 -15.84,82.1 18.67,106.3 l 569.81,399.79 c 34.5,24.22 82.12,15.87 106.33,-18.65 l 172.74,-246.6"
         style="fill:#ffffff;fill-opacity:1;fill-rule:nonzero;stroke:none"
         id="path288" />
      <path
         d="m 4881.4,1276.95 c 9.48,-13.52 6.2,-32.15 -7.31,-41.62 l -228.88,-160.49 -10.19,-7.12 -54.24,-38.01 -4.74,-3.36 -224.72,-157.6 c -13.52,-9.492 -32.15,-6.211 -41.63,7.301 l -143.23,204.319 c -9.48,13.5 -6.2,32.14 7.31,41.61 l 402.27,282.01 58.98,41.37 61.53,43.19 c 13.51,9.48 32.15,6.21 41.63,-7.3 l 143.22,-204.3"
         style="fill:#ffc14a;fill-opacity:1;fill-rule:nonzero;stroke:none"
         id="path290" />
      <path
         d="m 3643.75,2373.31 v -174.53 c 1.64,-0.02 3.24,-0.22 4.92,-0.04 223.18,22.35 400.67,199.84 423.03,423.02 1.41,14.11 -4.35,26.97 -13.98,35.83 h -129.68 c -156.98,0 -284.29,-127.31 -284.29,-284.28"
         style="fill:#915219;fill-opacity:1;fill-rule:nonzero;stroke:none"
         id="path292" />
      <path
         d="m 3928.04,307.07 h 183.93 c -30.51,213.848 -204.04,381.641 -420.61,403.34 -25.32,2.531 -47.09,-17.629 -47.61,-42.949 v -76.109 c 0,-157.032 127.31,-284.282 284.29,-284.282"
         style="fill:#915219;fill-opacity:1;fill-rule:nonzero;stroke:none"
         id="path294" />
      <path
         d="m 6872.71,738.84 c -223.17,-22.352 -400.67,-199.852 -423.02,-423.02 -0.31,-2.98 -0.22,-5.902 0.08,-8.75 h 186.36 c 157.04,0 284.3,127.25 284.3,284.282 v 103.636 c 0,25.762 -22.08,46.422 -47.72,43.852"
         style="fill:#915219;fill-opacity:1;fill-rule:nonzero;stroke:none"
         id="path296" />
      <path
         d="m 6636.13,2657.59 h -103.69 c -13.61,-8.42 -22.38,-23.78 -20.67,-40.92 21.87,-218.35 192.28,-392.88 408.66,-421.26 v 177.9 c 0,156.97 -127.26,284.28 -284.3,284.28"
         style="fill:#915219;fill-opacity:1;fill-rule:nonzero;stroke:none"
         id="path298" />
      <path
         d="M 6954.23,669.199 V 524.711 c 0,-141.801 -114.96,-256.762 -256.77,-256.762 h -144.48 c -24.21,0 -43.64,20.75 -41.22,44.84 21.01,209.781 187.85,376.609 397.62,397.629 24.09,2.41 44.85,-17.008 44.85,-41.219"
         style="fill:#ffc14a;fill-opacity:1;fill-rule:nonzero;stroke:none"
         id="path300" />
      <path
         d="m 6954.23,2300.31 v 144.48 c 0,141.81 -114.96,256.77 -256.77,256.77 h -144.48 c -24.21,0 -43.64,-20.75 -41.22,-44.85 21.01,-209.77 187.85,-376.61 397.62,-397.62 24.09,-2.41 44.85,17 44.85,41.22"
         style="fill:#ffc14a;fill-opacity:1;fill-rule:nonzero;stroke:none"
         id="path302" />
      <path
         d="m 3600.96,2300.31 v 144.48 c 0,141.81 114.96,256.77 256.77,256.77 h 144.48 c 24.22,0 43.64,-20.75 41.22,-44.85 -21.01,-209.77 -187.85,-376.61 -397.62,-397.62 -24.1,-2.41 -44.85,17 -44.85,41.22"
         style="fill:#ffc14a;fill-opacity:1;fill-rule:nonzero;stroke:none"
         id="path304" />
      <path
         d="M 3600.96,669.199 V 524.711 c 0,-141.801 114.96,-256.762 256.77,-256.762 h 144.48 c 24.22,0 43.64,20.75 41.22,44.84 -21.01,209.781 -187.85,376.609 -397.62,397.629 -24.1,2.41 -44.85,-17.008 -44.85,-41.219"
         style="fill:#ffc14a;fill-opacity:1;fill-rule:nonzero;stroke:none"
         id="path306" />
      <path
         d="m 4543.51,307.398 h -64.47 V 2657.59 h 64.47 V 307.398"
         style="fill:#af672d;fill-opacity:1;fill-rule:nonzero;stroke:none"
         id="path308" />
      <path
         d="m 4479.04,873.141 64.47,45.25 v 554.289 l -64.47,-45.23 V 873.141"
         style="fill:#ffefbf;fill-opacity:1;fill-rule:nonzero;stroke:none"
         id="path310" />
      <path
         d="m 4479.04,958.328 64.47,45.212 v 377.66 l -64.47,-45.21 V 958.328"
         style="fill:#ffa941;fill-opacity:1;fill-rule:nonzero;stroke:none"
         id="path312" />
      <path
         d="m 6393.96,307.07 h -64.47 v 2350.52 h 64.47 V 307.07"
         style="fill:#af672d;fill-opacity:1;fill-rule:nonzero;stroke:none"
         id="path314" />
      <path
         d="m 5891.78,682.648 c -4.44,-5.808 -9.34,-11.507 -14.24,-16.859 -13.91,-15.051 -29.18,-27.809 -45.72,-38.418 -8.32,-5.363 -17.1,-10.262 -25.98,-14.473 -21.2,-10.378 -43.78,-17.339 -66.81,-20.976 -2.5,-0.344 -4.9,-0.684 -7.4,-1.024 -60.2,-7.527 -123,7.52 -174.87,47.301 -98.83,75.692 -121.98,213.512 -57,316.903 3.88,6.039 7.98,12.199 12.54,18.238 53.47,69.66 137.93,101.79 219.33,91.88 2.5,-0.34 4.9,-0.68 7.4,-1.02 22.92,-3.54 45.49,-10.49 66.81,-20.98 8.88,-4.22 17.55,-9.12 25.98,-14.59 5.37,-3.43 10.49,-6.95 15.39,-10.83 104.99,-80.249 124.83,-230.269 44.57,-335.152"
         style="fill:#ffffff;fill-opacity:1;fill-rule:nonzero;stroke:none"
         id="path316" />
      <path
         d="m 5833.73,727.16 c -3.08,-4.058 -6.44,-8.019 -9.9,-11.781 -9.6,-10.391 -20.19,-19.301 -31.67,-26.617 -19.69,-12.774 -41.76,-21.082 -64.43,-24.641 -43.24,-6.73 -88.96,3.457 -126.47,32.16 -68.58,52.547 -84.71,148.149 -39.58,219.899 2.66,4.25 5.53,8.5 8.71,12.66 38.19,49.879 99.26,72.05 157.34,63.039 22.47,-3.461 44.44,-11.68 64.43,-24.641 3.66,-2.379 7.22,-4.847 10.69,-7.527 72.83,-55.711 86.59,-159.82 30.88,-232.551"
         style="fill:#fdb500;fill-opacity:1;fill-rule:nonzero;stroke:none"
         id="path318" />
      <path
         d="m 5609.28,3094.29 h -609.61 c -123.63,0 -224.21,-100.58 -224.21,-224.21 v -212.49 h 111.37 v 212.49 c 0,62.19 50.65,112.84 112.84,112.84 h 609.61 c 62.19,0 112.84,-50.65 112.84,-112.84 v -212.49 h 111.37 v 212.49 c 0,123.63 -100.58,224.21 -224.21,224.21"
         style="fill:#ffffff;fill-opacity:1;fill-rule:nonzero;stroke:none"
         id="path320" />
      <path
         d="m 4942.52,2745.52 h -222.75 c -30.75,0 -55.68,-24.93 -55.68,-55.69 v -32.24 h 334.11 v 32.24 c 0,30.76 -24.93,55.69 -55.68,55.69"
         style="fill:#683b22;fill-opacity:1;fill-rule:nonzero;stroke:none"
         id="path322" />
      <path
         d="m 5889.18,2745.52 h -222.75 c -30.75,0 -55.68,-24.93 -55.68,-55.69 v -32.24 h 334.11 v 32.24 c 0,30.76 -24.93,55.69 -55.68,55.69"
         style="fill:#683b22;fill-opacity:1;fill-rule:nonzero;stroke:none"
         id="path324" />
      <path
         d="m 5597.43,3116.77 h -568.32 c -18.75,0 -33.95,-10.01 -33.95,-22.37 v -112.22 c 0,-12.36 15.2,-22.38 33.95,-22.38 h 568.32 c 18.75,0 33.94,10.02 33.94,22.38 v 112.22 c 0,12.36 -15.19,22.37 -33.94,22.37"
         style="fill:#683b22;fill-opacity:1;fill-rule:nonzero;stroke:none"
         id="path326" />
      <path
         d="m 4423.35,2678.11 h -140.68 c -30.75,0 -55.69,-25.12 -55.69,-56.13 V 323.461 c 0,-31 24.94,-56.133 55.69,-56.133 h 140.68 c 30.75,0 55.69,25.133 55.69,56.133 V 2621.98 c 0,31.01 -24.94,56.13 -55.69,56.13"
         style="fill:#915219;fill-opacity:1;fill-rule:nonzero;stroke:none"
         id="path328" />
      <path
         d="m 6281.5,2678.11 h -140.68 c -30.75,0 -55.69,-25.12 -55.69,-56.13 V 323.461 c 0,-31 24.94,-56.133 55.69,-56.133 h 140.68 c 30.75,0 55.69,25.133 55.69,56.133 V 2621.98 c 0,31.01 -24.94,56.13 -55.69,56.13"
         style="fill:#915219;fill-opacity:1;fill-rule:nonzero;stroke:none"
         id="path330" />
      <path
         d="m 6238.55,2358.22 c 0,-14.91 -12.09,-27 -27.01,-27 -14.91,0 -27,12.09 -27,27 0,14.92 12.09,27.01 27,27.01 14.92,0 27.01,-12.09 27.01,-27.01"
         style="fill:#683b22;fill-opacity:1;fill-rule:nonzero;stroke:none"
         id="path332" />
      <path
         d="m 6238.55,2212.41 c 0,-14.92 -12.09,-27.01 -27.01,-27.01 -14.91,0 -27,12.09 -27,27.01 0,14.91 12.09,27.01 27,27.01 14.92,0 27.01,-12.1 27.01,-27.01"
         style="fill:#683b22;fill-opacity:1;fill-rule:nonzero;stroke:none"
         id="path334" />
      <path
         d="m 6239.32,2064.24 c 0,-14.92 -12.1,-27.01 -27.01,-27.01 -14.91,0 -27.01,12.09 -27.01,27.01 0,14.92 12.1,27.01 27.01,27.01 14.91,0 27.01,-12.09 27.01,-27.01"
         style="fill:#683b22;fill-opacity:1;fill-rule:nonzero;stroke:none"
         id="path336" />
      <path
         d="m 6331.78,1543.62 h -241.24 c -24.76,0 -44.83,20.07 -44.83,44.83 v 192.19 c 0,34.67 28.11,62.78 62.78,62.78 h 205.34 c 34.67,0 62.78,-28.11 62.78,-62.78 v -192.19 c 0,-24.76 -20.07,-44.83 -44.83,-44.83"
         style="fill:#ffc14a;fill-opacity:1;fill-rule:nonzero;stroke:none"
         id="path338" />
      <path
         d="m 6340.05,1763.66 v -193.48 c 0,-24.83 -20.19,-45.12 -45.13,-45.12 h -167.54 c -24.94,0 -45.13,20.29 -45.13,45.12 v 193.48 c 0,24.93 20.19,45.13 45.13,45.13 h 167.54 c 24.94,0 45.13,-20.2 45.13,-45.13"
         style="fill:#915219;fill-opacity:1;fill-rule:nonzero;stroke:none"
         id="path340" />
      <path
         d="m 6340.04,1600.2 v -43.69 c 0,-17.36 -20.19,-31.42 -45.13,-31.42 h -167.45 c -24.93,0 -45.23,14.06 -45.23,31.42 v 6.69 c 9.51,-6.83 23.27,-10.61 37.81,-9.37 l 180.31,15.23 c 22.96,1.92 39.69,15.51 39.69,31.14"
         style="fill:#683b22;fill-opacity:1;fill-rule:nonzero;stroke:none"
         id="path342" />
      <path
         d="m 6211.93,1525.09 v 0 c -8.2,0 -14.84,6.65 -14.84,14.85 v 64.2 c 0,8.2 6.64,14.84 14.84,14.84 v 0 c 8.19,0 14.84,-6.64 14.84,-14.84 v -64.2 c 0,-8.2 -6.65,-14.85 -14.84,-14.85"
         style="fill:#ffc14a;fill-opacity:1;fill-rule:nonzero;stroke:none"
         id="path344" />
      <path
         d="m 6340.05,1763.66 v -4.36 h -257.8 v 4.36 c 0,24.93 20.19,45.13 45.13,45.13 h 167.54 c 24.94,0 45.13,-20.2 45.13,-45.13"
         style="fill:#683b22;fill-opacity:1;fill-rule:nonzero;stroke:none"
         id="path346" />
      <path
         d="m 4473.63,1543.62 h -241.24 c -24.76,0 -44.83,20.07 -44.83,44.83 v 187.94 c 0,37.03 30.01,67.03 67.02,67.03 h 196.85 c 37.02,0 67.03,-30 67.03,-67.03 v -187.94 c 0,-24.76 -20.07,-44.83 -44.83,-44.83"
         style="fill:#ffc14a;fill-opacity:1;fill-rule:nonzero;stroke:none"
         id="path348" />
      <path
         d="m 4437.06,1525.09 h -168.1 c -24.76,0 -44.83,20.07 -44.83,44.83 v 194.03 c 0,24.76 20.07,44.84 44.83,44.84 h 168.1 c 24.76,0 44.83,-20.08 44.83,-44.84 v -194.03 c 0,-24.76 -20.07,-44.83 -44.83,-44.83"
         style="fill:#915219;fill-opacity:1;fill-rule:nonzero;stroke:none"
         id="path350" />
      <path
         d="m 4481.88,1600.2 v -43.69 c 0,-17.36 -20.18,-31.42 -45.12,-31.42 h -167.45 c -24.94,0 -45.23,14.06 -45.23,31.42 v 6.69 c 9.51,-6.83 23.26,-10.61 37.81,-9.37 l 180.31,15.23 c 22.96,1.92 39.68,15.51 39.68,31.14"
         style="fill:#683b22;fill-opacity:1;fill-rule:nonzero;stroke:none"
         id="path352" />
      <path
         d="m 4353.78,1525.09 v 0 c -8.2,0 -14.85,6.65 -14.85,14.85 v 64.2 c 0,8.2 6.65,14.84 14.85,14.84 v 0 c 8.19,0 14.84,-6.64 14.84,-14.84 v -64.2 c 0,-8.2 -6.65,-14.85 -14.84,-14.85"
         style="fill:#ffc14a;fill-opacity:1;fill-rule:nonzero;stroke:none"
         id="path354" />
      <path
         d="m 4481.88,1763.66 v -4.36 h -257.8 v 4.36 c 0,24.93 20.19,45.13 45.13,45.13 h 167.55 c 24.94,0 45.12,-20.2 45.12,-45.13"
         style="fill:#683b22;fill-opacity:1;fill-rule:nonzero;stroke:none"
         id="path356" />
      <path
         d="m 4380.02,2358.22 c 0,-14.91 -12.09,-27 -27.01,-27 -14.92,0 -27.01,12.09 -27.01,27 0,14.92 12.09,27.01 27.01,27.01 14.92,0 27.01,-12.09 27.01,-27.01"
         style="fill:#683b22;fill-opacity:1;fill-rule:nonzero;stroke:none"
         id="path358" />
      <path
         d="m 4380.02,2212.41 c 0,-14.92 -12.09,-27.01 -27.01,-27.01 -14.92,0 -27.01,12.09 -27.01,27.01 0,14.91 12.09,27.01 27.01,27.01 14.92,0 27.01,-12.1 27.01,-27.01"
         style="fill:#683b22;fill-opacity:1;fill-rule:nonzero;stroke:none"
         id="path360" />
      <path
         d="m 4380.78,2064.24 c 0,-14.92 -12.09,-27.01 -27,-27.01 -14.92,0 -27.01,12.09 -27.01,27.01 0,14.92 12.09,27.01 27.01,27.01 14.91,0 27,-12.09 27,-27.01"
         style="fill:#683b22;fill-opacity:1;fill-rule:nonzero;stroke:none"
         id="path362" />
    </g>
  </g>
</svg>
